<?xml version="1.0" encoding="UTF-8" standalone="no"?>
<!-- Created with Inkscape (http://www.inkscape.org/) -->

<svg
   xmlns:dc="http://purl.org/dc/elements/1.1/"
   xmlns:cc="http://creativecommons.org/ns#"
   xmlns:rdf="http://www.w3.org/1999/02/22-rdf-syntax-ns#"
   xmlns:svg="http://www.w3.org/2000/svg"
   xmlns="http://www.w3.org/2000/svg"
   xmlns:sodipodi="http://sodipodi.sourceforge.net/DTD/sodipodi-0.dtd"
   xmlns:inkscape="http://www.inkscape.org/namespaces/inkscape"
   width="127mm"
   height="128.5mm"
   viewBox="0 0 127 128.5"
   version="1.1"
   id="svg8"
   inkscape:version="0.92.3 (2405546, 2018-03-11)"
   sodipodi:docname="RSBoogieBayH8.svg">
  <defs
     id="defs2" />
  <sodipodi:namedview
     id="base"
     pagecolor="#ffffff"
     bordercolor="#666666"
     borderopacity="1.0"
     inkscape:pageopacity="0.0"
     inkscape:pageshadow="2"
     inkscape:zoom="2.90625"
     inkscape:cx="240"
     inkscape:cy="242.83465"
     inkscape:document-units="mm"
     inkscape:current-layer="layer1"
     showgrid="true"
     inkscape:pagecheckerboard="false"
     borderlayer="false"
     inkscape:showpageshadow="false"
     inkscape:window-width="1917"
     inkscape:window-height="1680"
     inkscape:window-x="2870"
     inkscape:window-y="453"
     inkscape:window-maximized="0"
     showguides="true"
     inkscape:guide-bbox="true"
     objecttolerance="20">
    <inkscape:grid
       type="xygrid"
       id="grid829"
       spacingx="5.0800001"
       spacingy="5.0800001"
       units="mm"
       snapvisiblegridlinesonly="false"
       enabled="true"
       dotted="false" />
    <sodipodi:guide
       position="-20.160001,15.12"
       orientation="0,1"
       id="guide844"
       inkscape:locked="false" />
    <sodipodi:guide
       position="25.400001,60.960002"
       orientation="1,0"
       id="guide846"
       inkscape:locked="false" />
  </sodipodi:namedview>
  <metadata
     id="metadata5">
    <rdf:RDF>
      <cc:Work
         rdf:about="">
        <dc:format>image/svg+xml</dc:format>
        <dc:type
           rdf:resource="http://purl.org/dc/dcmitype/StillImage" />
        <dc:title></dc:title>
      </cc:Work>
    </rdf:RDF>
  </metadata>
  <g
     inkscape:label="Layer 1"
     id="layer1"
     transform="translate(0,-168.5)"
     style="display:inline"
     inkscape:groupmode="layer">
    <rect
       style="opacity:1;fill:#191919;fill-opacity:1;fill-rule:nonzero;stroke:none;stroke-width:2.26735854;stroke-miterlimit:4;stroke-dasharray:none;stroke-opacity:1"
       id="rect1002"
       width="126.9859"
       height="128.54521"
       x="0"
       y="168.41252" />
    <text
       xml:space="preserve"
       style="font-style:normal;font-variant:normal;font-weight:normal;font-stretch:normal;font-size:4.93888855px;line-height:1.25;font-family:FreeSans;-inkscape-font-specification:'FreeSans, Normal';font-variant-ligatures:normal;font-variant-caps:normal;font-variant-numeric:normal;text-align:start;letter-spacing:0px;word-spacing:0px;writing-mode:lr-tb;text-anchor:start;fill:#b4b4b4;fill-opacity:1;stroke:none;stroke-width:0.26458332"
       x="5.04"
       y="221.39999"
       id="text903"><tspan
         sodipodi:role="line"
         id="tspan901"
         x="5.04"
         y="225.96846"
         style="fill:#b4b4b4;fill-opacity:1;stroke-width:0.26458332" /></text>
    <path
       inkscape:connector-curvature="0"
       id="path864"
       d="m 103.82001,181.10759 c -80.64002,0 -80.64002,0 -80.64002,0"
       style="fill:none;stroke:#000000;stroke-width:2;stroke-linecap:round;stroke-linejoin:miter;stroke-miterlimit:4;stroke-dasharray:none;stroke-opacity:1" />
    <path
       style="fill:none;stroke:#000000;stroke-width:2;stroke-linecap:round;stroke-linejoin:miter;stroke-miterlimit:4;stroke-dasharray:none;stroke-opacity:1"
       d="m 103.82001,196.34758 c -80.640019,0 -80.640019,0 -80.640019,0"
       id="path927"
       inkscape:connector-curvature="0" />
    <path
       inkscape:connector-curvature="0"
       id="path929"
       d="m 103.82001,211.58759 c -80.64002,0 -80.64002,0 -80.64002,0"
       style="fill:none;stroke:#000000;stroke-width:2;stroke-linecap:round;stroke-linejoin:miter;stroke-miterlimit:4;stroke-dasharray:none;stroke-opacity:1" />
    <path
       style="fill:none;stroke:#000000;stroke-width:2;stroke-linecap:round;stroke-linejoin:miter;stroke-miterlimit:4;stroke-dasharray:none;stroke-opacity:1"
       d="m 103.82001,226.82758 c -80.640019,0 -80.640019,0 -80.640019,0"
       id="path931"
       inkscape:connector-curvature="0" />
    <path
       inkscape:connector-curvature="0"
       id="path933"
       d="m 103.82001,242.06759 c -80.64002,0 -80.64002,0 -80.64002,0"
       style="fill:none;stroke:#000000;stroke-width:2;stroke-linecap:round;stroke-linejoin:miter;stroke-miterlimit:4;stroke-dasharray:none;stroke-opacity:1" />
    <path
       style="fill:none;stroke:#000000;stroke-width:2;stroke-linecap:round;stroke-linejoin:miter;stroke-miterlimit:4;stroke-dasharray:none;stroke-opacity:1"
       d="m 103.82001,257.30759 c -80.64002,0 -80.64002,0 -80.64002,0"
       id="path935"
       inkscape:connector-curvature="0" />
    <path
       inkscape:connector-curvature="0"
       id="path937"
       d="m 103.82001,272.54759 c -80.640019,0 -80.640019,0 -80.640019,0"
       style="fill:none;stroke:#000000;stroke-width:2;stroke-linecap:round;stroke-linejoin:miter;stroke-miterlimit:4;stroke-dasharray:none;stroke-opacity:1" />
    <path
       style="fill:none;stroke:#000000;stroke-width:2;stroke-linecap:round;stroke-linejoin:miter;stroke-miterlimit:4;stroke-dasharray:none;stroke-opacity:1"
       d="m 103.82001,287.78759 c -80.64002,0 -80.64002,0 -80.64002,0"
       id="path939"
       inkscape:connector-curvature="0" />
    <g
       aria-label="Racket Science"
       style="font-style:normal;font-variant:normal;font-weight:normal;font-stretch:normal;font-size:4.93888855px;line-height:1.25;font-family:FreeSans;-inkscape-font-specification:'FreeSans, Normal';font-variant-ligatures:normal;font-variant-caps:normal;font-variant-numeric:normal;text-align:start;letter-spacing:0px;word-spacing:0px;writing-mode:lr-tb;text-anchor:start;fill:#000000;fill-opacity:1;stroke:none;stroke-width:0.26458332"
       id="text1078">
      <path
         d="m 54.259785,293.003 q 0.246944,-0.06 0.47625,-0.06 0.183444,0 0.331611,0.0423 0.148166,0.0423 0.254,0.13406 0.105833,0.0917 0.162278,0.23636 0.05997,0.14464 0.05997,0.34925 0,0.254 -0.09878,0.41275 -0.09525,0.15522 -0.261056,0.23636 0.04233,0.0706 0.105834,0.19403 0.06703,0.11994 0.134055,0.26811 0.07056,0.14464 0.134056,0.29986 0.06703,0.15522 0.112889,0.29634 h -0.3175 q -0.03881,-0.10584 -0.09878,-0.23989 -0.05644,-0.13406 -0.119944,-0.26459 -0.0635,-0.13405 -0.127,-0.254 -0.0635,-0.12347 -0.112889,-0.20814 -0.05644,0.007 -0.116417,0.0106 -0.05997,0.004 -0.119944,0.004 h -0.08819 v 0.9525 h -0.310444 z m 0.310444,1.19592 h 0.134056 q 0.243416,0 0.373944,-0.10936 0.130528,-0.11289 0.130528,-0.38453 0,-0.13758 -0.03528,-0.2293 -0.03175,-0.0953 -0.09525,-0.14817 -0.05997,-0.0564 -0.148167,-0.0811 -0.08467,-0.0247 -0.1905,-0.0247 -0.09172,0 -0.169333,0.0106 z"
         style="font-style:normal;font-variant:normal;font-weight:normal;font-stretch:normal;font-size:3.52777767px;font-family:'Ubuntu Condensed';-inkscape-font-specification:'Ubuntu Condensed, Normal';font-variant-ligatures:normal;font-variant-caps:normal;font-variant-numeric:normal;font-feature-settings:normal;text-align:start;writing-mode:lr-tb;text-anchor:start;fill:#b4b4b4;fill-opacity:1;stroke-width:0.26458332"
         id="path1080"
         inkscape:connector-curvature="0" />
      <path
         d="m 56.044509,293.5992 q 0.09172,-0.0388 0.194028,-0.06 0.102306,-0.0247 0.22225,-0.0247 0.246945,0 0.402167,0.15522 0.155222,0.1517 0.155222,0.47625 v 1.22767 q -0.127,0.0353 -0.261055,0.0564 -0.130528,0.0212 -0.257528,0.0212 -0.127,0 -0.239889,-0.0317 -0.109361,-0.0317 -0.194028,-0.1023 -0.08114,-0.0706 -0.130528,-0.17639 -0.04939,-0.10936 -0.04939,-0.26459 0,-0.14464 0.04233,-0.25047 0.04586,-0.10936 0.123472,-0.17992 0.07761,-0.0741 0.183444,-0.10936 0.105834,-0.0388 0.229306,-0.0388 0.116417,0 0.257528,0.0282 v -0.16933 q 0,-0.20461 -0.08114,-0.28575 -0.07761,-0.0811 -0.225778,-0.0811 -0.08114,0 -0.155222,0.0176 -0.07056,0.0141 -0.151695,0.0494 z m 0.144639,1.27353 q 0,0.16227 0.08467,0.23988 0.08467,0.0776 0.239889,0.0776 0.09525,0 0.208139,-0.0247 v -0.58914 q -0.105834,-0.0282 -0.208139,-0.0282 -0.06703,0 -0.127,0.0176 -0.05997,0.0141 -0.105833,0.0529 -0.04233,0.0353 -0.06703,0.0988 -0.02469,0.06 -0.02469,0.15523 z"
         style="font-style:normal;font-variant:normal;font-weight:normal;font-stretch:normal;font-size:3.52777767px;font-family:'Ubuntu Condensed';-inkscape-font-specification:'Ubuntu Condensed, Normal';font-variant-ligatures:normal;font-variant-caps:normal;font-variant-numeric:normal;font-feature-settings:normal;text-align:start;writing-mode:lr-tb;text-anchor:start;fill:#b4b4b4;fill-opacity:1;stroke-width:0.26458332"
         id="path1082"
         inkscape:connector-curvature="0" />
      <path
         d="m 58.110354,295.45834 q -0.1905,0 -0.3175,-0.0741 -0.127,-0.0741 -0.208139,-0.20108 -0.07761,-0.13053 -0.112889,-0.30692 -0.03175,-0.17639 -0.03175,-0.38452 0,-0.45862 0.165806,-0.71614 0.169333,-0.26106 0.508,-0.26106 0.102305,0 0.183444,0.0247 0.08114,0.0247 0.151695,0.0635 l -0.07761,0.25047 q -0.109362,-0.0706 -0.243417,-0.0706 -0.1905,0 -0.282222,0.17286 -0.08819,0.17286 -0.08819,0.53623 0,0.15169 0.01764,0.28222 0.01764,0.127 0.05997,0.21872 0.04586,0.0917 0.116417,0.14464 0.07408,0.0529 0.186972,0.0529 0.07761,0 0.137584,-0.0176 0.0635,-0.0212 0.119944,-0.0529 l 0.06703,0.23636 q -0.05645,0.0388 -0.151695,0.0706 -0.09172,0.0318 -0.201083,0.0318 z"
         style="font-style:normal;font-variant:normal;font-weight:normal;font-stretch:normal;font-size:3.52777767px;font-family:'Ubuntu Condensed';-inkscape-font-specification:'Ubuntu Condensed, Normal';font-variant-ligatures:normal;font-variant-caps:normal;font-variant-numeric:normal;font-feature-settings:normal;text-align:start;writing-mode:lr-tb;text-anchor:start;fill:#b4b4b4;fill-opacity:1;stroke-width:0.26458332"
         id="path1084"
         inkscape:connector-curvature="0" />
      <path
         d="m 59.939562,293.56039 q -0.148167,0.254 -0.28575,0.46567 -0.134056,0.20814 -0.268111,0.39158 0.08467,0.0988 0.172861,0.22225 0.08819,0.12347 0.169333,0.25753 0.08114,0.13053 0.151695,0.26458 0.07055,0.13053 0.119944,0.25048 h -0.331611 q -0.05292,-0.11642 -0.123472,-0.24342 -0.07056,-0.127 -0.148167,-0.24695 -0.07761,-0.12347 -0.155222,-0.23283 -0.07761,-0.10936 -0.144639,-0.18344 v 0.90664 h -0.303389 v -2.68464 l 0.303389,-0.0529 v 1.68275 q 0.0635,-0.0847 0.134056,-0.1905 0.07408,-0.10583 0.144639,-0.21167 0.07055,-0.10936 0.134055,-0.21166 0.0635,-0.10231 0.105833,-0.18345 z"
         style="font-style:normal;font-variant:normal;font-weight:normal;font-stretch:normal;font-size:3.52777767px;font-family:'Ubuntu Condensed';-inkscape-font-specification:'Ubuntu Condensed, Normal';font-variant-ligatures:normal;font-variant-caps:normal;font-variant-numeric:normal;font-feature-settings:normal;text-align:start;writing-mode:lr-tb;text-anchor:start;fill:#b4b4b4;fill-opacity:1;stroke-width:0.26458332"
         id="path1086"
         inkscape:connector-curvature="0" />
      <path
         d="m 60.455003,294.57639 q 0.0035,0.13406 0.0247,0.24695 0.02117,0.10936 0.06703,0.19402 0.04939,0.0811 0.127,0.127 0.08114,0.0459 0.204611,0.0459 0.102305,0 0.186972,-0.0282 0.08819,-0.0317 0.127,-0.0529 l 0.05644,0.24341 q -0.04586,0.0317 -0.155222,0.067 -0.105833,0.0388 -0.254,0.0388 -0.194028,0 -0.328083,-0.0706 -0.130528,-0.0706 -0.215195,-0.19755 -0.08114,-0.127 -0.116416,-0.30339 -0.03528,-0.17639 -0.03528,-0.38806 0,-0.51153 0.169333,-0.74789 0.169334,-0.23636 0.448028,-0.23636 0.313972,0 0.4445,0.23636 0.130528,0.23636 0.130528,0.66322 0,0.0388 0,0.0811 0,0.0388 -0.0035,0.0811 z m 0.306917,-0.80433 q -0.151694,0 -0.22225,0.15169 -0.06703,0.1517 -0.08114,0.4057 h 0.560917 q 0,-0.25753 -0.05292,-0.4057 -0.05292,-0.15169 -0.204611,-0.15169 z"
         style="font-style:normal;font-variant:normal;font-weight:normal;font-stretch:normal;font-size:3.52777767px;font-family:'Ubuntu Condensed';-inkscape-font-specification:'Ubuntu Condensed, Normal';font-variant-ligatures:normal;font-variant-caps:normal;font-variant-numeric:normal;font-feature-settings:normal;text-align:start;writing-mode:lr-tb;text-anchor:start;fill:#b4b4b4;fill-opacity:1;stroke-width:0.26458332"
         id="path1088"
         inkscape:connector-curvature="0" />
      <path
         d="m 62.065599,293.56039 h 0.465667 v 0.26106 h -0.465667 v 1.01953 q 0,0.1905 0.06703,0.26811 0.07055,0.0741 0.186972,0.0741 0.05997,0 0.112889,-0.0176 0.05644,-0.0176 0.09525,-0.0423 l 0.05997,0.24341 q -0.144639,0.0847 -0.306917,0.0847 -0.261055,0 -0.391583,-0.14464 -0.127,-0.14816 -0.127,-0.48683 v -1.75683 l 0.303389,-0.0529 z"
         style="font-style:normal;font-variant:normal;font-weight:normal;font-stretch:normal;font-size:3.52777767px;font-family:'Ubuntu Condensed';-inkscape-font-specification:'Ubuntu Condensed, Normal';font-variant-ligatures:normal;font-variant-caps:normal;font-variant-numeric:normal;font-feature-settings:normal;text-align:start;writing-mode:lr-tb;text-anchor:start;fill:#b4b4b4;fill-opacity:1;stroke-width:0.26458332"
         id="path1090"
         inkscape:connector-curvature="0" />
      <path
         d="m 63.926943,295.19375 q 0.1905,0 0.292806,-0.10583 0.105833,-0.10583 0.105833,-0.28575 0,-0.0952 -0.03175,-0.16933 -0.03175,-0.0741 -0.08467,-0.13406 -0.04939,-0.06 -0.116416,-0.10936 -0.06703,-0.0494 -0.137584,-0.0988 -0.08114,-0.0564 -0.169333,-0.11994 -0.08819,-0.0635 -0.162278,-0.14817 -0.07055,-0.0847 -0.116416,-0.19755 -0.04586,-0.11289 -0.04586,-0.26459 0,-0.14816 0.04939,-0.26811 0.05292,-0.11994 0.141111,-0.20461 0.09172,-0.0847 0.215195,-0.13053 0.127,-0.0459 0.271639,-0.0459 0.141111,0 0.261055,0.0353 0.119945,0.0353 0.201084,0.0847 l -0.09878,0.25047 q -0.07408,-0.0494 -0.162278,-0.0741 -0.08467,-0.0282 -0.179917,-0.0282 -0.172861,0 -0.278694,0.0952 -0.102306,0.0917 -0.102306,0.27164 0,0.0988 0.03175,0.17286 0.03528,0.0741 0.08819,0.13406 0.05644,0.06 0.127,0.10936 0.07408,0.0494 0.155222,0.1023 0.08114,0.0529 0.165806,0.11642 0.08467,0.0635 0.151694,0.14817 0.07056,0.0811 0.112889,0.19403 0.04586,0.10936 0.04586,0.26105 0,0.13758 -0.04233,0.26106 -0.04233,0.12347 -0.134056,0.21872 -0.08819,0.0917 -0.225778,0.14817 -0.134055,0.0529 -0.3175,0.0529 -0.169333,0 -0.296333,-0.0388 -0.127,-0.0388 -0.225778,-0.10231 l 0.09878,-0.254 q 0.09172,0.0564 0.186972,0.0917 0.09878,0.0318 0.225778,0.0318 z"
         style="font-style:normal;font-variant:normal;font-weight:normal;font-stretch:normal;font-size:3.52777767px;font-family:'Ubuntu Condensed';-inkscape-font-specification:'Ubuntu Condensed, Normal';font-variant-ligatures:normal;font-variant-caps:normal;font-variant-numeric:normal;font-feature-settings:normal;text-align:start;writing-mode:lr-tb;text-anchor:start;fill:#b4b4b4;fill-opacity:1;stroke-width:0.26458332"
         id="path1092"
         inkscape:connector-curvature="0" />
      <path
         d="m 65.648223,295.45834 q -0.1905,0 -0.3175,-0.0741 -0.127,-0.0741 -0.208139,-0.20108 -0.07761,-0.13053 -0.112889,-0.30692 -0.03175,-0.17639 -0.03175,-0.38452 0,-0.45862 0.165806,-0.71614 0.169333,-0.26106 0.508,-0.26106 0.102305,0 0.183444,0.0247 0.08114,0.0247 0.151695,0.0635 l -0.07761,0.25047 q -0.109362,-0.0706 -0.243417,-0.0706 -0.1905,0 -0.282222,0.17286 -0.08819,0.17286 -0.08819,0.53623 0,0.15169 0.01764,0.28222 0.01764,0.127 0.05997,0.21872 0.04586,0.0917 0.116417,0.14464 0.07408,0.0529 0.186972,0.0529 0.07761,0 0.137584,-0.0176 0.0635,-0.0212 0.119944,-0.0529 l 0.06703,0.23636 q -0.05644,0.0388 -0.151695,0.0706 -0.09172,0.0318 -0.201083,0.0318 z"
         style="font-style:normal;font-variant:normal;font-weight:normal;font-stretch:normal;font-size:3.52777767px;font-family:'Ubuntu Condensed';-inkscape-font-specification:'Ubuntu Condensed, Normal';font-variant-ligatures:normal;font-variant-caps:normal;font-variant-numeric:normal;font-feature-settings:normal;text-align:start;writing-mode:lr-tb;text-anchor:start;fill:#b4b4b4;fill-opacity:1;stroke-width:0.26458332"
         id="path1094"
         inkscape:connector-curvature="0" />
      <path
         d="m 66.634292,295.41248 h -0.303389 v -1.85209 h 0.303389 z m -0.151694,-2.18017 q -0.08114,0 -0.141111,-0.0529 -0.05644,-0.0564 -0.05644,-0.14816 0,-0.0917 0.05644,-0.14464 0.05997,-0.0565 0.141111,-0.0565 0.08114,0 0.137583,0.0565 0.05997,0.0529 0.05997,0.14464 0,0.0917 -0.05997,0.14816 -0.05644,0.0529 -0.137583,0.0529 z"
         style="font-style:normal;font-variant:normal;font-weight:normal;font-stretch:normal;font-size:3.52777767px;font-family:'Ubuntu Condensed';-inkscape-font-specification:'Ubuntu Condensed, Normal';font-variant-ligatures:normal;font-variant-caps:normal;font-variant-numeric:normal;font-feature-settings:normal;text-align:start;writing-mode:lr-tb;text-anchor:start;fill:#b4b4b4;fill-opacity:1;stroke-width:0.26458332"
         id="path1096"
         inkscape:connector-curvature="0" />
      <path
         d="m 67.393426,294.57639 q 0.0035,0.13406 0.02469,0.24695 0.02117,0.10936 0.06703,0.19402 0.04939,0.0811 0.127,0.127 0.08114,0.0459 0.204611,0.0459 0.102305,0 0.186972,-0.0282 0.08819,-0.0317 0.127,-0.0529 l 0.05644,0.24341 q -0.04586,0.0317 -0.155223,0.067 -0.105833,0.0388 -0.254,0.0388 -0.194027,0 -0.328083,-0.0706 -0.130528,-0.0706 -0.215194,-0.19755 -0.08114,-0.127 -0.116417,-0.30339 -0.03528,-0.17639 -0.03528,-0.38806 0,-0.51153 0.169333,-0.74789 0.169334,-0.23636 0.448028,-0.23636 0.313972,0 0.4445,0.23636 0.130528,0.23636 0.130528,0.66322 0,0.0388 0,0.0811 0,0.0388 -0.0035,0.0811 z m 0.306916,-0.80433 q -0.151694,0 -0.22225,0.15169 -0.06703,0.1517 -0.08114,0.4057 h 0.560917 q 0,-0.25753 -0.05292,-0.4057 -0.05292,-0.15169 -0.204611,-0.15169 z"
         style="font-style:normal;font-variant:normal;font-weight:normal;font-stretch:normal;font-size:3.52777767px;font-family:'Ubuntu Condensed';-inkscape-font-specification:'Ubuntu Condensed, Normal';font-variant-ligatures:normal;font-variant-caps:normal;font-variant-numeric:normal;font-feature-settings:normal;text-align:start;writing-mode:lr-tb;text-anchor:start;fill:#b4b4b4;fill-opacity:1;stroke-width:0.26458332"
         id="path1098"
         inkscape:connector-curvature="0" />
      <path
         d="m 68.721799,293.61331 q 0.130528,-0.0388 0.282222,-0.0635 0.151695,-0.0282 0.278695,-0.0282 0.137583,0 0.250472,0.0388 0.112889,0.0353 0.1905,0.12347 0.08114,0.0882 0.123472,0.23989 0.04586,0.14817 0.04586,0.37042 v 1.11831 h -0.303389 v -1.09362 q 0,-0.27516 -0.07055,-0.40216 -0.07056,-0.127 -0.264584,-0.127 -0.102305,0 -0.229305,0.0353 v 1.5875 h -0.303389 z"
         style="font-style:normal;font-variant:normal;font-weight:normal;font-stretch:normal;font-size:3.52777767px;font-family:'Ubuntu Condensed';-inkscape-font-specification:'Ubuntu Condensed, Normal';font-variant-ligatures:normal;font-variant-caps:normal;font-variant-numeric:normal;font-feature-settings:normal;text-align:start;writing-mode:lr-tb;text-anchor:start;fill:#b4b4b4;fill-opacity:1;stroke-width:0.26458332"
         id="path1100"
         inkscape:connector-curvature="0" />
      <path
         d="m 70.988121,295.45834 q -0.1905,0 -0.3175,-0.0741 -0.127,-0.0741 -0.208139,-0.20108 -0.07761,-0.13053 -0.112889,-0.30692 -0.03175,-0.17639 -0.03175,-0.38452 0,-0.45862 0.165806,-0.71614 0.169333,-0.26106 0.508,-0.26106 0.102305,0 0.183444,0.0247 0.08114,0.0247 0.151695,0.0635 l -0.07761,0.25047 q -0.109361,-0.0706 -0.243417,-0.0706 -0.1905,0 -0.282222,0.17286 -0.08819,0.17286 -0.08819,0.53623 0,0.15169 0.01764,0.28222 0.01764,0.127 0.05997,0.21872 0.04586,0.0917 0.116417,0.14464 0.07408,0.0529 0.186972,0.0529 0.07761,0 0.137584,-0.0176 0.0635,-0.0212 0.119944,-0.0529 l 0.06703,0.23636 q -0.05644,0.0388 -0.151695,0.0706 -0.09172,0.0318 -0.201083,0.0318 z"
         style="font-style:normal;font-variant:normal;font-weight:normal;font-stretch:normal;font-size:3.52777767px;font-family:'Ubuntu Condensed';-inkscape-font-specification:'Ubuntu Condensed, Normal';font-variant-ligatures:normal;font-variant-caps:normal;font-variant-numeric:normal;font-feature-settings:normal;text-align:start;writing-mode:lr-tb;text-anchor:start;fill:#b4b4b4;fill-opacity:1;stroke-width:0.26458332"
         id="path1102"
         inkscape:connector-curvature="0" />
      <path
         d="m 71.858269,294.57639 q 0.0035,0.13406 0.02469,0.24695 0.02117,0.10936 0.06703,0.19402 0.04939,0.0811 0.127,0.127 0.08114,0.0459 0.204611,0.0459 0.102305,0 0.186972,-0.0282 0.08819,-0.0317 0.127,-0.0529 l 0.05644,0.24341 q -0.04586,0.0317 -0.155222,0.067 -0.105833,0.0388 -0.254,0.0388 -0.194028,0 -0.328083,-0.0706 -0.130528,-0.0706 -0.215195,-0.19755 -0.08114,-0.127 -0.116416,-0.30339 -0.03528,-0.17639 -0.03528,-0.38806 0,-0.51153 0.169333,-0.74789 0.169334,-0.23636 0.448028,-0.23636 0.313972,0 0.4445,0.23636 0.130528,0.23636 0.130528,0.66322 0,0.0388 0,0.0811 0,0.0388 -0.0035,0.0811 z m 0.306917,-0.80433 q -0.151694,0 -0.22225,0.15169 -0.06703,0.1517 -0.08114,0.4057 h 0.560917 q 0,-0.25753 -0.05292,-0.4057 -0.05292,-0.15169 -0.204611,-0.15169 z"
         style="font-style:normal;font-variant:normal;font-weight:normal;font-stretch:normal;font-size:3.52777767px;font-family:'Ubuntu Condensed';-inkscape-font-specification:'Ubuntu Condensed, Normal';font-variant-ligatures:normal;font-variant-caps:normal;font-variant-numeric:normal;font-feature-settings:normal;text-align:start;writing-mode:lr-tb;text-anchor:start;fill:#b4b4b4;fill-opacity:1;stroke-width:0.26458332"
         id="path1104"
         inkscape:connector-curvature="0" />
    </g>
    <g
       aria-label="BOOGIE BAY H8"
       style="font-style:normal;font-variant:normal;font-weight:normal;font-stretch:normal;font-size:4.93888855px;line-height:1.25;font-family:FreeSans;-inkscape-font-specification:'FreeSans, Normal';font-variant-ligatures:normal;font-variant-caps:normal;font-variant-numeric:normal;text-align:start;letter-spacing:0px;word-spacing:0px;writing-mode:lr-tb;text-anchor:start;fill:#000000;fill-opacity:1;stroke:none;stroke-width:0.26458332"
       id="text895">
      <path
         d="m 49.935341,173.00777 h 0.306211 q 0.612422,0 0.612422,-0.55315 0,-0.17286 -0.05433,-0.28152 -0.04939,-0.11359 -0.13335,-0.17286 -0.08396,-0.0642 -0.197555,-0.0889 -0.108656,-0.0247 -0.232128,-0.0247 -0.07408,0 -0.153105,0.005 -0.07408,0.005 -0.148167,0.0148 z m 0,0.3556 v 1.23472 q 0.09384,0.0148 0.182739,0.0247 0.09384,0.01 0.182739,0.01 0.138289,0 0.261761,-0.0296 0.123472,-0.0296 0.212372,-0.0988 0.09384,-0.0691 0.143228,-0.18768 0.05433,-0.12347 0.05433,-0.30127 0,-0.30622 -0.167923,-0.47908 -0.162983,-0.17286 -0.513644,-0.17286 z m -0.4445,-1.76318 q 0.172861,-0.0395 0.350661,-0.0593 0.182739,-0.0247 0.360539,-0.0247 0.22225,0 0.419805,0.0444 0.202495,0.0395 0.3556,0.14323 0.153106,0.0988 0.242006,0.2667 0.09384,0.16298 0.09384,0.40992 0,0.30621 -0.128411,0.50377 -0.128411,0.19262 -0.330906,0.28646 0.251884,0.0988 0.414867,0.30127 0.162983,0.20249 0.162983,0.55809 0,0.2667 -0.0889,0.44944 -0.08396,0.18274 -0.242005,0.30127 -0.158045,0.1136 -0.380295,0.16793 -0.217311,0.0494 -0.479072,0.0494 -0.172861,0 -0.360539,-0.0198 -0.187678,-0.0198 -0.390172,-0.0593 z"
         style="font-style:normal;font-variant:normal;font-weight:normal;font-stretch:normal;font-size:4.93888903px;font-family:'Ubuntu Condensed';-inkscape-font-specification:'Ubuntu Condensed, Normal';font-variant-ligatures:normal;font-variant-caps:normal;font-variant-numeric:normal;font-feature-settings:normal;text-align:center;writing-mode:lr-tb;text-anchor:middle;fill:#b4b4b4;fill-opacity:1;stroke-width:0.26458332"
         id="path897"
         inkscape:connector-curvature="0" />
      <path
         d="m 54.362978,173.26459 q 0,0.40005 -0.07408,0.73096 -0.06914,0.32597 -0.22225,0.56303 -0.148166,0.23213 -0.380294,0.36054 -0.227189,0.12841 -0.538339,0.12841 -0.31115,0 -0.543278,-0.12841 -0.227189,-0.12841 -0.380294,-0.36054 -0.148167,-0.23706 -0.22225,-0.56303 -0.07408,-0.33091 -0.07408,-0.73096 0,-0.40005 0.07408,-0.73095 0.07408,-0.33091 0.22225,-0.56303 0.153105,-0.23707 0.380294,-0.36548 0.232128,-0.13335 0.543278,-0.13335 0.31115,0 0.538339,0.13335 0.232128,0.12841 0.380294,0.36548 0.153106,0.23212 0.22225,0.56303 0.07408,0.3309 0.07408,0.73095 z m -0.474134,0 q 0,-0.31115 -0.03951,-0.56797 -0.03951,-0.25682 -0.128411,-0.43956 -0.0889,-0.18768 -0.232128,-0.29139 -0.138289,-0.10372 -0.340783,-0.10372 -0.202494,0 -0.345722,0.10372 -0.138289,0.10371 -0.227189,0.29139 -0.0889,0.18274 -0.13335,0.43956 -0.03951,0.25682 -0.03951,0.56797 0,0.31115 0.03951,0.56798 0.04445,0.25682 0.13335,0.43956 0.0889,0.18274 0.227189,0.28645 0.143228,0.0988 0.345722,0.0988 0.202494,0 0.340783,-0.0988 0.143228,-0.10371 0.232128,-0.28645 0.0889,-0.18274 0.128411,-0.43956 0.03951,-0.25683 0.03951,-0.56798 z"
         style="font-style:normal;font-variant:normal;font-weight:normal;font-stretch:normal;font-size:4.93888903px;font-family:'Ubuntu Condensed';-inkscape-font-specification:'Ubuntu Condensed, Normal';font-variant-ligatures:normal;font-variant-caps:normal;font-variant-numeric:normal;font-feature-settings:normal;text-align:center;writing-mode:lr-tb;text-anchor:middle;fill:#b4b4b4;fill-opacity:1;stroke-width:0.26458332"
         id="path899"
         inkscape:connector-curvature="0" />
      <path
         d="m 57.35332,173.26459 q 0,0.40005 -0.07408,0.73096 -0.06914,0.32597 -0.22225,0.56303 -0.148167,0.23213 -0.380294,0.36054 -0.227189,0.12841 -0.538339,0.12841 -0.31115,0 -0.543278,-0.12841 -0.227189,-0.12841 -0.380295,-0.36054 -0.148166,-0.23706 -0.22225,-0.56303 -0.07408,-0.33091 -0.07408,-0.73096 0,-0.40005 0.07408,-0.73095 0.07408,-0.33091 0.22225,-0.56303 0.153106,-0.23707 0.380295,-0.36548 0.232128,-0.13335 0.543278,-0.13335 0.31115,0 0.538339,0.13335 0.232127,0.12841 0.380294,0.36548 0.153106,0.23212 0.22225,0.56303 0.07408,0.3309 0.07408,0.73095 z m -0.474133,0 q 0,-0.31115 -0.03951,-0.56797 -0.03951,-0.25682 -0.128411,-0.43956 -0.0889,-0.18768 -0.232128,-0.29139 -0.138289,-0.10372 -0.340783,-0.10372 -0.202495,0 -0.345723,0.10372 -0.138289,0.10371 -0.227189,0.29139 -0.0889,0.18274 -0.13335,0.43956 -0.03951,0.25682 -0.03951,0.56797 0,0.31115 0.03951,0.56798 0.04445,0.25682 0.13335,0.43956 0.0889,0.18274 0.227189,0.28645 0.143228,0.0988 0.345723,0.0988 0.202494,0 0.340783,-0.0988 0.143228,-0.10371 0.232128,-0.28645 0.0889,-0.18274 0.128411,-0.43956 0.03951,-0.25683 0.03951,-0.56798 z"
         style="font-style:normal;font-variant:normal;font-weight:normal;font-stretch:normal;font-size:4.93888903px;font-family:'Ubuntu Condensed';-inkscape-font-specification:'Ubuntu Condensed, Normal';font-variant-ligatures:normal;font-variant-caps:normal;font-variant-numeric:normal;font-feature-settings:normal;text-align:center;writing-mode:lr-tb;text-anchor:middle;fill:#b4b4b4;fill-opacity:1;stroke-width:0.26458332"
         id="path901"
         inkscape:connector-curvature="0" />
      <path
         d="m 57.903852,173.25966 q 0,-0.48402 0.0889,-0.8248 0.0889,-0.34078 0.251884,-0.55315 0.167922,-0.21732 0.40005,-0.31115 0.237066,-0.0988 0.528461,-0.0988 0.22225,0 0.404989,0.0642 0.182739,0.0593 0.296333,0.13829 l -0.138289,0.37042 q -0.113594,-0.079 -0.246944,-0.12841 -0.13335,-0.0543 -0.306212,-0.0543 -0.429683,0 -0.617361,0.35066 -0.187677,0.34572 -0.187677,1.04705 0,0.37535 0.05433,0.64205 0.05927,0.2667 0.162984,0.43462 0.103716,0.16793 0.251883,0.24695 0.148167,0.079 0.330906,0.079 0.153105,0 0.261761,-0.0346 v -1.33844 h 0.4445 v 1.61008 q -0.13335,0.0642 -0.330906,0.10865 -0.197555,0.0445 -0.414867,0.0445 -0.2667,0 -0.493888,-0.10371 -0.227189,-0.10866 -0.395112,-0.32597 -0.162983,-0.22225 -0.256822,-0.5581 -0.0889,-0.34078 -0.0889,-0.80503 z"
         style="font-style:normal;font-variant:normal;font-weight:normal;font-stretch:normal;font-size:4.93888903px;font-family:'Ubuntu Condensed';-inkscape-font-specification:'Ubuntu Condensed, Normal';font-variant-ligatures:normal;font-variant-caps:normal;font-variant-numeric:normal;font-feature-settings:normal;text-align:center;writing-mode:lr-tb;text-anchor:middle;fill:#b4b4b4;fill-opacity:1;stroke-width:0.26458332"
         id="path903"
         inkscape:connector-curvature="0" />
      <path
         d="m 60.641926,171.5508 h 0.4445 v 3.42265 h -0.4445 z"
         style="font-style:normal;font-variant:normal;font-weight:normal;font-stretch:normal;font-size:4.93888903px;font-family:'Ubuntu Condensed';-inkscape-font-specification:'Ubuntu Condensed, Normal';font-variant-ligatures:normal;font-variant-caps:normal;font-variant-numeric:normal;font-feature-settings:normal;text-align:center;writing-mode:lr-tb;text-anchor:middle;fill:#b4b4b4;fill-opacity:1;stroke-width:0.26458332"
         id="path905"
         inkscape:connector-curvature="0" />
      <path
         d="m 61.915234,174.97345 v -3.42265 h 1.535994 v 0.38029 h -1.091494 v 1.06187 h 0.987777 v 0.37041 h -0.987777 v 1.22979 h 1.170516 v 0.38029 z"
         style="font-style:normal;font-variant:normal;font-weight:normal;font-stretch:normal;font-size:4.93888903px;font-family:'Ubuntu Condensed';-inkscape-font-specification:'Ubuntu Condensed, Normal';font-variant-ligatures:normal;font-variant-caps:normal;font-variant-numeric:normal;font-feature-settings:normal;text-align:center;writing-mode:lr-tb;text-anchor:middle;fill:#b4b4b4;fill-opacity:1;stroke-width:0.26458332"
         id="path907"
         inkscape:connector-curvature="0" />
      <path
         d="m 65.57194,173.00777 h 0.306212 q 0.612422,0 0.612422,-0.55315 0,-0.17286 -0.05433,-0.28152 -0.04939,-0.11359 -0.13335,-0.17286 -0.08396,-0.0642 -0.197556,-0.0889 -0.108655,-0.0247 -0.232127,-0.0247 -0.07408,0 -0.153106,0.005 -0.07408,0.005 -0.148167,0.0148 z m 0,0.3556 v 1.23472 q 0.09384,0.0148 0.182739,0.0247 0.09384,0.01 0.182739,0.01 0.138289,0 0.261761,-0.0296 0.123473,-0.0296 0.212373,-0.0988 0.09384,-0.0691 0.143227,-0.18768 0.05433,-0.12347 0.05433,-0.30127 0,-0.30622 -0.167922,-0.47908 -0.162983,-0.17286 -0.513645,-0.17286 z m -0.4445,-1.76318 q 0.172862,-0.0395 0.350662,-0.0593 0.182738,-0.0247 0.360538,-0.0247 0.22225,0 0.419806,0.0444 0.202494,0.0395 0.3556,0.14323 0.153106,0.0988 0.242006,0.2667 0.09384,0.16298 0.09384,0.40992 0,0.30621 -0.128411,0.50377 -0.128411,0.19262 -0.330905,0.28646 0.251883,0.0988 0.414866,0.30127 0.162984,0.20249 0.162984,0.55809 0,0.2667 -0.0889,0.44944 -0.08396,0.18274 -0.242006,0.30127 -0.158044,0.1136 -0.380294,0.16793 -0.217311,0.0494 -0.479072,0.0494 -0.172862,0 -0.360539,-0.0198 -0.187678,-0.0198 -0.390173,-0.0593 z"
         style="font-style:normal;font-variant:normal;font-weight:normal;font-stretch:normal;font-size:4.93888903px;font-family:'Ubuntu Condensed';-inkscape-font-specification:'Ubuntu Condensed, Normal';font-variant-ligatures:normal;font-variant-caps:normal;font-variant-numeric:normal;font-feature-settings:normal;text-align:center;writing-mode:lr-tb;text-anchor:middle;fill:#b4b4b4;fill-opacity:1;stroke-width:0.26458332"
         id="path909"
         inkscape:connector-curvature="0" />
      <path
         d="m 68.764855,171.5508 q 0.118533,0.37042 0.232127,0.75071 0.118534,0.37536 0.227189,0.79022 0.113595,0.41487 0.22225,0.87913 0.113595,0.46425 0.227189,1.00259 h -0.4445 q -0.03951,-0.22225 -0.08396,-0.43956 -0.03951,-0.21731 -0.08396,-0.43462 h -1.07668 q -0.04939,0.21731 -0.0889,0.43462 -0.03951,0.21731 -0.07902,0.43956 h -0.429684 q 0.108656,-0.53834 0.22225,-1.00259 0.113595,-0.46426 0.22225,-0.87913 0.113595,-0.41486 0.227189,-0.79022 0.118534,-0.38029 0.237067,-0.75071 z m -0.242006,0.50377 q -0.123472,0.40992 -0.237067,0.82479 -0.113594,0.41487 -0.217311,0.84949 h 0.903817 q -0.09878,-0.43462 -0.212372,-0.84949 -0.113595,-0.41487 -0.237067,-0.82479 z"
         style="font-style:normal;font-variant:normal;font-weight:normal;font-stretch:normal;font-size:4.93888903px;font-family:'Ubuntu Condensed';-inkscape-font-specification:'Ubuntu Condensed, Normal';font-variant-ligatures:normal;font-variant-caps:normal;font-variant-numeric:normal;font-feature-settings:normal;text-align:center;writing-mode:lr-tb;text-anchor:middle;fill:#b4b4b4;fill-opacity:1;stroke-width:0.26458332"
         id="path911"
         inkscape:connector-curvature="0" />
      <path
         d="m 71.796562,171.5508 q -0.08396,0.23213 -0.187678,0.49389 -0.09878,0.26176 -0.212372,0.5334 -0.113595,0.2667 -0.232128,0.5334 -0.118534,0.2667 -0.237067,0.5087 v 1.35326 h -0.4445 v -1.32362 q -0.118533,-0.24201 -0.242005,-0.51365 -0.123473,-0.27164 -0.237067,-0.54327 -0.113595,-0.27164 -0.217311,-0.53834 -0.103717,-0.2667 -0.187678,-0.50377 h 0.479072 q 0.128411,0.39017 0.291395,0.82479 0.162983,0.43463 0.335844,0.80998 0.172861,-0.37535 0.335845,-0.80998 0.162983,-0.43462 0.291394,-0.82479 z"
         style="font-style:normal;font-variant:normal;font-weight:normal;font-stretch:normal;font-size:4.93888903px;font-family:'Ubuntu Condensed';-inkscape-font-specification:'Ubuntu Condensed, Normal';font-variant-ligatures:normal;font-variant-caps:normal;font-variant-numeric:normal;font-feature-settings:normal;text-align:center;writing-mode:lr-tb;text-anchor:middle;fill:#b4b4b4;fill-opacity:1;stroke-width:0.26458332"
         id="path913"
         inkscape:connector-curvature="0" />
      <path
         d="m 74.762288,171.5508 h 0.4445 v 3.42265 h -0.4445 v -1.59032 h -1.126067 v 1.59032 h -0.4445 v -3.42265 h 0.4445 v 1.44709 h 1.126067 z"
         style="font-style:normal;font-variant:normal;font-weight:normal;font-stretch:normal;font-size:4.93888903px;font-family:'Ubuntu Condensed';-inkscape-font-specification:'Ubuntu Condensed, Normal';font-variant-ligatures:normal;font-variant-caps:normal;font-variant-numeric:normal;font-feature-settings:normal;text-align:center;writing-mode:lr-tb;text-anchor:middle;fill:#b4b4b4;fill-opacity:1;stroke-width:0.26458332"
         id="path915"
         inkscape:connector-curvature="0" />
      <path
         d="m 77.464708,172.30645 q 0,0.28646 -0.143228,0.52352 -0.138289,0.23213 -0.325967,0.40499 0.207434,0.15311 0.360539,0.37042 0.153106,0.21237 0.153106,0.5087 0,0.23213 -0.07408,0.40993 -0.06914,0.17286 -0.187677,0.2914 -0.113595,0.11359 -0.261762,0.17286 -0.148166,0.0593 -0.306211,0.0593 -0.182739,0 -0.335844,-0.0691 -0.153106,-0.0642 -0.261761,-0.1778 -0.108656,-0.11853 -0.167922,-0.28152 -0.05927,-0.16298 -0.05927,-0.3556 0,-0.30621 0.13335,-0.54328 0.138289,-0.242 0.365478,-0.42474 -0.187678,-0.14323 -0.306211,-0.36054 -0.118534,-0.22225 -0.118534,-0.51858 0,-0.22225 0.06914,-0.3803 0.06914,-0.16298 0.1778,-0.2667 0.113594,-0.10371 0.251883,-0.14816 0.138289,-0.0494 0.281517,-0.0494 0.138289,0 0.271639,0.0494 0.138288,0.0444 0.246944,0.14816 0.108656,0.0988 0.172861,0.25683 0.06421,0.15804 0.06421,0.38029 z m -0.370417,1.83727 q 0,-0.12841 -0.04445,-0.23707 -0.03951,-0.11359 -0.108656,-0.20743 -0.06914,-0.0988 -0.158044,-0.1778 -0.08396,-0.079 -0.1778,-0.14817 -0.143228,0.13335 -0.237067,0.31115 -0.09384,0.1778 -0.09384,0.4445 0,0.2667 0.108656,0.42968 0.113594,0.15805 0.306211,0.15805 0.162983,0 0.281517,-0.14323 0.123472,-0.14817 0.123473,-0.42968 z M 76.34358,172.262 q 0,0.15804 0.02469,0.28152 0.02469,0.11853 0.07408,0.21237 0.04939,0.0889 0.118533,0.16298 0.07408,0.0741 0.167922,0.13829 0.138289,-0.14323 0.22225,-0.30127 0.0889,-0.16298 0.0889,-0.41981 0,-0.30127 -0.09878,-0.41486 -0.09878,-0.11854 -0.242005,-0.11854 -0.05433,0 -0.118533,0.0198 -0.06421,0.0197 -0.118534,0.0741 -0.04939,0.0494 -0.08396,0.13829 -0.03457,0.0889 -0.03457,0.22719 z"
         style="font-style:normal;font-variant:normal;font-weight:normal;font-stretch:normal;font-size:4.93888903px;font-family:'Ubuntu Condensed';-inkscape-font-specification:'Ubuntu Condensed, Normal';font-variant-ligatures:normal;font-variant-caps:normal;font-variant-numeric:normal;font-feature-settings:normal;text-align:center;writing-mode:lr-tb;text-anchor:middle;fill:#b4b4b4;fill-opacity:1;stroke-width:0.26458332"
         id="path917"
         inkscape:connector-curvature="0" />
    </g>
  </g>
  <g
     id="layer2"
     inkscape:label="components"
     style="display:none"
     inkscape:groupmode="layer">
    <circle
       style="display:inline;opacity:1;fill:#00ff00;fill-opacity:1;stroke:none;stroke-width:0.25;stroke-miterlimit:4;stroke-dasharray:none;stroke-opacity:0.56593407"
       id="circle981"
       cx="63.5"
       cy="119.2876"
       r="2.9510982"
       inkscape:label="IN8" />
    <circle
       inkscape:label="IN7"
       r="2.9510982"
       cy="104.04759"
       cx="63.5"
       id="circle866"
       style="display:inline;opacity:1;fill:#00ff00;fill-opacity:1;stroke:none;stroke-width:0.25;stroke-miterlimit:4;stroke-dasharray:none;stroke-opacity:0.56593407" />
    <circle
       style="display:inline;opacity:1;fill:#00ff00;fill-opacity:1;stroke:none;stroke-width:0.25;stroke-miterlimit:4;stroke-dasharray:none;stroke-opacity:0.56593407"
       id="circle868"
       cx="63.5"
       cy="88.807587"
       r="2.9510982"
       inkscape:label="IN6" />
    <circle
       inkscape:label="IN5"
       r="2.9510982"
       cy="73.567589"
       cx="63.5"
       id="circle870"
       style="display:inline;opacity:1;fill:#00ff00;fill-opacity:1;stroke:none;stroke-width:0.25;stroke-miterlimit:4;stroke-dasharray:none;stroke-opacity:0.56593407" />
    <circle
       style="display:inline;opacity:1;fill:#00ff00;fill-opacity:1;stroke:none;stroke-width:0.25;stroke-miterlimit:4;stroke-dasharray:none;stroke-opacity:0.56593407"
       id="circle872"
       cx="63.5"
       cy="58.327587"
       r="2.9510982"
       inkscape:label="IN4" />
    <circle
       inkscape:label="IN3"
       r="2.9510982"
       cy="43.087582"
       cx="63.5"
       id="circle874"
       style="display:inline;opacity:1;fill:#00ff00;fill-opacity:1;stroke:none;stroke-width:0.25;stroke-miterlimit:4;stroke-dasharray:none;stroke-opacity:0.56593407" />
    <circle
       inkscape:label="IN1"
       r="2.9510982"
       cy="12.607574"
       cx="63.5"
       id="circle857"
       style="display:inline;opacity:1;fill:#00ff00;fill-opacity:1;stroke:none;stroke-width:0.25;stroke-miterlimit:4;stroke-dasharray:none;stroke-opacity:0.56593407" />
    <circle
       style="display:inline;opacity:1;fill:#00ff00;fill-opacity:1;stroke:none;stroke-width:0.25;stroke-miterlimit:4;stroke-dasharray:none;stroke-opacity:0.56593407"
       id="circle876"
       cx="63.5"
       cy="27.847586"
       r="2.9510982"
       inkscape:label="IN2" />
    <circle
       style="display:inline;opacity:1;fill:#0000ff;fill-opacity:1;stroke:none;stroke-width:0.25;stroke-miterlimit:4;stroke-dasharray:none;stroke-opacity:0.56593407"
       id="path4984-0"
       cx="10.003378"
       cy="12.607587"
       r="2.9510982"
       inkscape:label="OUTL1" />
    <circle
       inkscape:label="OUTL2"
       r="2.9510982"
       cy="27.84757"
       cx="9.9483337"
       id="circle915"
       style="display:inline;opacity:1;fill:#0000ff;fill-opacity:1;stroke:none;stroke-width:0.25;stroke-miterlimit:4;stroke-dasharray:none;stroke-opacity:0.56593407" />
    <circle
       style="display:inline;opacity:1;fill:#0000ff;fill-opacity:1;stroke:none;stroke-width:0.25;stroke-miterlimit:4;stroke-dasharray:none;stroke-opacity:0.56593407"
       id="circle917"
       cx="9.9483337"
       cy="43.087574"
       r="2.9510982"
       inkscape:label="OUTL3" />
    <circle
       inkscape:label="OUTL4"
       r="2.9510982"
       cy="58.327579"
       cx="9.9483337"
       id="circle919"
       style="display:inline;opacity:1;fill:#0000ff;fill-opacity:1;stroke:none;stroke-width:0.25;stroke-miterlimit:4;stroke-dasharray:none;stroke-opacity:0.56593407" />
    <circle
       style="display:inline;opacity:1;fill:#0000ff;fill-opacity:1;stroke:none;stroke-width:0.25;stroke-miterlimit:4;stroke-dasharray:none;stroke-opacity:0.56593407"
       id="circle921"
       cx="9.9483337"
       cy="73.567574"
       r="2.9510982"
       inkscape:label="OUTL5" />
    <circle
       inkscape:label="OUTL6"
       r="2.9510982"
       cy="88.807579"
       cx="9.9483337"
       id="circle923"
       style="display:inline;opacity:1;fill:#0000ff;fill-opacity:1;stroke:none;stroke-width:0.25;stroke-miterlimit:4;stroke-dasharray:none;stroke-opacity:0.56593407" />
    <circle
       style="display:inline;opacity:1;fill:#0000ff;fill-opacity:1;stroke:none;stroke-width:0.25;stroke-miterlimit:4;stroke-dasharray:none;stroke-opacity:0.56593407"
       id="circle925"
       cx="9.9483337"
       cy="104.04757"
       r="2.9510982"
       inkscape:label="OUTL7" />
    <circle
       inkscape:label="OUTL8"
       r="2.9510982"
       cy="119.28759"
       cx="9.9483337"
       id="circle927"
       style="display:inline;opacity:1;fill:#0000ff;fill-opacity:1;stroke:none;stroke-width:0.25;stroke-miterlimit:4;stroke-dasharray:none;stroke-opacity:0.56593407" />
    <circle
       inkscape:label="OUTR1"
       r="2.9510982"
       cy="12.607579"
       cx="117.05167"
       id="circle929"
       style="display:inline;opacity:1;fill:#0000ff;fill-opacity:1;stroke:none;stroke-width:0.25;stroke-miterlimit:4;stroke-dasharray:none;stroke-opacity:0.56593407" />
    <circle
       style="display:inline;opacity:1;fill:#0000ff;fill-opacity:1;stroke:none;stroke-width:0.25;stroke-miterlimit:4;stroke-dasharray:none;stroke-opacity:0.56593407"
       id="circle931"
       cx="117.05167"
       cy="27.84757"
       r="2.9510982"
       inkscape:label="OUTR2"
       inkscape:transform-center-x="1.5412294"
       inkscape:transform-center-y="-12.329835" />
    <circle
       inkscape:transform-center-y="-12.329835"
       inkscape:transform-center-x="1.5412294"
       inkscape:label="OUTR3"
       r="2.9510982"
       cy="43.087574"
       cx="117.05167"
       id="circle933"
       style="display:inline;opacity:1;fill:#0000ff;fill-opacity:1;stroke:none;stroke-width:0.25;stroke-miterlimit:4;stroke-dasharray:none;stroke-opacity:0.56593407" />
    <circle
       style="display:inline;opacity:1;fill:#0000ff;fill-opacity:1;stroke:none;stroke-width:0.25;stroke-miterlimit:4;stroke-dasharray:none;stroke-opacity:0.56593407"
       id="circle935"
       cx="117.05167"
       cy="58.327579"
       r="2.9510982"
       inkscape:label="OUTR4"
       inkscape:transform-center-x="1.5412294"
       inkscape:transform-center-y="-12.329835" />
    <circle
       inkscape:transform-center-y="-12.329835"
       inkscape:transform-center-x="1.5412294"
       inkscape:label="OUTR5"
       r="2.9510982"
       cy="73.567574"
       cx="117.05167"
       id="circle937"
       style="display:inline;opacity:1;fill:#0000ff;fill-opacity:1;stroke:none;stroke-width:0.25;stroke-miterlimit:4;stroke-dasharray:none;stroke-opacity:0.56593407" />
    <circle
       style="display:inline;opacity:1;fill:#0000ff;fill-opacity:1;stroke:none;stroke-width:0.25;stroke-miterlimit:4;stroke-dasharray:none;stroke-opacity:0.56593407"
       id="circle939"
       cx="117.05167"
       cy="88.807579"
       r="2.9510982"
       inkscape:label="OUTR6"
       inkscape:transform-center-x="1.5412294"
       inkscape:transform-center-y="-12.329835" />
    <circle
       inkscape:transform-center-y="-12.329835"
       inkscape:transform-center-x="1.5412294"
       inkscape:label="OUTR7"
       r="2.9510982"
       cy="104.04751"
       cx="117.05167"
       id="circle941"
       style="display:inline;opacity:1;fill:#0000ff;fill-opacity:1;stroke:none;stroke-width:0.25;stroke-miterlimit:4;stroke-dasharray:none;stroke-opacity:0.56593407" />
    <circle
       style="display:inline;opacity:1;fill:#0000ff;fill-opacity:1;stroke:none;stroke-width:0.25;stroke-miterlimit:4;stroke-dasharray:none;stroke-opacity:0.56593407"
       id="circle943"
       cx="117.05167"
       cy="119.28753"
       r="2.9510982"
       inkscape:label="OUTR8"
       inkscape:transform-center-x="1.5412294"
       inkscape:transform-center-y="-12.329835" />
  </g>
</svg>
