<?xml version="1.0" encoding="UTF-8" standalone="no"?>
<!-- Created with Inkscape (http://www.inkscape.org/) -->

<svg
   xmlns:dc="http://purl.org/dc/elements/1.1/"
   xmlns:cc="http://creativecommons.org/ns#"
   xmlns:rdf="http://www.w3.org/1999/02/22-rdf-syntax-ns#"
   xmlns:svg="http://www.w3.org/2000/svg"
   xmlns="http://www.w3.org/2000/svg"
   xmlns:sodipodi="http://sodipodi.sourceforge.net/DTD/sodipodi-0.dtd"
   xmlns:inkscape="http://www.inkscape.org/namespaces/inkscape"
   width="15.24mm"
   height="128.5mm"
   viewBox="0 0 15.24 128.5"
   version="1.1"
   id="svg8"
   inkscape:version="0.92.3 (2405546, 2018-03-11)"
   sodipodi:docname="RSMFH.svg">
  <defs
     id="defs2" />
  <sodipodi:namedview
     id="base"
     pagecolor="#ffffff"
     bordercolor="#666666"
     borderopacity="1.0"
     inkscape:pageopacity="0.0"
     inkscape:pageshadow="2"
     inkscape:zoom="1.7481031"
     inkscape:cx="28.8"
     inkscape:cy="242.83465"
     inkscape:document-units="mm"
     inkscape:current-layer="layer1"
     showgrid="true"
     inkscape:pagecheckerboard="false"
     borderlayer="false"
     inkscape:showpageshadow="false"
     inkscape:window-width="1920"
     inkscape:window-height="1080"
     inkscape:window-x="3186"
     inkscape:window-y="418"
     inkscape:window-maximized="0"
     showguides="true"
     inkscape:guide-bbox="true">
    <inkscape:grid
       type="xygrid"
       id="grid829"
       spacingx="5.0400001"
       spacingy="5.0400001"
       units="mm"
       snapvisiblegridlinesonly="true"
       enabled="true" />
    <sodipodi:guide
       position="-7.9375001,18.520834"
       orientation="0,1"
       id="guide844"
       inkscape:locked="false" />
    <sodipodi:guide
       position="10.08,105.84"
       orientation="1,0"
       id="guide846"
       inkscape:locked="false" />
  </sodipodi:namedview>
  <metadata
     id="metadata5">
    <rdf:RDF>
      <cc:Work
         rdf:about="">
        <dc:format>image/svg+xml</dc:format>
        <dc:type
           rdf:resource="http://purl.org/dc/dcmitype/StillImage" />
        <dc:title></dc:title>
      </cc:Work>
    </rdf:RDF>
  </metadata>
  <g
     inkscape:label="Layer 1"
     id="layer1"
     transform="translate(0,-168.5)"
     style="display:inline"
     inkscape:groupmode="layer">
    <rect
       style="opacity:1;fill:#191919;fill-opacity:1;fill-rule:nonzero;stroke:none;stroke-width:0.7853415;stroke-miterlimit:4;stroke-dasharray:none;stroke-opacity:1"
       id="rect1002"
       width="15.24"
       height="128.5"
       x="0"
       y="168.5" />
    <g
       aria-label="Racket
Science"
       style="font-style:normal;font-variant:normal;font-weight:normal;font-stretch:normal;font-size:4.93888855px;line-height:0;font-family:FreeSans;-inkscape-font-specification:'FreeSans, Normal';font-variant-ligatures:normal;font-variant-caps:normal;font-variant-numeric:normal;text-align:start;letter-spacing:0px;word-spacing:0px;writing-mode:lr-tb;text-anchor:start;fill:#000000;fill-opacity:1;stroke:none;stroke-width:0.26458332"
       id="text936">
      <path
         d="m 3.5604921,289.72523 q 0.2469445,-0.06 0.47625,-0.06 0.1834445,0 0.3316111,0.0423 0.1481667,0.0423 0.254,0.13406 0.1058333,0.0917 0.1622778,0.23636 0.059972,0.14464 0.059972,0.34925 0,0.254 -0.098778,0.41275 -0.09525,0.15522 -0.2610555,0.23636 0.042333,0.0706 0.1058333,0.19403 0.067028,0.11994 0.1340556,0.26811 0.070555,0.14464 0.1340555,0.29986 0.067028,0.15522 0.1128889,0.29633 h -0.3175 q -0.038805,-0.10583 -0.098778,-0.23988 -0.056444,-0.13406 -0.1199444,-0.26459 -0.0635,-0.13405 -0.127,-0.254 -0.0635,-0.12347 -0.1128889,-0.20814 -0.056444,0.007 -0.1164167,0.0106 -0.059972,0.004 -0.1199444,0.004 h -0.088194 v 0.9525 H 3.5604921 Z m 0.3104445,1.19592 h 0.1340555 q 0.2434167,0 0.3739444,-0.10936 0.1305278,-0.11289 0.1305278,-0.38453 0,-0.13758 -0.035278,-0.22931 -0.03175,-0.0952 -0.09525,-0.14816 -0.059972,-0.0564 -0.1481666,-0.0811 -0.084667,-0.0247 -0.1905,-0.0247 -0.091722,0 -0.1693333,0.0106 z"
         style="font-style:normal;font-variant:normal;font-weight:normal;font-stretch:normal;font-size:3.52777767px;line-height:1;font-family:'Ubuntu Condensed';-inkscape-font-specification:'Ubuntu Condensed, Normal';font-variant-ligatures:normal;font-variant-caps:normal;font-variant-numeric:normal;font-feature-settings:normal;text-align:center;writing-mode:lr-tb;text-anchor:middle;fill:#b4b4b4;fill-opacity:1;stroke-width:0.26458332"
         id="path866"
         inkscape:connector-curvature="0" />
      <path
         d="m 5.3452169,290.32143 q 0.091722,-0.0388 0.1940277,-0.06 0.1023056,-0.0247 0.22225,-0.0247 0.2469445,0 0.4021667,0.15522 0.1552222,0.1517 0.1552222,0.47625 v 1.22767 q -0.127,0.0353 -0.2610555,0.0564 -0.1305278,0.0212 -0.2575278,0.0212 -0.127,0 -0.2398889,-0.0318 -0.1093611,-0.0317 -0.1940278,-0.10231 -0.081139,-0.0705 -0.1305277,-0.17638 -0.049389,-0.10937 -0.049389,-0.26459 0,-0.14464 0.042333,-0.25047 0.045861,-0.10936 0.1234722,-0.17992 0.077611,-0.0741 0.1834445,-0.10936 0.1058333,-0.0388 0.2293055,-0.0388 0.1164167,0 0.2575278,0.0282 v -0.16933 q 0,-0.20462 -0.081139,-0.28575 -0.077611,-0.0811 -0.2257778,-0.0811 -0.081139,0 -0.1552222,0.0176 -0.070556,0.0141 -0.1516944,0.0494 z m 0.1446389,1.27352 q 0,0.16228 0.084667,0.23989 0.084667,0.0776 0.2398889,0.0776 0.09525,0 0.2081389,-0.0247 v -0.58914 q -0.1058333,-0.0282 -0.2081389,-0.0282 -0.067028,0 -0.127,0.0176 -0.059972,0.0141 -0.1058333,0.0529 -0.042333,0.0353 -0.067028,0.0988 -0.024694,0.06 -0.024694,0.15522 z"
         style="font-style:normal;font-variant:normal;font-weight:normal;font-stretch:normal;font-size:3.52777767px;line-height:1;font-family:'Ubuntu Condensed';-inkscape-font-specification:'Ubuntu Condensed, Normal';font-variant-ligatures:normal;font-variant-caps:normal;font-variant-numeric:normal;font-feature-settings:normal;text-align:center;writing-mode:lr-tb;text-anchor:middle;fill:#b4b4b4;fill-opacity:1;stroke-width:0.26458332"
         id="path868"
         inkscape:connector-curvature="0" />
      <path
         d="m 7.4110614,292.18057 q -0.1905,0 -0.3175,-0.0741 -0.127,-0.0741 -0.2081389,-0.20108 -0.077611,-0.13053 -0.1128889,-0.30692 -0.03175,-0.17639 -0.03175,-0.38453 0,-0.45861 0.1658056,-0.71613 0.1693333,-0.26106 0.508,-0.26106 0.1023055,0 0.1834444,0.0247 0.081139,0.0247 0.1516945,0.0635 l -0.077611,0.25048 q -0.1093611,-0.0706 -0.2434166,-0.0706 -0.1905,0 -0.2822222,0.17286 -0.088195,0.17286 -0.088195,0.53622 0,0.1517 0.017639,0.28223 0.017639,0.127 0.059972,0.21872 0.045861,0.0917 0.1164167,0.14464 0.074083,0.0529 0.1869722,0.0529 0.077611,0 0.1375833,-0.0176 0.0635,-0.0212 0.1199445,-0.0529 l 0.067028,0.23636 q -0.056444,0.0388 -0.1516945,0.0706 -0.091722,0.0317 -0.2010833,0.0317 z"
         style="font-style:normal;font-variant:normal;font-weight:normal;font-stretch:normal;font-size:3.52777767px;line-height:1;font-family:'Ubuntu Condensed';-inkscape-font-specification:'Ubuntu Condensed, Normal';font-variant-ligatures:normal;font-variant-caps:normal;font-variant-numeric:normal;font-feature-settings:normal;text-align:center;writing-mode:lr-tb;text-anchor:middle;fill:#b4b4b4;fill-opacity:1;stroke-width:0.26458332"
         id="path870"
         inkscape:connector-curvature="0" />
      <path
         d="m 9.2402694,290.28262 q -0.1481667,0.254 -0.28575,0.46567 -0.1340556,0.20814 -0.2681111,0.39158 0.084667,0.0988 0.1728611,0.22225 0.088194,0.12347 0.1693333,0.25753 0.081139,0.13053 0.1516945,0.26458 0.070555,0.13053 0.1199444,0.25047 H 8.9686305 q -0.052917,-0.11641 -0.1234722,-0.24341 -0.070556,-0.127 -0.1481667,-0.24695 -0.077611,-0.12347 -0.1552222,-0.23283 -0.077611,-0.10936 -0.1446389,-0.18344 v 0.90663 H 8.0937416 v -2.68463 l 0.3033889,-0.0529 v 1.68275 q 0.0635,-0.0847 0.1340556,-0.1905 0.074083,-0.10583 0.1446389,-0.21167 0.070556,-0.10936 0.1340555,-0.21166 0.0635,-0.10231 0.1058333,-0.18345 z"
         style="font-style:normal;font-variant:normal;font-weight:normal;font-stretch:normal;font-size:3.52777767px;line-height:1;font-family:'Ubuntu Condensed';-inkscape-font-specification:'Ubuntu Condensed, Normal';font-variant-ligatures:normal;font-variant-caps:normal;font-variant-numeric:normal;font-feature-settings:normal;text-align:center;writing-mode:lr-tb;text-anchor:middle;fill:#b4b4b4;fill-opacity:1;stroke-width:0.26458332"
         id="path872"
         inkscape:connector-curvature="0" />
      <path
         d="m 9.7557108,291.29862 q 0.00353,0.13406 0.024694,0.24695 0.021167,0.10936 0.067028,0.19402 0.049389,0.0811 0.127,0.127 0.081139,0.0459 0.2046112,0.0459 0.102306,0 0.186972,-0.0282 0.0882,-0.0317 0.127,-0.0529 l 0.05645,0.24341 q -0.04586,0.0317 -0.155222,0.067 -0.105834,0.0388 -0.254,0.0388 -0.1940284,0 -0.328084,-0.0706 -0.1305278,-0.0706 -0.2151944,-0.19756 -0.081139,-0.127 -0.1164167,-0.30338 -0.035278,-0.17639 -0.035278,-0.38806 0,-0.51153 0.1693334,-0.74789 0.1693333,-0.23636 0.4480277,-0.23636 0.313973,0 0.4445,0.23636 0.130528,0.23636 0.130528,0.66322 0,0.0388 0,0.0811 0,0.0388 -0.0035,0.0811 z m 0.3069162,-0.80433 q -0.151694,0 -0.2222496,0.15169 -0.067028,0.1517 -0.081139,0.4057 h 0.5609166 q 0,-0.25753 -0.05292,-0.4057 -0.05292,-0.15169 -0.204612,-0.15169 z"
         style="font-style:normal;font-variant:normal;font-weight:normal;font-stretch:normal;font-size:3.52777767px;line-height:1;font-family:'Ubuntu Condensed';-inkscape-font-specification:'Ubuntu Condensed, Normal';font-variant-ligatures:normal;font-variant-caps:normal;font-variant-numeric:normal;font-feature-settings:normal;text-align:center;writing-mode:lr-tb;text-anchor:middle;fill:#b4b4b4;fill-opacity:1;stroke-width:0.26458332"
         id="path874"
         inkscape:connector-curvature="0" />
      <path
         d="m 11.366306,290.28262 h 0.465667 v 0.26106 h -0.465667 v 1.01952 q 0,0.1905 0.06703,0.26812 0.07056,0.0741 0.186972,0.0741 0.05997,0 0.112889,-0.0176 0.05645,-0.0176 0.09525,-0.0423 l 0.05997,0.24341 q -0.144639,0.0847 -0.306917,0.0847 -0.261056,0 -0.391583,-0.14464 -0.127,-0.14817 -0.127,-0.48683 v -1.75684 l 0.303388,-0.0529 z"
         style="font-style:normal;font-variant:normal;font-weight:normal;font-stretch:normal;font-size:3.52777767px;line-height:1;font-family:'Ubuntu Condensed';-inkscape-font-specification:'Ubuntu Condensed, Normal';font-variant-ligatures:normal;font-variant-caps:normal;font-variant-numeric:normal;font-feature-settings:normal;text-align:center;writing-mode:lr-tb;text-anchor:middle;fill:#b4b4b4;fill-opacity:1;stroke-width:0.26458332"
         id="path876"
         inkscape:connector-curvature="0" />
      <path
         d="m 3.4091284,295.44376 q 0.1905,0 0.2928056,-0.10583 0.1058333,-0.10584 0.1058333,-0.28575 0,-0.0953 -0.03175,-0.16934 -0.03175,-0.0741 -0.084667,-0.13405 -0.049389,-0.06 -0.1164166,-0.10936 -0.067028,-0.0494 -0.1375834,-0.0988 -0.081139,-0.0565 -0.1693333,-0.11995 -0.088194,-0.0635 -0.1622778,-0.14816 -0.070555,-0.0847 -0.1164166,-0.19756 -0.045861,-0.11289 -0.045861,-0.26458 0,-0.14817 0.049389,-0.26811 0.052917,-0.11995 0.1411111,-0.20461 0.091722,-0.0847 0.2151944,-0.13053 0.127,-0.0459 0.2716389,-0.0459 0.1411111,0 0.2610555,0.0353 0.1199445,0.0353 0.2010834,0.0847 l -0.098778,0.25047 q -0.074083,-0.0494 -0.1622778,-0.0741 -0.084667,-0.0282 -0.1799167,-0.0282 -0.1728611,0 -0.2786944,0.0953 -0.1023055,0.0917 -0.1023055,0.27164 0,0.0988 0.03175,0.17286 0.035278,0.0741 0.088194,0.13405 0.056444,0.06 0.127,0.10937 0.074083,0.0494 0.1552222,0.1023 0.081139,0.0529 0.1658056,0.11642 0.084667,0.0635 0.1516944,0.14816 0.070556,0.0811 0.1128889,0.19403 0.045861,0.10936 0.045861,0.26106 0,0.13758 -0.042333,0.26105 -0.042333,0.12348 -0.1340556,0.21873 -0.088194,0.0917 -0.2257778,0.14816 -0.1340555,0.0529 -0.3175,0.0529 -0.1693333,0 -0.2963333,-0.0388 -0.127,-0.0388 -0.2257777,-0.1023 l 0.098778,-0.254 q 0.091722,0.0564 0.1869722,0.0917 0.098778,0.0317 0.2257778,0.0317 z"
         style="font-style:normal;font-variant:normal;font-weight:normal;font-stretch:normal;font-size:3.52777767px;line-height:1;font-family:'Ubuntu Condensed';-inkscape-font-specification:'Ubuntu Condensed, Normal';font-variant-ligatures:normal;font-variant-caps:normal;font-variant-numeric:normal;font-feature-settings:normal;text-align:center;writing-mode:lr-tb;text-anchor:middle;fill:#b4b4b4;fill-opacity:1;stroke-width:0.26458332"
         id="path878"
         inkscape:connector-curvature="0" />
      <path
         d="m 5.1304084,295.70834 q -0.1905,0 -0.3175,-0.0741 -0.127,-0.0741 -0.2081389,-0.20108 -0.077611,-0.13053 -0.1128889,-0.30692 -0.03175,-0.17639 -0.03175,-0.38453 0,-0.45861 0.1658056,-0.71614 0.1693333,-0.26105 0.5079999,-0.26105 0.1023056,0 0.1834445,0.0247 0.081139,0.0247 0.1516944,0.0635 l -0.077611,0.25047 q -0.1093611,-0.0706 -0.2434166,-0.0706 -0.1905,0 -0.2822223,0.17286 -0.088194,0.17286 -0.088194,0.53622 0,0.1517 0.017639,0.28222 0.017639,0.127 0.059972,0.21873 0.045861,0.0917 0.1164167,0.14464 0.074083,0.0529 0.1869722,0.0529 0.077611,0 0.1375833,-0.0176 0.0635,-0.0212 0.1199445,-0.0529 l 0.067028,0.23636 q -0.056444,0.0388 -0.1516944,0.0705 -0.091722,0.0318 -0.2010833,0.0318 z"
         style="font-style:normal;font-variant:normal;font-weight:normal;font-stretch:normal;font-size:3.52777767px;line-height:1;font-family:'Ubuntu Condensed';-inkscape-font-specification:'Ubuntu Condensed, Normal';font-variant-ligatures:normal;font-variant-caps:normal;font-variant-numeric:normal;font-feature-settings:normal;text-align:center;writing-mode:lr-tb;text-anchor:middle;fill:#b4b4b4;fill-opacity:1;stroke-width:0.26458332"
         id="path880"
         inkscape:connector-curvature="0" />
      <path
         d="M 6.1164774,295.66248 H 5.8130885 v -1.85208 h 0.3033889 z m -0.1516945,-2.18016 q -0.081139,0 -0.1411111,-0.0529 -0.056444,-0.0564 -0.056444,-0.14817 0,-0.0917 0.056444,-0.14464 0.059972,-0.0564 0.1411111,-0.0564 0.081139,0 0.1375834,0.0564 0.059972,0.0529 0.059972,0.14464 0,0.0917 -0.059972,0.14817 -0.056444,0.0529 -0.1375834,0.0529 z"
         style="font-style:normal;font-variant:normal;font-weight:normal;font-stretch:normal;font-size:3.52777767px;line-height:1;font-family:'Ubuntu Condensed';-inkscape-font-specification:'Ubuntu Condensed, Normal';font-variant-ligatures:normal;font-variant-caps:normal;font-variant-numeric:normal;font-feature-settings:normal;text-align:center;writing-mode:lr-tb;text-anchor:middle;fill:#b4b4b4;fill-opacity:1;stroke-width:0.26458332"
         id="path882"
         inkscape:connector-curvature="0" />
      <path
         d="m 6.8756111,294.8264 q 0.00353,0.13405 0.024694,0.24694 0.021167,0.10936 0.067028,0.19403 0.049389,0.0811 0.127,0.127 0.081139,0.0459 0.2046111,0.0459 0.1023056,0 0.1869722,-0.0282 0.088194,-0.0317 0.127,-0.0529 l 0.056444,0.24342 q -0.045861,0.0317 -0.1552223,0.067 -0.1058333,0.0388 -0.2539999,0.0388 -0.1940278,0 -0.3280834,-0.0706 -0.1305277,-0.0706 -0.2151944,-0.19756 -0.081139,-0.127 -0.1164167,-0.30339 -0.035278,-0.17639 -0.035278,-0.38805 0,-0.51153 0.1693333,-0.74789 0.1693333,-0.23636 0.4480277,-0.23636 0.3139723,0 0.4445,0.23636 0.1305278,0.23636 0.1305278,0.66322 0,0.0388 0,0.0811 0,0.0388 -0.00353,0.0811 z m 0.3069166,-0.80433 q -0.1516944,0 -0.22225,0.15169 -0.067028,0.15169 -0.081139,0.40569 h 0.5609166 q 0,-0.25752 -0.052917,-0.40569 -0.052917,-0.15169 -0.2046106,-0.15169 z"
         style="font-style:normal;font-variant:normal;font-weight:normal;font-stretch:normal;font-size:3.52777767px;line-height:1;font-family:'Ubuntu Condensed';-inkscape-font-specification:'Ubuntu Condensed, Normal';font-variant-ligatures:normal;font-variant-caps:normal;font-variant-numeric:normal;font-feature-settings:normal;text-align:center;writing-mode:lr-tb;text-anchor:middle;fill:#b4b4b4;fill-opacity:1;stroke-width:0.26458332"
         id="path884"
         inkscape:connector-curvature="0" />
      <path
         d="m 8.2039848,293.86332 q 0.1305278,-0.0388 0.2822222,-0.0635 0.1516945,-0.0282 0.2786945,-0.0282 0.1375833,0 0.2504722,0.0388 0.1128889,0.0353 0.1905,0.12347 0.081139,0.0882 0.1234722,0.23989 0.045861,0.14817 0.045861,0.37042 v 1.1183 H 9.0718181 v -1.09361 q 0,-0.27517 -0.070555,-0.40217 -0.070556,-0.127 -0.2645834,-0.127 -0.1023055,0 -0.2293055,0.0353 v 1.5875 H 8.2039848 Z"
         style="font-style:normal;font-variant:normal;font-weight:normal;font-stretch:normal;font-size:3.52777767px;line-height:1;font-family:'Ubuntu Condensed';-inkscape-font-specification:'Ubuntu Condensed, Normal';font-variant-ligatures:normal;font-variant-caps:normal;font-variant-numeric:normal;font-feature-settings:normal;text-align:center;writing-mode:lr-tb;text-anchor:middle;fill:#b4b4b4;fill-opacity:1;stroke-width:0.26458332"
         id="path886"
         inkscape:connector-curvature="0" />
      <path
         d="m 10.470306,295.70834 q -0.1905,0 -0.3175,-0.0741 -0.127,-0.0741 -0.2081385,-0.20108 -0.077611,-0.13053 -0.1128889,-0.30692 -0.03175,-0.17639 -0.03175,-0.38453 0,-0.45861 0.1658056,-0.71614 0.1693328,-0.26105 0.5079998,-0.26105 0.102306,0 0.183445,0.0247 0.08114,0.0247 0.151694,0.0635 l -0.07761,0.25047 q -0.109361,-0.0706 -0.243417,-0.0706 -0.1905,0 -0.282222,0.17286 -0.08819,0.17286 -0.08819,0.53622 0,0.1517 0.01764,0.28222 0.01764,0.127 0.05997,0.21873 0.04586,0.0917 0.116416,0.14464 0.07408,0.0529 0.186973,0.0529 0.07761,0 0.137583,-0.0176 0.0635,-0.0212 0.119944,-0.0529 l 0.06703,0.23636 q -0.05644,0.0388 -0.151694,0.0705 -0.09172,0.0318 -0.201084,0.0318 z"
         style="font-style:normal;font-variant:normal;font-weight:normal;font-stretch:normal;font-size:3.52777767px;line-height:1;font-family:'Ubuntu Condensed';-inkscape-font-specification:'Ubuntu Condensed, Normal';font-variant-ligatures:normal;font-variant-caps:normal;font-variant-numeric:normal;font-feature-settings:normal;text-align:center;writing-mode:lr-tb;text-anchor:middle;fill:#b4b4b4;fill-opacity:1;stroke-width:0.26458332"
         id="path888"
         inkscape:connector-curvature="0" />
      <path
         d="m 11.340455,294.8264 q 0.0035,0.13405 0.02469,0.24694 0.02117,0.10936 0.06703,0.19403 0.04939,0.0811 0.127,0.127 0.08114,0.0459 0.204611,0.0459 0.102305,0 0.186972,-0.0282 0.08819,-0.0317 0.127,-0.0529 l 0.05645,0.24342 q -0.04586,0.0317 -0.155223,0.067 -0.105833,0.0388 -0.254,0.0388 -0.194027,0 -0.328083,-0.0706 -0.130528,-0.0706 -0.215194,-0.19756 -0.08114,-0.127 -0.116417,-0.30339 -0.03528,-0.17639 -0.03528,-0.38805 0,-0.51153 0.169333,-0.74789 0.169334,-0.23636 0.448028,-0.23636 0.313972,0 0.4445,0.23636 0.130528,0.23636 0.130528,0.66322 0,0.0388 0,0.0811 0,0.0388 -0.0035,0.0811 z m 0.306916,-0.80433 q -0.151694,0 -0.22225,0.15169 -0.06703,0.15169 -0.08114,0.40569 h 0.560917 q 0,-0.25752 -0.05292,-0.40569 -0.05292,-0.15169 -0.204611,-0.15169 z"
         style="font-style:normal;font-variant:normal;font-weight:normal;font-stretch:normal;font-size:3.52777767px;line-height:1;font-family:'Ubuntu Condensed';-inkscape-font-specification:'Ubuntu Condensed, Normal';font-variant-ligatures:normal;font-variant-caps:normal;font-variant-numeric:normal;font-feature-settings:normal;text-align:center;writing-mode:lr-tb;text-anchor:middle;fill:#b4b4b4;fill-opacity:1;stroke-width:0.26458332"
         id="path890"
         inkscape:connector-curvature="0" />
    </g>
    <g
       aria-label="MODULE
FROM
HELL"
       style="font-style:normal;font-variant:normal;font-weight:normal;font-stretch:normal;font-size:4.93888855px;line-height:0;font-family:FreeSans;-inkscape-font-specification:'FreeSans, Normal';font-variant-ligatures:normal;font-variant-caps:normal;font-variant-numeric:normal;text-align:start;letter-spacing:0px;word-spacing:0px;writing-mode:lr-tb;text-anchor:start;fill:#000000;fill-opacity:1;stroke:none;stroke-width:0.26458332"
       id="text942">
      <path
         d="m 1.8344171,172.59885 q -0.084667,-0.3048 -0.1735666,-0.5842 -0.0889,-0.2794 -0.1735667,-0.52493 -0.080433,-0.24977 -0.1566333,-0.45297 -0.0762,-0.2032 -0.1397,-0.3556 -0.016933,0.2413 -0.029633,0.5334 -0.00847,0.28787 -0.021167,0.59267 -0.00847,0.3048 -0.016933,0.61383 -0.00423,0.3048 -0.00847,0.5842 H 0.75068387 q 0.0127,-0.381 0.0254,-0.76623 0.0127,-0.38947 0.0296333,-0.762 0.0211667,-0.37677 0.0423333,-0.73237 0.0254,-0.3556 0.0550333,-0.6731 H 1.2798505 q 0.0762,0.18203 0.1735667,0.43603 0.097367,0.24977 0.1947333,0.52494 0.1016,0.27516 0.1947333,0.55033 0.093133,0.27517 0.1608667,0.50377 0.067733,-0.2286 0.1566333,-0.50377 0.0889,-0.27517 0.1862667,-0.55033 0.097367,-0.27517 0.1904999,-0.52494 0.097367,-0.254 0.1735667,-0.43603 h 0.3767666 q 0.029633,0.3175 0.0508,0.6731 0.0254,0.3556 0.042333,0.73237 0.021167,0.37253 0.033867,0.762 0.0127,0.38523 0.0254,0.76623 H 2.8758171 q -0.00847,-0.2794 -0.016933,-0.58843 -0.00423,-0.30904 -0.016933,-0.61807 -0.00847,-0.31327 -0.021167,-0.60537 -0.0127,-0.29633 -0.029633,-0.54186 -0.0381,0.10583 -0.097367,0.2667 -0.055033,0.15663 -0.1185334,0.3429 -0.059267,0.18626 -0.127,0.38523 -0.0635,0.19473 -0.1227666,0.37677 -0.055033,0.18203 -0.1016,0.33443 -0.042333,0.14817 -0.067733,0.2413 z"
         style="font-style:normal;font-variant:normal;font-weight:normal;font-stretch:normal;font-size:4.23333311px;line-height:1;font-family:'Ubuntu Condensed';-inkscape-font-specification:'Ubuntu Condensed, Normal';font-variant-ligatures:normal;font-variant-caps:normal;font-variant-numeric:normal;font-feature-settings:normal;text-align:center;writing-mode:lr-tb;text-anchor:middle;fill:#b4b4b4;fill-opacity:1;stroke-width:0.26458332"
         id="path837"
         inkscape:connector-curvature="0" />
      <path
         d="m 5.8584649,171.54052 q 0,0.3429 -0.0635,0.62653 -0.059267,0.2794 -0.1905,0.4826 -0.127,0.19897 -0.3259667,0.30903 -0.1947333,0.11007 -0.4614333,0.11007 -0.2667,0 -0.4656666,-0.11007 -0.1947333,-0.11006 -0.3259667,-0.30903 -0.127,-0.2032 -0.1905,-0.4826 -0.0635,-0.28363 -0.0635,-0.62653 0,-0.3429 0.0635,-0.62654 0.0635,-0.28363 0.1905,-0.4826 0.1312334,-0.2032 0.3259667,-0.31326 0.1989666,-0.1143 0.4656666,-0.1143 0.2667,0 0.4614333,0.1143 0.1989667,0.11006 0.3259667,0.31326 0.1312333,0.19897 0.1905,0.4826 0.0635,0.28364 0.0635,0.62654 z m -0.4064,0 q 0,-0.2667 -0.033867,-0.48684 -0.033867,-0.22013 -0.1100666,-0.37676 -0.0762,-0.16087 -0.1989667,-0.24977 -0.1185333,-0.0889 -0.2921,-0.0889 -0.1735666,0 -0.2963333,0.0889 -0.1185333,0.0889 -0.1947333,0.24977 -0.0762,0.15663 -0.1143,0.37676 -0.033867,0.22014 -0.033867,0.48684 0,0.2667 0.033867,0.48683 0.0381,0.22013 0.1143,0.37677 0.0762,0.15663 0.1947333,0.24553 0.1227667,0.0847 0.2963333,0.0847 0.1735667,0 0.2921,-0.0847 0.1227667,-0.0889 0.1989667,-0.24553 0.0762,-0.15664 0.1100666,-0.37677 0.033867,-0.22013 0.033867,-0.48683 z"
         style="font-style:normal;font-variant:normal;font-weight:normal;font-stretch:normal;font-size:4.23333311px;line-height:1;font-family:'Ubuntu Condensed';-inkscape-font-specification:'Ubuntu Condensed, Normal';font-variant-ligatures:normal;font-variant-caps:normal;font-variant-numeric:normal;font-feature-settings:normal;text-align:center;writing-mode:lr-tb;text-anchor:middle;fill:#b4b4b4;fill-opacity:1;stroke-width:0.26458332"
         id="path839"
         inkscape:connector-curvature="0" />
      <path
         d="m 8.3030827,171.53628 q 0,0.41064 -0.0889,0.6985 -0.084667,0.28364 -0.2497667,0.46144 -0.1608666,0.1778 -0.3937,0.25823 -0.2286,0.0804 -0.5122333,0.0804 -0.2878666,0 -0.6095999,-0.0762 v -2.8448 q 0.1608666,-0.0339 0.3132666,-0.055 0.1524,-0.0212 0.2921,-0.0212 0.2878666,0 0.5164666,0.0804 0.2328334,0.0804 0.3937,0.25823 0.1651,0.1778 0.2497667,0.46567 0.0889,0.28363 0.0889,0.69426 z m -0.4064,0 q 0,-0.31326 -0.046567,-0.5334 -0.046567,-0.22013 -0.1439333,-0.35983 -0.097367,-0.1397 -0.2582333,-0.2032 -0.1566334,-0.0635 -0.3767667,-0.0635 -0.059267,0 -0.1185333,0.004 -0.059267,0.004 -0.1227667,0.0127 v 2.286 q 0.0635,0.008 0.1227667,0.0127 0.059267,0.004 0.1143,0.004 0.2243666,0 0.381,-0.0635 0.1566333,-0.0635 0.254,-0.19897 0.1016,-0.1397 0.1481666,-0.35983 0.046567,-0.22014 0.046567,-0.53764 z"
         style="font-style:normal;font-variant:normal;font-weight:normal;font-stretch:normal;font-size:4.23333311px;line-height:1;font-family:'Ubuntu Condensed';-inkscape-font-specification:'Ubuntu Condensed, Normal';font-variant-ligatures:normal;font-variant-caps:normal;font-variant-numeric:normal;font-feature-settings:normal;text-align:center;writing-mode:lr-tb;text-anchor:middle;fill:#b4b4b4;fill-opacity:1;stroke-width:0.26458332"
         id="path841"
         inkscape:connector-curvature="0" />
      <path
         d="m 9.6881097,173.06875 q -0.4106333,0 -0.6180666,-0.23283 -0.2032,-0.23284 -0.2032,-0.7366 v -2.02777 H 9.247843 v 1.9939 q 0,0.33443 0.097367,0.50377 0.097367,0.1651 0.3513667,0.1651 0.2624666,0 0.3555993,-0.16934 0.09737,-0.17356 0.09737,-0.49953 v -1.9939 h 0.381 v 2.02777 q 0,0.4953 -0.211667,0.73236 -0.211666,0.23707 -0.630766,0.23707 z"
         style="font-style:normal;font-variant:normal;font-weight:normal;font-stretch:normal;font-size:4.23333311px;line-height:1;font-family:'Ubuntu Condensed';-inkscape-font-specification:'Ubuntu Condensed, Normal';font-variant-ligatures:normal;font-variant-caps:normal;font-variant-numeric:normal;font-feature-settings:normal;text-align:center;writing-mode:lr-tb;text-anchor:middle;fill:#b4b4b4;fill-opacity:1;stroke-width:0.26458332"
         id="path843"
         inkscape:connector-curvature="0" />
      <path
         d="m 12.523716,172.67928 v 0.32597 h -1.3081 v -2.9337 h 0.381 v 2.60773 z"
         style="font-style:normal;font-variant:normal;font-weight:normal;font-stretch:normal;font-size:4.23333311px;line-height:1;font-family:'Ubuntu Condensed';-inkscape-font-specification:'Ubuntu Condensed, Normal';font-variant-ligatures:normal;font-variant-caps:normal;font-variant-numeric:normal;font-feature-settings:normal;text-align:center;writing-mode:lr-tb;text-anchor:middle;fill:#b4b4b4;fill-opacity:1;stroke-width:0.26458332"
         id="path845"
         inkscape:connector-curvature="0" />
      <path
         d="m 12.985016,173.00525 v -2.9337 h 1.316567 v 0.32597 h -0.935567 v 0.91016 h 0.846667 v 0.3175 h -0.846667 v 1.0541 h 1.0033 v 0.32597 z"
         style="font-style:normal;font-variant:normal;font-weight:normal;font-stretch:normal;font-size:4.23333311px;line-height:1;font-family:'Ubuntu Condensed';-inkscape-font-specification:'Ubuntu Condensed, Normal';font-variant-ligatures:normal;font-variant-caps:normal;font-variant-numeric:normal;font-feature-settings:normal;text-align:center;writing-mode:lr-tb;text-anchor:middle;fill:#b4b4b4;fill-opacity:1;stroke-width:0.26458332"
         id="path847"
         inkscape:connector-curvature="0" />
      <path
         d="m 3.0755444,177.23858 v -2.9337 H 4.392111 v 0.32597 H 3.4565444 v 0.92287 h 0.8297333 v 0.3175 H 3.4565444 v 1.36736 z"
         style="font-style:normal;font-variant:normal;font-weight:normal;font-stretch:normal;font-size:4.23333311px;line-height:1;font-family:'Ubuntu Condensed';-inkscape-font-specification:'Ubuntu Condensed, Normal';font-variant-ligatures:normal;font-variant-caps:normal;font-variant-numeric:normal;font-feature-settings:normal;text-align:center;writing-mode:lr-tb;text-anchor:middle;fill:#b4b4b4;fill-opacity:1;stroke-width:0.26458332"
         id="path849"
         inkscape:connector-curvature="0" />
      <path
         d="m 4.8780183,174.34722 q 0.2963333,-0.072 0.5715,-0.072 0.2201333,0 0.3979333,0.0508 0.1778,0.0508 0.3048,0.16087 0.127,0.11006 0.1947333,0.28363 0.071967,0.17357 0.071967,0.4191 0,0.3048 -0.1185333,0.4953 -0.1143,0.18627 -0.3132667,0.28363 0.0508,0.0847 0.127,0.23284 0.080433,0.14393 0.1608667,0.32173 0.084667,0.17357 0.1608666,0.35983 0.080433,0.18627 0.1354667,0.3556 h -0.381 q -0.046567,-0.127 -0.1185333,-0.28786 -0.067733,-0.16087 -0.1439334,-0.3175 -0.0762,-0.16087 -0.1524,-0.3048 -0.0762,-0.14817 -0.1354666,-0.24977 -0.067733,0.008 -0.1397,0.0127 -0.071967,0.004 -0.1439333,0.004 H 5.2505516 v 1.143 H 4.8780183 Z m 0.3725333,1.4351 h 0.1608667 q 0.2921,0 0.4487333,-0.13124 0.1566333,-0.13546 0.1566333,-0.46143 0,-0.1651 -0.042333,-0.27517 -0.0381,-0.1143 -0.1143,-0.1778 -0.071967,-0.0677 -0.1778,-0.0974 -0.1016,-0.0296 -0.2286,-0.0296 -0.1100666,0 -0.2032,0.0127 z"
         style="font-style:normal;font-variant:normal;font-weight:normal;font-stretch:normal;font-size:4.23333311px;line-height:1;font-family:'Ubuntu Condensed';-inkscape-font-specification:'Ubuntu Condensed, Normal';font-variant-ligatures:normal;font-variant-caps:normal;font-variant-numeric:normal;font-feature-settings:normal;text-align:center;writing-mode:lr-tb;text-anchor:middle;fill:#b4b4b4;fill-opacity:1;stroke-width:0.26458332"
         id="path851"
         inkscape:connector-curvature="0" />
      <path
         d="m 8.9797214,175.77385 q 0,0.3429 -0.0635,0.62653 -0.059267,0.2794 -0.1905,0.4826 -0.127,0.19897 -0.3259667,0.30904 -0.1947333,0.11006 -0.4614333,0.11006 -0.2667,0 -0.4656666,-0.11006 -0.1947333,-0.11007 -0.3259667,-0.30904 -0.127,-0.2032 -0.1905,-0.4826 -0.0635,-0.28363 -0.0635,-0.62653 0,-0.3429 0.0635,-0.62653 0.0635,-0.28364 0.1905,-0.4826 0.1312334,-0.2032 0.3259667,-0.31327 0.1989666,-0.1143 0.4656666,-0.1143 0.2667,0 0.4614333,0.1143 0.1989667,0.11007 0.3259667,0.31327 0.1312333,0.19896 0.1905,0.4826 0.0635,0.28363 0.0635,0.62653 z m -0.4064,0 q 0,-0.2667 -0.033867,-0.48683 -0.033867,-0.22014 -0.1100666,-0.37677 -0.0762,-0.16087 -0.1989667,-0.24977 -0.1185333,-0.0889 -0.2921,-0.0889 -0.1735666,0 -0.2963333,0.0889 -0.1185333,0.0889 -0.1947333,0.24977 -0.0762,0.15663 -0.1143,0.37677 -0.033867,0.22013 -0.033867,0.48683 0,0.2667 0.033867,0.48683 0.0381,0.22014 0.1143,0.37677 0.0762,0.15663 0.1947333,0.24553 0.1227667,0.0847 0.2963333,0.0847 0.1735667,0 0.2921,-0.0847 0.1227667,-0.0889 0.1989667,-0.24553 0.0762,-0.15663 0.1100666,-0.37677 0.033867,-0.22013 0.033867,-0.48683 z"
         style="font-style:normal;font-variant:normal;font-weight:normal;font-stretch:normal;font-size:4.23333311px;line-height:1;font-family:'Ubuntu Condensed';-inkscape-font-specification:'Ubuntu Condensed, Normal';font-variant-ligatures:normal;font-variant-caps:normal;font-variant-numeric:normal;font-feature-settings:normal;text-align:center;writing-mode:lr-tb;text-anchor:middle;fill:#b4b4b4;fill-opacity:1;stroke-width:0.26458332"
         id="path853"
         inkscape:connector-curvature="0" />
      <path
         d="m 10.594606,176.83218 q -0.08467,-0.3048 -0.173567,-0.5842 -0.0889,-0.2794 -0.173567,-0.52493 -0.08043,-0.24977 -0.156633,-0.45297 -0.0762,-0.2032 -0.1397,-0.3556 -0.016933,0.2413 -0.029633,0.5334 -0.00847,0.28787 -0.021167,0.59267 -0.00847,0.3048 -0.016933,0.61383 -0.00423,0.3048 -0.00847,0.5842 H 9.5108724 q 0.0127,-0.381 0.0254,-0.76623 0.0127,-0.38947 0.029633,-0.762 0.021167,-0.37677 0.042333,-0.73237 0.0254,-0.3556 0.055033,-0.6731 h 0.3767666 q 0.0762,0.18204 0.173567,0.43604 0.09737,0.24976 0.194733,0.52493 0.1016,0.27517 0.194733,0.55033 0.09313,0.27517 0.160867,0.50377 0.06773,-0.2286 0.156633,-0.50377 0.0889,-0.27516 0.186267,-0.55033 0.09737,-0.27517 0.1905,-0.52493 0.09737,-0.254 0.173567,-0.43604 h 0.376766 q 0.02963,0.3175 0.0508,0.6731 0.0254,0.3556 0.04233,0.73237 0.02117,0.37253 0.03387,0.762 0.0127,0.38523 0.0254,0.76623 h -0.364066 q -0.0085,-0.2794 -0.01693,-0.58843 -0.0042,-0.30903 -0.01693,-0.61807 -0.0085,-0.31326 -0.02117,-0.60536 -0.0127,-0.29634 -0.02963,-0.54187 -0.0381,0.10583 -0.09737,0.2667 -0.05503,0.15663 -0.118533,0.3429 -0.05927,0.18627 -0.127,0.38523 -0.0635,0.19474 -0.122767,0.37677 -0.05503,0.18203 -0.1016,0.33443 -0.04233,0.14817 -0.06773,0.2413 z"
         style="font-style:normal;font-variant:normal;font-weight:normal;font-stretch:normal;font-size:4.23333311px;line-height:1;font-family:'Ubuntu Condensed';-inkscape-font-specification:'Ubuntu Condensed, Normal';font-variant-ligatures:normal;font-variant-caps:normal;font-variant-numeric:normal;font-feature-settings:normal;text-align:center;writing-mode:lr-tb;text-anchor:middle;fill:#b4b4b4;fill-opacity:1;stroke-width:0.26458332"
         id="path855"
         inkscape:connector-curvature="0" />
      <path
         d="m 5.2568355,178.53822 h 0.3809999 v 2.9337 H 5.2568355 v -1.36314 h -0.9652 v 1.36314 h -0.381 v -2.9337 h 0.381 v 1.24036 h 0.9652 z"
         style="font-style:normal;font-variant:normal;font-weight:normal;font-stretch:normal;font-size:4.23333311px;line-height:1;font-family:'Ubuntu Condensed';-inkscape-font-specification:'Ubuntu Condensed, Normal';font-variant-ligatures:normal;font-variant-caps:normal;font-variant-numeric:normal;font-feature-settings:normal;text-align:center;writing-mode:lr-tb;text-anchor:middle;fill:#b4b4b4;fill-opacity:1;stroke-width:0.26458332"
         id="path857"
         inkscape:connector-curvature="0" />
      <path
         d="m 6.349763,181.47192 v -2.9337 h 1.3165666 v 0.32596 H 6.730763 v 0.91017 h 0.8466666 v 0.3175 H 6.730763 v 1.0541 h 1.0032999 v 0.32597 z"
         style="font-style:normal;font-variant:normal;font-weight:normal;font-stretch:normal;font-size:4.23333311px;line-height:1;font-family:'Ubuntu Condensed';-inkscape-font-specification:'Ubuntu Condensed, Normal';font-variant-ligatures:normal;font-variant-caps:normal;font-variant-numeric:normal;font-feature-settings:normal;text-align:center;writing-mode:lr-tb;text-anchor:middle;fill:#b4b4b4;fill-opacity:1;stroke-width:0.26458332"
         id="path859"
         inkscape:connector-curvature="0" />
      <path
         d="m 9.5843604,181.14595 v 0.32597 h -1.3081 v -2.9337 h 0.381 v 2.60773 z"
         style="font-style:normal;font-variant:normal;font-weight:normal;font-stretch:normal;font-size:4.23333311px;line-height:1;font-family:'Ubuntu Condensed';-inkscape-font-specification:'Ubuntu Condensed, Normal';font-variant-ligatures:normal;font-variant-caps:normal;font-variant-numeric:normal;font-feature-settings:normal;text-align:center;writing-mode:lr-tb;text-anchor:middle;fill:#b4b4b4;fill-opacity:1;stroke-width:0.26458332"
         id="path861"
         inkscape:connector-curvature="0" />
      <path
         d="m 11.353761,181.14595 v 0.32597 h -1.308099 v -2.9337 h 0.380999 v 2.60773 z"
         style="font-style:normal;font-variant:normal;font-weight:normal;font-stretch:normal;font-size:4.23333311px;line-height:1;font-family:'Ubuntu Condensed';-inkscape-font-specification:'Ubuntu Condensed, Normal';font-variant-ligatures:normal;font-variant-caps:normal;font-variant-numeric:normal;font-feature-settings:normal;text-align:center;writing-mode:lr-tb;text-anchor:middle;fill:#b4b4b4;fill-opacity:1;stroke-width:0.26458332"
         id="path863"
         inkscape:connector-curvature="0" />
    </g>
  </g>
  <g
     inkscape:groupmode="layer"
     id="layer2"
     inkscape:label="components"
     style="display:none">
    <circle
       inkscape:label="WRITEB"
       r="2.9510982"
       cy="80.143982"
       cx="18.097382"
       id="circle7237-6"
       style="display:inline;opacity:1;fill:#00ff00;fill-opacity:1;stroke:none;stroke-width:0.25;stroke-miterlimit:4;stroke-dasharray:none;stroke-opacity:0.56593407" />
    <circle
       style="display:inline;opacity:1;fill:#00ff00;fill-opacity:1;stroke:none;stroke-width:0.25;stroke-miterlimit:4;stroke-dasharray:none;stroke-opacity:0.56593407"
       id="circle855"
       cx="7.3930092"
       cy="99.422432"
       r="2.9510982"
       inkscape:label="INB" />
    <circle
       inkscape:label="PHASEB"
       r="2.9510982"
       cy="80.143982"
       cx="7.3930092"
       id="circle857"
       style="display:inline;opacity:1;fill:#00ff00;fill-opacity:1;stroke:none;stroke-width:0.25;stroke-miterlimit:4;stroke-dasharray:none;stroke-opacity:0.56593407" />
    <circle
       style="display:inline;opacity:1;fill:#0000ff;fill-opacity:1;stroke:none;stroke-width:0.25;stroke-miterlimit:4;stroke-dasharray:none;stroke-opacity:0.56593407"
       id="path4984-0"
       cx="18.097382"
       cy="99.422432"
       r="2.9510982"
       inkscape:label="OUTB" />
    <circle
       style="display:inline;opacity:1;fill:#ff00ff;fill-opacity:0.99572646;stroke:none;stroke-width:0.25;stroke-miterlimit:4;stroke-dasharray:none;stroke-opacity:0.56593407"
       id="circle883"
       cx="18.097382"
       cy="70.499886"
       r="2.9510982"
       inkscape:label="WRITEB" />
    <circle
       style="display:inline;opacity:1;fill:#00ff00;fill-opacity:1;stroke:none;stroke-width:0.25;stroke-miterlimit:4;stroke-dasharray:none;stroke-opacity:0.56593407"
       id="circle981"
       cx="18.102289"
       cy="33.299229"
       r="2.9510982"
       inkscape:label="WRITEA" />
    <circle
       inkscape:label="INA"
       r="2.9510982"
       cy="52.577679"
       cx="7.3979177"
       id="circle983"
       style="display:inline;opacity:1;fill:#00ff00;fill-opacity:1;stroke:none;stroke-width:0.25;stroke-miterlimit:4;stroke-dasharray:none;stroke-opacity:0.56593407" />
    <circle
       style="display:inline;opacity:1;fill:#00ff00;fill-opacity:1;stroke:none;stroke-width:0.25;stroke-miterlimit:4;stroke-dasharray:none;stroke-opacity:0.56593407"
       id="circle985"
       cx="7.3979177"
       cy="33.299229"
       r="2.9510982"
       inkscape:label="PHASEA" />
    <circle
       inkscape:label="OUTA"
       r="2.9510982"
       cy="52.577679"
       cx="18.102289"
       id="circle987"
       style="display:inline;opacity:1;fill:#0000ff;fill-opacity:1;stroke:none;stroke-width:0.25;stroke-miterlimit:4;stroke-dasharray:none;stroke-opacity:0.56593407" />
    <circle
       inkscape:label="WRITEA"
       r="2.9510982"
       cy="23.65513"
       cx="18.102289"
       id="circle991"
       style="display:inline;opacity:1;fill:#ff00ff;fill-opacity:0.99572646;stroke:none;stroke-width:0.25;stroke-miterlimit:4;stroke-dasharray:none;stroke-opacity:0.56593407" />
  </g>
</svg>
