<?xml version="1.0" encoding="UTF-8" standalone="no"?>
<!-- Created with Inkscape (http://www.inkscape.org/) -->

<svg
   xmlns:dc="http://purl.org/dc/elements/1.1/"
   xmlns:cc="http://creativecommons.org/ns#"
   xmlns:rdf="http://www.w3.org/1999/02/22-rdf-syntax-ns#"
   xmlns:svg="http://www.w3.org/2000/svg"
   xmlns="http://www.w3.org/2000/svg"
   xmlns:sodipodi="http://sodipodi.sourceforge.net/DTD/sodipodi-0.dtd"
   xmlns:inkscape="http://www.inkscape.org/namespaces/inkscape"
   width="508mm"
   height="128.5mm"
   viewBox="0 0 508 128.5"
   version="1.1"
   id="svg8"
   inkscape:version="0.92.3 (2405546, 2018-03-11)"
   sodipodi:docname="RSScratch.svg">
  <defs
     id="defs2" />
  <sodipodi:namedview
     id="base"
     pagecolor="#ffffff"
     bordercolor="#666666"
     borderopacity="1.0"
     inkscape:pageopacity="0.0"
     inkscape:pageshadow="2"
     inkscape:zoom="0.58125"
     inkscape:cx="1200"
     inkscape:cy="242.83465"
     inkscape:document-units="mm"
     inkscape:current-layer="layer1"
     showgrid="true"
     inkscape:pagecheckerboard="false"
     borderlayer="false"
     inkscape:showpageshadow="false"
     inkscape:window-width="1917"
     inkscape:window-height="1080"
     inkscape:window-x="2396"
     inkscape:window-y="562"
     inkscape:window-maximized="0"
     showguides="true"
     inkscape:guide-bbox="true"
     objecttolerance="20">
    <inkscape:grid
       type="xygrid"
       id="grid829"
       spacingx="5.0800001"
       spacingy="5.0800001"
       units="mm"
       snapvisiblegridlinesonly="false"
       enabled="true"
       dotted="false" />
    <sodipodi:guide
       position="-20.160001,15.12"
       orientation="0,1"
       id="guide844"
       inkscape:locked="false" />
    <sodipodi:guide
       position="25.400001,60.960002"
       orientation="1,0"
       id="guide846"
       inkscape:locked="false" />
  </sodipodi:namedview>
  <metadata
     id="metadata5">
    <rdf:RDF>
      <cc:Work
         rdf:about="">
        <dc:format>image/svg+xml</dc:format>
        <dc:type
           rdf:resource="http://purl.org/dc/dcmitype/StillImage" />
        <dc:title></dc:title>
      </cc:Work>
    </rdf:RDF>
  </metadata>
  <g
     inkscape:label="Layer 1"
     id="layer1"
     transform="translate(0,-168.5)"
     style="display:inline"
     inkscape:groupmode="layer">
    <rect
       style="opacity:1;fill:#191919;fill-opacity:1;fill-rule:nonzero;stroke:none;stroke-width:4.53417158;stroke-miterlimit:4;stroke-dasharray:none;stroke-opacity:1"
       id="rect1002"
       width="508"
       height="128.5"
       x="0"
       y="168.45773" />
    <text
       xml:space="preserve"
       style="font-style:normal;font-variant:normal;font-weight:normal;font-stretch:normal;font-size:4.93888855px;line-height:1.25;font-family:FreeSans;-inkscape-font-specification:'FreeSans, Normal';font-variant-ligatures:normal;font-variant-caps:normal;font-variant-numeric:normal;text-align:start;letter-spacing:0px;word-spacing:0px;writing-mode:lr-tb;text-anchor:start;fill:#b4b4b4;fill-opacity:1;stroke:none;stroke-width:0.26458332"
       x="5.04"
       y="221.39999"
       id="text903"><tspan
         sodipodi:role="line"
         id="tspan901"
         x="5.04"
         y="225.96846"
         style="fill:#b4b4b4;fill-opacity:1;stroke-width:0.26458332" /></text>
    <g
       aria-label="Racket Science"
       style="font-style:normal;font-variant:normal;font-weight:normal;font-stretch:normal;font-size:4.93888855px;line-height:1.25;font-family:FreeSans;-inkscape-font-specification:'FreeSans, Normal';font-variant-ligatures:normal;font-variant-caps:normal;font-variant-numeric:normal;text-align:start;letter-spacing:0px;word-spacing:0px;writing-mode:lr-tb;text-anchor:start;fill:#000000;fill-opacity:1;stroke:none;stroke-width:0.26458332"
       id="text1078">
      <path
         d="m 54.259785,293.003 q 0.246944,-0.06 0.47625,-0.06 0.183444,0 0.331611,0.0423 0.148166,0.0423 0.254,0.13406 0.105833,0.0917 0.162278,0.23636 0.05997,0.14464 0.05997,0.34925 0,0.254 -0.09878,0.41275 -0.09525,0.15522 -0.261056,0.23636 0.04233,0.0706 0.105834,0.19403 0.06703,0.11994 0.134055,0.26811 0.07056,0.14464 0.134056,0.29986 0.06703,0.15522 0.112889,0.29634 h -0.3175 q -0.03881,-0.10584 -0.09878,-0.23989 -0.05644,-0.13406 -0.119944,-0.26459 -0.0635,-0.13405 -0.127,-0.254 -0.0635,-0.12347 -0.112889,-0.20814 -0.05644,0.007 -0.116417,0.0106 -0.05997,0.004 -0.119944,0.004 h -0.08819 v 0.9525 h -0.310444 z m 0.310444,1.19592 h 0.134056 q 0.243416,0 0.373944,-0.10936 0.130528,-0.11289 0.130528,-0.38453 0,-0.13758 -0.03528,-0.2293 -0.03175,-0.0953 -0.09525,-0.14817 -0.05997,-0.0564 -0.148167,-0.0811 -0.08467,-0.0247 -0.1905,-0.0247 -0.09172,0 -0.169333,0.0106 z"
         style="font-style:normal;font-variant:normal;font-weight:normal;font-stretch:normal;font-size:3.52777767px;font-family:'Ubuntu Condensed';-inkscape-font-specification:'Ubuntu Condensed, Normal';font-variant-ligatures:normal;font-variant-caps:normal;font-variant-numeric:normal;font-feature-settings:normal;text-align:start;writing-mode:lr-tb;text-anchor:start;fill:#b4b4b4;fill-opacity:1;stroke-width:0.26458332"
         id="path1080"
         inkscape:connector-curvature="0" />
      <path
         d="m 56.044509,293.5992 q 0.09172,-0.0388 0.194028,-0.06 0.102306,-0.0247 0.22225,-0.0247 0.246945,0 0.402167,0.15522 0.155222,0.1517 0.155222,0.47625 v 1.22767 q -0.127,0.0353 -0.261055,0.0564 -0.130528,0.0212 -0.257528,0.0212 -0.127,0 -0.239889,-0.0317 -0.109361,-0.0317 -0.194028,-0.1023 -0.08114,-0.0706 -0.130528,-0.17639 -0.04939,-0.10936 -0.04939,-0.26459 0,-0.14464 0.04233,-0.25047 0.04586,-0.10936 0.123472,-0.17992 0.07761,-0.0741 0.183444,-0.10936 0.105834,-0.0388 0.229306,-0.0388 0.116417,0 0.257528,0.0282 v -0.16933 q 0,-0.20461 -0.08114,-0.28575 -0.07761,-0.0811 -0.225778,-0.0811 -0.08114,0 -0.155222,0.0176 -0.07056,0.0141 -0.151695,0.0494 z m 0.144639,1.27353 q 0,0.16227 0.08467,0.23988 0.08467,0.0776 0.239889,0.0776 0.09525,0 0.208139,-0.0247 v -0.58914 q -0.105834,-0.0282 -0.208139,-0.0282 -0.06703,0 -0.127,0.0176 -0.05997,0.0141 -0.105833,0.0529 -0.04233,0.0353 -0.06703,0.0988 -0.02469,0.06 -0.02469,0.15523 z"
         style="font-style:normal;font-variant:normal;font-weight:normal;font-stretch:normal;font-size:3.52777767px;font-family:'Ubuntu Condensed';-inkscape-font-specification:'Ubuntu Condensed, Normal';font-variant-ligatures:normal;font-variant-caps:normal;font-variant-numeric:normal;font-feature-settings:normal;text-align:start;writing-mode:lr-tb;text-anchor:start;fill:#b4b4b4;fill-opacity:1;stroke-width:0.26458332"
         id="path1082"
         inkscape:connector-curvature="0" />
      <path
         d="m 58.110354,295.45834 q -0.1905,0 -0.3175,-0.0741 -0.127,-0.0741 -0.208139,-0.20108 -0.07761,-0.13053 -0.112889,-0.30692 -0.03175,-0.17639 -0.03175,-0.38452 0,-0.45862 0.165806,-0.71614 0.169333,-0.26106 0.508,-0.26106 0.102305,0 0.183444,0.0247 0.08114,0.0247 0.151695,0.0635 l -0.07761,0.25047 q -0.109362,-0.0706 -0.243417,-0.0706 -0.1905,0 -0.282222,0.17286 -0.08819,0.17286 -0.08819,0.53623 0,0.15169 0.01764,0.28222 0.01764,0.127 0.05997,0.21872 0.04586,0.0917 0.116417,0.14464 0.07408,0.0529 0.186972,0.0529 0.07761,0 0.137584,-0.0176 0.0635,-0.0212 0.119944,-0.0529 l 0.06703,0.23636 q -0.05645,0.0388 -0.151695,0.0706 -0.09172,0.0318 -0.201083,0.0318 z"
         style="font-style:normal;font-variant:normal;font-weight:normal;font-stretch:normal;font-size:3.52777767px;font-family:'Ubuntu Condensed';-inkscape-font-specification:'Ubuntu Condensed, Normal';font-variant-ligatures:normal;font-variant-caps:normal;font-variant-numeric:normal;font-feature-settings:normal;text-align:start;writing-mode:lr-tb;text-anchor:start;fill:#b4b4b4;fill-opacity:1;stroke-width:0.26458332"
         id="path1084"
         inkscape:connector-curvature="0" />
      <path
         d="m 59.939562,293.56039 q -0.148167,0.254 -0.28575,0.46567 -0.134056,0.20814 -0.268111,0.39158 0.08467,0.0988 0.172861,0.22225 0.08819,0.12347 0.169333,0.25753 0.08114,0.13053 0.151695,0.26458 0.07055,0.13053 0.119944,0.25048 h -0.331611 q -0.05292,-0.11642 -0.123472,-0.24342 -0.07056,-0.127 -0.148167,-0.24695 -0.07761,-0.12347 -0.155222,-0.23283 -0.07761,-0.10936 -0.144639,-0.18344 v 0.90664 h -0.303389 v -2.68464 l 0.303389,-0.0529 v 1.68275 q 0.0635,-0.0847 0.134056,-0.1905 0.07408,-0.10583 0.144639,-0.21167 0.07055,-0.10936 0.134055,-0.21166 0.0635,-0.10231 0.105833,-0.18345 z"
         style="font-style:normal;font-variant:normal;font-weight:normal;font-stretch:normal;font-size:3.52777767px;font-family:'Ubuntu Condensed';-inkscape-font-specification:'Ubuntu Condensed, Normal';font-variant-ligatures:normal;font-variant-caps:normal;font-variant-numeric:normal;font-feature-settings:normal;text-align:start;writing-mode:lr-tb;text-anchor:start;fill:#b4b4b4;fill-opacity:1;stroke-width:0.26458332"
         id="path1086"
         inkscape:connector-curvature="0" />
      <path
         d="m 60.455003,294.57639 q 0.0035,0.13406 0.0247,0.24695 0.02117,0.10936 0.06703,0.19402 0.04939,0.0811 0.127,0.127 0.08114,0.0459 0.204611,0.0459 0.102305,0 0.186972,-0.0282 0.08819,-0.0317 0.127,-0.0529 l 0.05644,0.24341 q -0.04586,0.0317 -0.155222,0.067 -0.105833,0.0388 -0.254,0.0388 -0.194028,0 -0.328083,-0.0706 -0.130528,-0.0706 -0.215195,-0.19755 -0.08114,-0.127 -0.116416,-0.30339 -0.03528,-0.17639 -0.03528,-0.38806 0,-0.51153 0.169333,-0.74789 0.169334,-0.23636 0.448028,-0.23636 0.313972,0 0.4445,0.23636 0.130528,0.23636 0.130528,0.66322 0,0.0388 0,0.0811 0,0.0388 -0.0035,0.0811 z m 0.306917,-0.80433 q -0.151694,0 -0.22225,0.15169 -0.06703,0.1517 -0.08114,0.4057 h 0.560917 q 0,-0.25753 -0.05292,-0.4057 -0.05292,-0.15169 -0.204611,-0.15169 z"
         style="font-style:normal;font-variant:normal;font-weight:normal;font-stretch:normal;font-size:3.52777767px;font-family:'Ubuntu Condensed';-inkscape-font-specification:'Ubuntu Condensed, Normal';font-variant-ligatures:normal;font-variant-caps:normal;font-variant-numeric:normal;font-feature-settings:normal;text-align:start;writing-mode:lr-tb;text-anchor:start;fill:#b4b4b4;fill-opacity:1;stroke-width:0.26458332"
         id="path1088"
         inkscape:connector-curvature="0" />
      <path
         d="m 62.065599,293.56039 h 0.465667 v 0.26106 h -0.465667 v 1.01953 q 0,0.1905 0.06703,0.26811 0.07055,0.0741 0.186972,0.0741 0.05997,0 0.112889,-0.0176 0.05644,-0.0176 0.09525,-0.0423 l 0.05997,0.24341 q -0.144639,0.0847 -0.306917,0.0847 -0.261055,0 -0.391583,-0.14464 -0.127,-0.14816 -0.127,-0.48683 v -1.75683 l 0.303389,-0.0529 z"
         style="font-style:normal;font-variant:normal;font-weight:normal;font-stretch:normal;font-size:3.52777767px;font-family:'Ubuntu Condensed';-inkscape-font-specification:'Ubuntu Condensed, Normal';font-variant-ligatures:normal;font-variant-caps:normal;font-variant-numeric:normal;font-feature-settings:normal;text-align:start;writing-mode:lr-tb;text-anchor:start;fill:#b4b4b4;fill-opacity:1;stroke-width:0.26458332"
         id="path1090"
         inkscape:connector-curvature="0" />
      <path
         d="m 63.926943,295.19375 q 0.1905,0 0.292806,-0.10583 0.105833,-0.10583 0.105833,-0.28575 0,-0.0952 -0.03175,-0.16933 -0.03175,-0.0741 -0.08467,-0.13406 -0.04939,-0.06 -0.116416,-0.10936 -0.06703,-0.0494 -0.137584,-0.0988 -0.08114,-0.0564 -0.169333,-0.11994 -0.08819,-0.0635 -0.162278,-0.14817 -0.07055,-0.0847 -0.116416,-0.19755 -0.04586,-0.11289 -0.04586,-0.26459 0,-0.14816 0.04939,-0.26811 0.05292,-0.11994 0.141111,-0.20461 0.09172,-0.0847 0.215195,-0.13053 0.127,-0.0459 0.271639,-0.0459 0.141111,0 0.261055,0.0353 0.119945,0.0353 0.201084,0.0847 l -0.09878,0.25047 q -0.07408,-0.0494 -0.162278,-0.0741 -0.08467,-0.0282 -0.179917,-0.0282 -0.172861,0 -0.278694,0.0952 -0.102306,0.0917 -0.102306,0.27164 0,0.0988 0.03175,0.17286 0.03528,0.0741 0.08819,0.13406 0.05644,0.06 0.127,0.10936 0.07408,0.0494 0.155222,0.1023 0.08114,0.0529 0.165806,0.11642 0.08467,0.0635 0.151694,0.14817 0.07056,0.0811 0.112889,0.19403 0.04586,0.10936 0.04586,0.26105 0,0.13758 -0.04233,0.26106 -0.04233,0.12347 -0.134056,0.21872 -0.08819,0.0917 -0.225778,0.14817 -0.134055,0.0529 -0.3175,0.0529 -0.169333,0 -0.296333,-0.0388 -0.127,-0.0388 -0.225778,-0.10231 l 0.09878,-0.254 q 0.09172,0.0564 0.186972,0.0917 0.09878,0.0318 0.225778,0.0318 z"
         style="font-style:normal;font-variant:normal;font-weight:normal;font-stretch:normal;font-size:3.52777767px;font-family:'Ubuntu Condensed';-inkscape-font-specification:'Ubuntu Condensed, Normal';font-variant-ligatures:normal;font-variant-caps:normal;font-variant-numeric:normal;font-feature-settings:normal;text-align:start;writing-mode:lr-tb;text-anchor:start;fill:#b4b4b4;fill-opacity:1;stroke-width:0.26458332"
         id="path1092"
         inkscape:connector-curvature="0" />
      <path
         d="m 65.648223,295.45834 q -0.1905,0 -0.3175,-0.0741 -0.127,-0.0741 -0.208139,-0.20108 -0.07761,-0.13053 -0.112889,-0.30692 -0.03175,-0.17639 -0.03175,-0.38452 0,-0.45862 0.165806,-0.71614 0.169333,-0.26106 0.508,-0.26106 0.102305,0 0.183444,0.0247 0.08114,0.0247 0.151695,0.0635 l -0.07761,0.25047 q -0.109362,-0.0706 -0.243417,-0.0706 -0.1905,0 -0.282222,0.17286 -0.08819,0.17286 -0.08819,0.53623 0,0.15169 0.01764,0.28222 0.01764,0.127 0.05997,0.21872 0.04586,0.0917 0.116417,0.14464 0.07408,0.0529 0.186972,0.0529 0.07761,0 0.137584,-0.0176 0.0635,-0.0212 0.119944,-0.0529 l 0.06703,0.23636 q -0.05644,0.0388 -0.151695,0.0706 -0.09172,0.0318 -0.201083,0.0318 z"
         style="font-style:normal;font-variant:normal;font-weight:normal;font-stretch:normal;font-size:3.52777767px;font-family:'Ubuntu Condensed';-inkscape-font-specification:'Ubuntu Condensed, Normal';font-variant-ligatures:normal;font-variant-caps:normal;font-variant-numeric:normal;font-feature-settings:normal;text-align:start;writing-mode:lr-tb;text-anchor:start;fill:#b4b4b4;fill-opacity:1;stroke-width:0.26458332"
         id="path1094"
         inkscape:connector-curvature="0" />
      <path
         d="m 66.634292,295.41248 h -0.303389 v -1.85209 h 0.303389 z m -0.151694,-2.18017 q -0.08114,0 -0.141111,-0.0529 -0.05644,-0.0564 -0.05644,-0.14816 0,-0.0917 0.05644,-0.14464 0.05997,-0.0565 0.141111,-0.0565 0.08114,0 0.137583,0.0565 0.05997,0.0529 0.05997,0.14464 0,0.0917 -0.05997,0.14816 -0.05644,0.0529 -0.137583,0.0529 z"
         style="font-style:normal;font-variant:normal;font-weight:normal;font-stretch:normal;font-size:3.52777767px;font-family:'Ubuntu Condensed';-inkscape-font-specification:'Ubuntu Condensed, Normal';font-variant-ligatures:normal;font-variant-caps:normal;font-variant-numeric:normal;font-feature-settings:normal;text-align:start;writing-mode:lr-tb;text-anchor:start;fill:#b4b4b4;fill-opacity:1;stroke-width:0.26458332"
         id="path1096"
         inkscape:connector-curvature="0" />
      <path
         d="m 67.393426,294.57639 q 0.0035,0.13406 0.02469,0.24695 0.02117,0.10936 0.06703,0.19402 0.04939,0.0811 0.127,0.127 0.08114,0.0459 0.204611,0.0459 0.102305,0 0.186972,-0.0282 0.08819,-0.0317 0.127,-0.0529 l 0.05644,0.24341 q -0.04586,0.0317 -0.155223,0.067 -0.105833,0.0388 -0.254,0.0388 -0.194027,0 -0.328083,-0.0706 -0.130528,-0.0706 -0.215194,-0.19755 -0.08114,-0.127 -0.116417,-0.30339 -0.03528,-0.17639 -0.03528,-0.38806 0,-0.51153 0.169333,-0.74789 0.169334,-0.23636 0.448028,-0.23636 0.313972,0 0.4445,0.23636 0.130528,0.23636 0.130528,0.66322 0,0.0388 0,0.0811 0,0.0388 -0.0035,0.0811 z m 0.306916,-0.80433 q -0.151694,0 -0.22225,0.15169 -0.06703,0.1517 -0.08114,0.4057 h 0.560917 q 0,-0.25753 -0.05292,-0.4057 -0.05292,-0.15169 -0.204611,-0.15169 z"
         style="font-style:normal;font-variant:normal;font-weight:normal;font-stretch:normal;font-size:3.52777767px;font-family:'Ubuntu Condensed';-inkscape-font-specification:'Ubuntu Condensed, Normal';font-variant-ligatures:normal;font-variant-caps:normal;font-variant-numeric:normal;font-feature-settings:normal;text-align:start;writing-mode:lr-tb;text-anchor:start;fill:#b4b4b4;fill-opacity:1;stroke-width:0.26458332"
         id="path1098"
         inkscape:connector-curvature="0" />
      <path
         d="m 68.721799,293.61331 q 0.130528,-0.0388 0.282222,-0.0635 0.151695,-0.0282 0.278695,-0.0282 0.137583,0 0.250472,0.0388 0.112889,0.0353 0.1905,0.12347 0.08114,0.0882 0.123472,0.23989 0.04586,0.14817 0.04586,0.37042 v 1.11831 h -0.303389 v -1.09362 q 0,-0.27516 -0.07055,-0.40216 -0.07056,-0.127 -0.264584,-0.127 -0.102305,0 -0.229305,0.0353 v 1.5875 h -0.303389 z"
         style="font-style:normal;font-variant:normal;font-weight:normal;font-stretch:normal;font-size:3.52777767px;font-family:'Ubuntu Condensed';-inkscape-font-specification:'Ubuntu Condensed, Normal';font-variant-ligatures:normal;font-variant-caps:normal;font-variant-numeric:normal;font-feature-settings:normal;text-align:start;writing-mode:lr-tb;text-anchor:start;fill:#b4b4b4;fill-opacity:1;stroke-width:0.26458332"
         id="path1100"
         inkscape:connector-curvature="0" />
      <path
         d="m 70.988121,295.45834 q -0.1905,0 -0.3175,-0.0741 -0.127,-0.0741 -0.208139,-0.20108 -0.07761,-0.13053 -0.112889,-0.30692 -0.03175,-0.17639 -0.03175,-0.38452 0,-0.45862 0.165806,-0.71614 0.169333,-0.26106 0.508,-0.26106 0.102305,0 0.183444,0.0247 0.08114,0.0247 0.151695,0.0635 l -0.07761,0.25047 q -0.109361,-0.0706 -0.243417,-0.0706 -0.1905,0 -0.282222,0.17286 -0.08819,0.17286 -0.08819,0.53623 0,0.15169 0.01764,0.28222 0.01764,0.127 0.05997,0.21872 0.04586,0.0917 0.116417,0.14464 0.07408,0.0529 0.186972,0.0529 0.07761,0 0.137584,-0.0176 0.0635,-0.0212 0.119944,-0.0529 l 0.06703,0.23636 q -0.05644,0.0388 -0.151695,0.0706 -0.09172,0.0318 -0.201083,0.0318 z"
         style="font-style:normal;font-variant:normal;font-weight:normal;font-stretch:normal;font-size:3.52777767px;font-family:'Ubuntu Condensed';-inkscape-font-specification:'Ubuntu Condensed, Normal';font-variant-ligatures:normal;font-variant-caps:normal;font-variant-numeric:normal;font-feature-settings:normal;text-align:start;writing-mode:lr-tb;text-anchor:start;fill:#b4b4b4;fill-opacity:1;stroke-width:0.26458332"
         id="path1102"
         inkscape:connector-curvature="0" />
      <path
         d="m 71.858269,294.57639 q 0.0035,0.13406 0.02469,0.24695 0.02117,0.10936 0.06703,0.19402 0.04939,0.0811 0.127,0.127 0.08114,0.0459 0.204611,0.0459 0.102305,0 0.186972,-0.0282 0.08819,-0.0317 0.127,-0.0529 l 0.05644,0.24341 q -0.04586,0.0317 -0.155222,0.067 -0.105833,0.0388 -0.254,0.0388 -0.194028,0 -0.328083,-0.0706 -0.130528,-0.0706 -0.215195,-0.19755 -0.08114,-0.127 -0.116416,-0.30339 -0.03528,-0.17639 -0.03528,-0.38806 0,-0.51153 0.169333,-0.74789 0.169334,-0.23636 0.448028,-0.23636 0.313972,0 0.4445,0.23636 0.130528,0.23636 0.130528,0.66322 0,0.0388 0,0.0811 0,0.0388 -0.0035,0.0811 z m 0.306917,-0.80433 q -0.151694,0 -0.22225,0.15169 -0.06703,0.1517 -0.08114,0.4057 h 0.560917 q 0,-0.25753 -0.05292,-0.4057 -0.05292,-0.15169 -0.204611,-0.15169 z"
         style="font-style:normal;font-variant:normal;font-weight:normal;font-stretch:normal;font-size:3.52777767px;font-family:'Ubuntu Condensed';-inkscape-font-specification:'Ubuntu Condensed, Normal';font-variant-ligatures:normal;font-variant-caps:normal;font-variant-numeric:normal;font-feature-settings:normal;text-align:start;writing-mode:lr-tb;text-anchor:start;fill:#b4b4b4;fill-opacity:1;stroke-width:0.26458332"
         id="path1104"
         inkscape:connector-curvature="0" />
    </g>
  </g>
  <g
     id="layer2"
     inkscape:label="components"
     style="display:inline"
     inkscape:groupmode="layer" />
</svg>
