<?xml version="1.0" encoding="UTF-8" standalone="no"?>
<!-- Created with Inkscape (http://www.inkscape.org/) -->

<svg
   xmlns:dc="http://purl.org/dc/elements/1.1/"
   xmlns:cc="http://creativecommons.org/ns#"
   xmlns:rdf="http://www.w3.org/1999/02/22-rdf-syntax-ns#"
   xmlns:svg="http://www.w3.org/2000/svg"
   xmlns="http://www.w3.org/2000/svg"
   xmlns:sodipodi="http://sodipodi.sourceforge.net/DTD/sodipodi-0.dtd"
   xmlns:inkscape="http://www.inkscape.org/namespaces/inkscape"
   width="25.4mm"
   height="128.5mm"
   viewBox="0 0 25.4 128.5"
   version="1.1"
   id="svg8"
   inkscape:version="0.92.3 (2405546, 2018-03-11)"
   sodipodi:docname="RSVectorVictor.svg">
  <defs
     id="defs2" />
  <sodipodi:namedview
     id="base"
     pagecolor="#ffffff"
     bordercolor="#666666"
     borderopacity="1.0"
     inkscape:pageopacity="0.0"
     inkscape:pageshadow="2"
     inkscape:zoom="3.2347114"
     inkscape:cx="52.637198"
     inkscape:cy="242.83465"
     inkscape:document-units="mm"
     inkscape:current-layer="layer1"
     showgrid="true"
     inkscape:pagecheckerboard="false"
     borderlayer="false"
     inkscape:showpageshadow="false"
     inkscape:window-width="1920"
     inkscape:window-height="1802"
     inkscape:window-x="3186"
     inkscape:window-y="415"
     inkscape:window-maximized="0"
     showguides="true"
     inkscape:guide-bbox="true">
    <inkscape:grid
       type="xygrid"
       id="grid829"
       spacingx="5.0400001"
       spacingy="5.0400001"
       units="mm"
       snapvisiblegridlinesonly="true"
       enabled="true" />
    <sodipodi:guide
       position="-7.9375001,18.520834"
       orientation="0,1"
       id="guide844"
       inkscape:locked="false" />
    <sodipodi:guide
       position="10.08,105.84"
       orientation="1,0"
       id="guide846"
       inkscape:locked="false" />
  </sodipodi:namedview>
  <metadata
     id="metadata5">
    <rdf:RDF>
      <cc:Work
         rdf:about="">
        <dc:format>image/svg+xml</dc:format>
        <dc:type
           rdf:resource="http://purl.org/dc/dcmitype/StillImage" />
        <dc:title></dc:title>
      </cc:Work>
    </rdf:RDF>
  </metadata>
  <g
     inkscape:label="Layer 1"
     id="layer1"
     transform="translate(0,-168.5)"
     style="display:inline"
     inkscape:groupmode="layer">
    <rect
       style="opacity:1;fill:#191919;fill-opacity:1;fill-rule:nonzero;stroke:none;stroke-width:1.01799917;stroke-miterlimit:4;stroke-dasharray:none;stroke-opacity:1"
       id="rect1002"
       width="25.568724"
       height="128.69357"
       x="0"
       y="168.30643" />
    <g
       transform="translate(-50.799995,-0.52903543)"
       aria-label="Racket Science"
       style="font-style:normal;font-variant:normal;font-weight:normal;font-stretch:normal;font-size:4.93888855px;line-height:1.25;font-family:FreeSans;-inkscape-font-specification:'FreeSans, Normal';font-variant-ligatures:normal;font-variant-caps:normal;font-variant-numeric:normal;text-align:start;letter-spacing:0px;word-spacing:0px;writing-mode:lr-tb;text-anchor:start;display:inline;fill:#000000;fill-opacity:1;stroke:none;stroke-width:0.26458332"
       id="text1078">
      <path
         d="m 54.259785,293.003 q 0.246944,-0.06 0.47625,-0.06 0.183444,0 0.331611,0.0423 0.148166,0.0423 0.254,0.13406 0.105833,0.0917 0.162278,0.23636 0.05997,0.14464 0.05997,0.34925 0,0.254 -0.09878,0.41275 -0.09525,0.15522 -0.261056,0.23636 0.04233,0.0706 0.105834,0.19403 0.06703,0.11994 0.134055,0.26811 0.07056,0.14464 0.134056,0.29986 0.06703,0.15522 0.112889,0.29634 h -0.3175 q -0.03881,-0.10584 -0.09878,-0.23989 -0.05644,-0.13406 -0.119944,-0.26459 -0.0635,-0.13405 -0.127,-0.254 -0.0635,-0.12347 -0.112889,-0.20814 -0.05644,0.007 -0.116417,0.0106 -0.05997,0.004 -0.119944,0.004 h -0.08819 v 0.9525 h -0.310444 z m 0.310444,1.19592 h 0.134056 q 0.243416,0 0.373944,-0.10936 0.130528,-0.11289 0.130528,-0.38453 0,-0.13758 -0.03528,-0.2293 -0.03175,-0.0953 -0.09525,-0.14817 -0.05997,-0.0564 -0.148167,-0.0811 -0.08467,-0.0247 -0.1905,-0.0247 -0.09172,0 -0.169333,0.0106 z"
         style="font-style:normal;font-variant:normal;font-weight:normal;font-stretch:normal;font-size:3.52777767px;font-family:'Ubuntu Condensed';-inkscape-font-specification:'Ubuntu Condensed, Normal';font-variant-ligatures:normal;font-variant-caps:normal;font-variant-numeric:normal;font-feature-settings:normal;text-align:start;writing-mode:lr-tb;text-anchor:start;fill:#b4b4b4;fill-opacity:1;stroke-width:0.26458332"
         id="path1080"
         inkscape:connector-curvature="0" />
      <path
         d="m 56.044509,293.5992 q 0.09172,-0.0388 0.194028,-0.06 0.102306,-0.0247 0.22225,-0.0247 0.246945,0 0.402167,0.15522 0.155222,0.1517 0.155222,0.47625 v 1.22767 q -0.127,0.0353 -0.261055,0.0564 -0.130528,0.0212 -0.257528,0.0212 -0.127,0 -0.239889,-0.0317 -0.109361,-0.0317 -0.194028,-0.1023 -0.08114,-0.0706 -0.130528,-0.17639 -0.04939,-0.10936 -0.04939,-0.26459 0,-0.14464 0.04233,-0.25047 0.04586,-0.10936 0.123472,-0.17992 0.07761,-0.0741 0.183444,-0.10936 0.105834,-0.0388 0.229306,-0.0388 0.116417,0 0.257528,0.0282 v -0.16933 q 0,-0.20461 -0.08114,-0.28575 -0.07761,-0.0811 -0.225778,-0.0811 -0.08114,0 -0.155222,0.0176 -0.07056,0.0141 -0.151695,0.0494 z m 0.144639,1.27353 q 0,0.16227 0.08467,0.23988 0.08467,0.0776 0.239889,0.0776 0.09525,0 0.208139,-0.0247 v -0.58914 q -0.105834,-0.0282 -0.208139,-0.0282 -0.06703,0 -0.127,0.0176 -0.05997,0.0141 -0.105833,0.0529 -0.04233,0.0353 -0.06703,0.0988 -0.02469,0.06 -0.02469,0.15523 z"
         style="font-style:normal;font-variant:normal;font-weight:normal;font-stretch:normal;font-size:3.52777767px;font-family:'Ubuntu Condensed';-inkscape-font-specification:'Ubuntu Condensed, Normal';font-variant-ligatures:normal;font-variant-caps:normal;font-variant-numeric:normal;font-feature-settings:normal;text-align:start;writing-mode:lr-tb;text-anchor:start;fill:#b4b4b4;fill-opacity:1;stroke-width:0.26458332"
         id="path1082"
         inkscape:connector-curvature="0" />
      <path
         d="m 58.110354,295.45834 q -0.1905,0 -0.3175,-0.0741 -0.127,-0.0741 -0.208139,-0.20108 -0.07761,-0.13053 -0.112889,-0.30692 -0.03175,-0.17639 -0.03175,-0.38452 0,-0.45862 0.165806,-0.71614 0.169333,-0.26106 0.508,-0.26106 0.102305,0 0.183444,0.0247 0.08114,0.0247 0.151695,0.0635 l -0.07761,0.25047 q -0.109362,-0.0706 -0.243417,-0.0706 -0.1905,0 -0.282222,0.17286 -0.08819,0.17286 -0.08819,0.53623 0,0.15169 0.01764,0.28222 0.01764,0.127 0.05997,0.21872 0.04586,0.0917 0.116417,0.14464 0.07408,0.0529 0.186972,0.0529 0.07761,0 0.137584,-0.0176 0.0635,-0.0212 0.119944,-0.0529 l 0.06703,0.23636 q -0.05645,0.0388 -0.151695,0.0706 -0.09172,0.0318 -0.201083,0.0318 z"
         style="font-style:normal;font-variant:normal;font-weight:normal;font-stretch:normal;font-size:3.52777767px;font-family:'Ubuntu Condensed';-inkscape-font-specification:'Ubuntu Condensed, Normal';font-variant-ligatures:normal;font-variant-caps:normal;font-variant-numeric:normal;font-feature-settings:normal;text-align:start;writing-mode:lr-tb;text-anchor:start;fill:#b4b4b4;fill-opacity:1;stroke-width:0.26458332"
         id="path1084"
         inkscape:connector-curvature="0" />
      <path
         d="m 59.939562,293.56039 q -0.148167,0.254 -0.28575,0.46567 -0.134056,0.20814 -0.268111,0.39158 0.08467,0.0988 0.172861,0.22225 0.08819,0.12347 0.169333,0.25753 0.08114,0.13053 0.151695,0.26458 0.07055,0.13053 0.119944,0.25048 h -0.331611 q -0.05292,-0.11642 -0.123472,-0.24342 -0.07056,-0.127 -0.148167,-0.24695 -0.07761,-0.12347 -0.155222,-0.23283 -0.07761,-0.10936 -0.144639,-0.18344 v 0.90664 h -0.303389 v -2.68464 l 0.303389,-0.0529 v 1.68275 q 0.0635,-0.0847 0.134056,-0.1905 0.07408,-0.10583 0.144639,-0.21167 0.07055,-0.10936 0.134055,-0.21166 0.0635,-0.10231 0.105833,-0.18345 z"
         style="font-style:normal;font-variant:normal;font-weight:normal;font-stretch:normal;font-size:3.52777767px;font-family:'Ubuntu Condensed';-inkscape-font-specification:'Ubuntu Condensed, Normal';font-variant-ligatures:normal;font-variant-caps:normal;font-variant-numeric:normal;font-feature-settings:normal;text-align:start;writing-mode:lr-tb;text-anchor:start;fill:#b4b4b4;fill-opacity:1;stroke-width:0.26458332"
         id="path1086"
         inkscape:connector-curvature="0" />
      <path
         d="m 60.455003,294.57639 q 0.0035,0.13406 0.0247,0.24695 0.02117,0.10936 0.06703,0.19402 0.04939,0.0811 0.127,0.127 0.08114,0.0459 0.204611,0.0459 0.102305,0 0.186972,-0.0282 0.08819,-0.0317 0.127,-0.0529 l 0.05644,0.24341 q -0.04586,0.0317 -0.155222,0.067 -0.105833,0.0388 -0.254,0.0388 -0.194028,0 -0.328083,-0.0706 -0.130528,-0.0706 -0.215195,-0.19755 -0.08114,-0.127 -0.116416,-0.30339 -0.03528,-0.17639 -0.03528,-0.38806 0,-0.51153 0.169333,-0.74789 0.169334,-0.23636 0.448028,-0.23636 0.313972,0 0.4445,0.23636 0.130528,0.23636 0.130528,0.66322 0,0.0388 0,0.0811 0,0.0388 -0.0035,0.0811 z m 0.306917,-0.80433 q -0.151694,0 -0.22225,0.15169 -0.06703,0.1517 -0.08114,0.4057 h 0.560917 q 0,-0.25753 -0.05292,-0.4057 -0.05292,-0.15169 -0.204611,-0.15169 z"
         style="font-style:normal;font-variant:normal;font-weight:normal;font-stretch:normal;font-size:3.52777767px;font-family:'Ubuntu Condensed';-inkscape-font-specification:'Ubuntu Condensed, Normal';font-variant-ligatures:normal;font-variant-caps:normal;font-variant-numeric:normal;font-feature-settings:normal;text-align:start;writing-mode:lr-tb;text-anchor:start;fill:#b4b4b4;fill-opacity:1;stroke-width:0.26458332"
         id="path1088"
         inkscape:connector-curvature="0" />
      <path
         d="m 62.065599,293.56039 h 0.465667 v 0.26106 h -0.465667 v 1.01953 q 0,0.1905 0.06703,0.26811 0.07055,0.0741 0.186972,0.0741 0.05997,0 0.112889,-0.0176 0.05644,-0.0176 0.09525,-0.0423 l 0.05997,0.24341 q -0.144639,0.0847 -0.306917,0.0847 -0.261055,0 -0.391583,-0.14464 -0.127,-0.14816 -0.127,-0.48683 v -1.75683 l 0.303389,-0.0529 z"
         style="font-style:normal;font-variant:normal;font-weight:normal;font-stretch:normal;font-size:3.52777767px;font-family:'Ubuntu Condensed';-inkscape-font-specification:'Ubuntu Condensed, Normal';font-variant-ligatures:normal;font-variant-caps:normal;font-variant-numeric:normal;font-feature-settings:normal;text-align:start;writing-mode:lr-tb;text-anchor:start;fill:#b4b4b4;fill-opacity:1;stroke-width:0.26458332"
         id="path1090"
         inkscape:connector-curvature="0" />
      <path
         d="m 63.926943,295.19375 q 0.1905,0 0.292806,-0.10583 0.105833,-0.10583 0.105833,-0.28575 0,-0.0952 -0.03175,-0.16933 -0.03175,-0.0741 -0.08467,-0.13406 -0.04939,-0.06 -0.116416,-0.10936 -0.06703,-0.0494 -0.137584,-0.0988 -0.08114,-0.0564 -0.169333,-0.11994 -0.08819,-0.0635 -0.162278,-0.14817 -0.07055,-0.0847 -0.116416,-0.19755 -0.04586,-0.11289 -0.04586,-0.26459 0,-0.14816 0.04939,-0.26811 0.05292,-0.11994 0.141111,-0.20461 0.09172,-0.0847 0.215195,-0.13053 0.127,-0.0459 0.271639,-0.0459 0.141111,0 0.261055,0.0353 0.119945,0.0353 0.201084,0.0847 l -0.09878,0.25047 q -0.07408,-0.0494 -0.162278,-0.0741 -0.08467,-0.0282 -0.179917,-0.0282 -0.172861,0 -0.278694,0.0952 -0.102306,0.0917 -0.102306,0.27164 0,0.0988 0.03175,0.17286 0.03528,0.0741 0.08819,0.13406 0.05644,0.06 0.127,0.10936 0.07408,0.0494 0.155222,0.1023 0.08114,0.0529 0.165806,0.11642 0.08467,0.0635 0.151694,0.14817 0.07056,0.0811 0.112889,0.19403 0.04586,0.10936 0.04586,0.26105 0,0.13758 -0.04233,0.26106 -0.04233,0.12347 -0.134056,0.21872 -0.08819,0.0917 -0.225778,0.14817 -0.134055,0.0529 -0.3175,0.0529 -0.169333,0 -0.296333,-0.0388 -0.127,-0.0388 -0.225778,-0.10231 l 0.09878,-0.254 q 0.09172,0.0564 0.186972,0.0917 0.09878,0.0318 0.225778,0.0318 z"
         style="font-style:normal;font-variant:normal;font-weight:normal;font-stretch:normal;font-size:3.52777767px;font-family:'Ubuntu Condensed';-inkscape-font-specification:'Ubuntu Condensed, Normal';font-variant-ligatures:normal;font-variant-caps:normal;font-variant-numeric:normal;font-feature-settings:normal;text-align:start;writing-mode:lr-tb;text-anchor:start;fill:#b4b4b4;fill-opacity:1;stroke-width:0.26458332"
         id="path1092"
         inkscape:connector-curvature="0" />
      <path
         d="m 65.648223,295.45834 q -0.1905,0 -0.3175,-0.0741 -0.127,-0.0741 -0.208139,-0.20108 -0.07761,-0.13053 -0.112889,-0.30692 -0.03175,-0.17639 -0.03175,-0.38452 0,-0.45862 0.165806,-0.71614 0.169333,-0.26106 0.508,-0.26106 0.102305,0 0.183444,0.0247 0.08114,0.0247 0.151695,0.0635 l -0.07761,0.25047 q -0.109362,-0.0706 -0.243417,-0.0706 -0.1905,0 -0.282222,0.17286 -0.08819,0.17286 -0.08819,0.53623 0,0.15169 0.01764,0.28222 0.01764,0.127 0.05997,0.21872 0.04586,0.0917 0.116417,0.14464 0.07408,0.0529 0.186972,0.0529 0.07761,0 0.137584,-0.0176 0.0635,-0.0212 0.119944,-0.0529 l 0.06703,0.23636 q -0.05644,0.0388 -0.151695,0.0706 -0.09172,0.0318 -0.201083,0.0318 z"
         style="font-style:normal;font-variant:normal;font-weight:normal;font-stretch:normal;font-size:3.52777767px;font-family:'Ubuntu Condensed';-inkscape-font-specification:'Ubuntu Condensed, Normal';font-variant-ligatures:normal;font-variant-caps:normal;font-variant-numeric:normal;font-feature-settings:normal;text-align:start;writing-mode:lr-tb;text-anchor:start;fill:#b4b4b4;fill-opacity:1;stroke-width:0.26458332"
         id="path1094"
         inkscape:connector-curvature="0" />
      <path
         d="m 66.634292,295.41248 h -0.303389 v -1.85209 h 0.303389 z m -0.151694,-2.18017 q -0.08114,0 -0.141111,-0.0529 -0.05644,-0.0564 -0.05644,-0.14816 0,-0.0917 0.05644,-0.14464 0.05997,-0.0565 0.141111,-0.0565 0.08114,0 0.137583,0.0565 0.05997,0.0529 0.05997,0.14464 0,0.0917 -0.05997,0.14816 -0.05644,0.0529 -0.137583,0.0529 z"
         style="font-style:normal;font-variant:normal;font-weight:normal;font-stretch:normal;font-size:3.52777767px;font-family:'Ubuntu Condensed';-inkscape-font-specification:'Ubuntu Condensed, Normal';font-variant-ligatures:normal;font-variant-caps:normal;font-variant-numeric:normal;font-feature-settings:normal;text-align:start;writing-mode:lr-tb;text-anchor:start;fill:#b4b4b4;fill-opacity:1;stroke-width:0.26458332"
         id="path1096"
         inkscape:connector-curvature="0" />
      <path
         d="m 67.393426,294.57639 q 0.0035,0.13406 0.02469,0.24695 0.02117,0.10936 0.06703,0.19402 0.04939,0.0811 0.127,0.127 0.08114,0.0459 0.204611,0.0459 0.102305,0 0.186972,-0.0282 0.08819,-0.0317 0.127,-0.0529 l 0.05644,0.24341 q -0.04586,0.0317 -0.155223,0.067 -0.105833,0.0388 -0.254,0.0388 -0.194027,0 -0.328083,-0.0706 -0.130528,-0.0706 -0.215194,-0.19755 -0.08114,-0.127 -0.116417,-0.30339 -0.03528,-0.17639 -0.03528,-0.38806 0,-0.51153 0.169333,-0.74789 0.169334,-0.23636 0.448028,-0.23636 0.313972,0 0.4445,0.23636 0.130528,0.23636 0.130528,0.66322 0,0.0388 0,0.0811 0,0.0388 -0.0035,0.0811 z m 0.306916,-0.80433 q -0.151694,0 -0.22225,0.15169 -0.06703,0.1517 -0.08114,0.4057 h 0.560917 q 0,-0.25753 -0.05292,-0.4057 -0.05292,-0.15169 -0.204611,-0.15169 z"
         style="font-style:normal;font-variant:normal;font-weight:normal;font-stretch:normal;font-size:3.52777767px;font-family:'Ubuntu Condensed';-inkscape-font-specification:'Ubuntu Condensed, Normal';font-variant-ligatures:normal;font-variant-caps:normal;font-variant-numeric:normal;font-feature-settings:normal;text-align:start;writing-mode:lr-tb;text-anchor:start;fill:#b4b4b4;fill-opacity:1;stroke-width:0.26458332"
         id="path1098"
         inkscape:connector-curvature="0" />
      <path
         d="m 68.721799,293.61331 q 0.130528,-0.0388 0.282222,-0.0635 0.151695,-0.0282 0.278695,-0.0282 0.137583,0 0.250472,0.0388 0.112889,0.0353 0.1905,0.12347 0.08114,0.0882 0.123472,0.23989 0.04586,0.14817 0.04586,0.37042 v 1.11831 h -0.303389 v -1.09362 q 0,-0.27516 -0.07055,-0.40216 -0.07056,-0.127 -0.264584,-0.127 -0.102305,0 -0.229305,0.0353 v 1.5875 h -0.303389 z"
         style="font-style:normal;font-variant:normal;font-weight:normal;font-stretch:normal;font-size:3.52777767px;font-family:'Ubuntu Condensed';-inkscape-font-specification:'Ubuntu Condensed, Normal';font-variant-ligatures:normal;font-variant-caps:normal;font-variant-numeric:normal;font-feature-settings:normal;text-align:start;writing-mode:lr-tb;text-anchor:start;fill:#b4b4b4;fill-opacity:1;stroke-width:0.26458332"
         id="path1100"
         inkscape:connector-curvature="0" />
      <path
         d="m 70.988121,295.45834 q -0.1905,0 -0.3175,-0.0741 -0.127,-0.0741 -0.208139,-0.20108 -0.07761,-0.13053 -0.112889,-0.30692 -0.03175,-0.17639 -0.03175,-0.38452 0,-0.45862 0.165806,-0.71614 0.169333,-0.26106 0.508,-0.26106 0.102305,0 0.183444,0.0247 0.08114,0.0247 0.151695,0.0635 l -0.07761,0.25047 q -0.109361,-0.0706 -0.243417,-0.0706 -0.1905,0 -0.282222,0.17286 -0.08819,0.17286 -0.08819,0.53623 0,0.15169 0.01764,0.28222 0.01764,0.127 0.05997,0.21872 0.04586,0.0917 0.116417,0.14464 0.07408,0.0529 0.186972,0.0529 0.07761,0 0.137584,-0.0176 0.0635,-0.0212 0.119944,-0.0529 l 0.06703,0.23636 q -0.05644,0.0388 -0.151695,0.0706 -0.09172,0.0318 -0.201083,0.0318 z"
         style="font-style:normal;font-variant:normal;font-weight:normal;font-stretch:normal;font-size:3.52777767px;font-family:'Ubuntu Condensed';-inkscape-font-specification:'Ubuntu Condensed, Normal';font-variant-ligatures:normal;font-variant-caps:normal;font-variant-numeric:normal;font-feature-settings:normal;text-align:start;writing-mode:lr-tb;text-anchor:start;fill:#b4b4b4;fill-opacity:1;stroke-width:0.26458332"
         id="path1102"
         inkscape:connector-curvature="0" />
      <path
         d="m 71.858269,294.57639 q 0.0035,0.13406 0.02469,0.24695 0.02117,0.10936 0.06703,0.19402 0.04939,0.0811 0.127,0.127 0.08114,0.0459 0.204611,0.0459 0.102305,0 0.186972,-0.0282 0.08819,-0.0317 0.127,-0.0529 l 0.05644,0.24341 q -0.04586,0.0317 -0.155222,0.067 -0.105833,0.0388 -0.254,0.0388 -0.194028,0 -0.328083,-0.0706 -0.130528,-0.0706 -0.215195,-0.19755 -0.08114,-0.127 -0.116416,-0.30339 -0.03528,-0.17639 -0.03528,-0.38806 0,-0.51153 0.169333,-0.74789 0.169334,-0.23636 0.448028,-0.23636 0.313972,0 0.4445,0.23636 0.130528,0.23636 0.130528,0.66322 0,0.0388 0,0.0811 0,0.0388 -0.0035,0.0811 z m 0.306917,-0.80433 q -0.151694,0 -0.22225,0.15169 -0.06703,0.1517 -0.08114,0.4057 h 0.560917 q 0,-0.25753 -0.05292,-0.4057 -0.05292,-0.15169 -0.204611,-0.15169 z"
         style="font-style:normal;font-variant:normal;font-weight:normal;font-stretch:normal;font-size:3.52777767px;font-family:'Ubuntu Condensed';-inkscape-font-specification:'Ubuntu Condensed, Normal';font-variant-ligatures:normal;font-variant-caps:normal;font-variant-numeric:normal;font-feature-settings:normal;text-align:start;writing-mode:lr-tb;text-anchor:start;fill:#b4b4b4;fill-opacity:1;stroke-width:0.26458332"
         id="path1104"
         inkscape:connector-curvature="0" />
    </g>
    <g
       aria-label="VECTOR VICTOR"
       style="font-style:normal;font-variant:normal;font-weight:normal;font-stretch:normal;font-size:4.93888855px;line-height:1.25;font-family:FreeSans;-inkscape-font-specification:'FreeSans, Normal';font-variant-ligatures:normal;font-variant-caps:normal;font-variant-numeric:normal;text-align:start;letter-spacing:0px;word-spacing:0px;writing-mode:lr-tb;text-anchor:start;fill:#000000;fill-opacity:1;stroke:none;stroke-width:0.26458332"
       id="text975"
       transform="translate(0,-0.52916663)">
      <path
         d="M 6.4287303,176.03999 Q 6.3151359,175.66958 6.2015414,175.29422 6.087947,174.91393 5.9743525,174.49906 5.865697,174.08419 5.7570414,173.62488 5.6483859,173.16062 5.5397303,172.61734 h 0.4642556 q 0.064205,0.3803 0.1432278,0.76553 0.079022,0.3803 0.1679222,0.75071 0.0889,0.37042 0.1778,0.72108 0.093839,0.34572 0.1827389,0.65687 0.0889,-0.31115 0.1778,-0.65687 0.093839,-0.35066 0.1827389,-0.72108 0.0889,-0.37041 0.1679222,-0.75071 0.079022,-0.38523 0.1432278,-0.76553 h 0.4494389 q -0.1086556,0.54328 -0.2173111,1.00754 -0.1086556,0.45931 -0.22225,0.87418 -0.1086556,0.41487 -0.22225,0.79516 -0.1135945,0.37536 -0.2271889,0.74577 z"
         style="font-style:normal;font-variant:normal;font-weight:normal;font-stretch:normal;font-size:4.93888903px;font-family:'Ubuntu Condensed';-inkscape-font-specification:'Ubuntu Condensed, Normal';font-variant-ligatures:normal;font-variant-caps:normal;font-variant-numeric:normal;font-feature-settings:normal;text-align:center;writing-mode:lr-tb;text-anchor:middle;fill:#b4b4b4;fill-opacity:1;stroke-width:0.26458332"
         id="path979"
         inkscape:connector-curvature="0" />
      <path
         d="m 8.3059711,176.03999 v -3.42265 h 1.5359945 v 0.3803 H 8.7504711 v 1.06186 h 0.9877778 v 0.37042 H 8.7504711 v 1.22978 h 1.1705167 v 0.38029 z"
         style="font-style:normal;font-variant:normal;font-weight:normal;font-stretch:normal;font-size:4.93888903px;font-family:'Ubuntu Condensed';-inkscape-font-specification:'Ubuntu Condensed, Normal';font-variant-ligatures:normal;font-variant-caps:normal;font-variant-numeric:normal;font-feature-settings:normal;text-align:center;writing-mode:lr-tb;text-anchor:middle;fill:#b4b4b4;fill-opacity:1;stroke-width:0.26458332"
         id="path981"
         inkscape:connector-curvature="0" />
      <path
         d="m 11.577754,176.11408 q -0.602545,0 -0.923573,-0.44944 -0.321028,-0.44944 -0.321028,-1.38783 0,-0.47907 0.0889,-0.80998 0.09384,-0.3309 0.256823,-0.53834 0.162983,-0.20743 0.385233,-0.29633 0.22225,-0.0938 0.484011,-0.0938 0.217311,0 0.404989,0.0593 0.187678,0.0543 0.306211,0.13829 l -0.13335,0.37041 q -0.118533,-0.079 -0.256822,-0.12841 -0.13335,-0.0494 -0.31115,-0.0494 -0.395111,0 -0.572911,0.33091 -0.1778,0.32597 -0.1778,1.01741 0,0.69638 0.187678,1.07174 0.187677,0.37535 0.612422,0.37535 0.202494,0 0.325967,-0.0494 0.128411,-0.0494 0.246944,-0.12842 l 0.123472,0.35067 q -0.113594,0.0889 -0.301272,0.1531 -0.182739,0.0642 -0.424744,0.0642 z"
         style="font-style:normal;font-variant:normal;font-weight:normal;font-stretch:normal;font-size:4.93888903px;font-family:'Ubuntu Condensed';-inkscape-font-specification:'Ubuntu Condensed, Normal';font-variant-ligatures:normal;font-variant-caps:normal;font-variant-numeric:normal;font-feature-settings:normal;text-align:center;writing-mode:lr-tb;text-anchor:middle;fill:#b4b4b4;fill-opacity:1;stroke-width:0.26458332"
         id="path983"
         inkscape:connector-curvature="0" />
      <path
         d="m 14.556135,172.61734 v 0.3803 h -0.760589 v 3.04235 h -0.4445 v -3.04235 h -0.760589 v -0.3803 z"
         style="font-style:normal;font-variant:normal;font-weight:normal;font-stretch:normal;font-size:4.93888903px;font-family:'Ubuntu Condensed';-inkscape-font-specification:'Ubuntu Condensed, Normal';font-variant-ligatures:normal;font-variant-caps:normal;font-variant-numeric:normal;font-feature-settings:normal;text-align:center;writing-mode:lr-tb;text-anchor:middle;fill:#b4b4b4;fill-opacity:1;stroke-width:0.26458332"
         id="path985"
         inkscape:connector-curvature="0" />
      <path
         d="m 17.190956,174.33114 q 0,0.40005 -0.07408,0.73095 -0.06914,0.32597 -0.22225,0.56304 -0.148166,0.23212 -0.380294,0.36054 -0.227189,0.12841 -0.538339,0.12841 -0.31115,0 -0.543278,-0.12841 -0.227189,-0.12842 -0.380294,-0.36054 -0.148167,-0.23707 -0.22225,-0.56304 -0.07408,-0.3309 -0.07408,-0.73095 0,-0.40005 0.07408,-0.73096 0.07408,-0.3309 0.22225,-0.56303 0.153105,-0.23707 0.380294,-0.36548 0.232128,-0.13335 0.543278,-0.13335 0.31115,0 0.538339,0.13335 0.232128,0.12841 0.380294,0.36548 0.153106,0.23213 0.22225,0.56303 0.07408,0.33091 0.07408,0.73096 z m -0.474134,0 q 0,-0.31115 -0.03951,-0.56797 -0.03951,-0.25683 -0.128411,-0.43957 -0.0889,-0.18767 -0.232128,-0.29139 -0.138288,-0.10372 -0.340783,-0.10372 -0.202494,0 -0.345722,0.10372 -0.138289,0.10372 -0.227189,0.29139 -0.0889,0.18274 -0.13335,0.43957 -0.03951,0.25682 -0.03951,0.56797 0,0.31115 0.03951,0.56797 0.04445,0.25682 0.13335,0.43956 0.0889,0.18274 0.227189,0.28646 0.143228,0.0988 0.345722,0.0988 0.202495,0 0.340783,-0.0988 0.143228,-0.10372 0.232128,-0.28646 0.0889,-0.18274 0.128411,-0.43956 0.03951,-0.25682 0.03951,-0.56797 z"
         style="font-style:normal;font-variant:normal;font-weight:normal;font-stretch:normal;font-size:4.93888903px;font-family:'Ubuntu Condensed';-inkscape-font-specification:'Ubuntu Condensed, Normal';font-variant-ligatures:normal;font-variant-caps:normal;font-variant-numeric:normal;font-feature-settings:normal;text-align:center;writing-mode:lr-tb;text-anchor:middle;fill:#b4b4b4;fill-opacity:1;stroke-width:0.26458332"
         id="path987"
         inkscape:connector-curvature="0" />
      <path
         d="m 17.884715,172.66673 q 0.345722,-0.084 0.66675,-0.084 0.256822,0 0.464255,0.0593 0.207434,0.0593 0.3556,0.18768 0.148167,0.12841 0.227189,0.3309 0.08396,0.2025 0.08396,0.48895 0,0.3556 -0.138289,0.57785 -0.13335,0.21731 -0.365477,0.33091 0.05927,0.0988 0.148166,0.27164 0.09384,0.16792 0.187678,0.37535 0.09878,0.2025 0.187678,0.41981 0.09384,0.21731 0.158044,0.41486 h -0.4445 q -0.05433,-0.14816 -0.138289,-0.33584 -0.07902,-0.18768 -0.167922,-0.37042 -0.0889,-0.18768 -0.1778,-0.3556 -0.0889,-0.17286 -0.158044,-0.29139 -0.07902,0.01 -0.162984,0.0148 -0.08396,0.005 -0.167922,0.005 h -0.123472 v 1.3335 h -0.434622 z m 0.434622,1.67429 h 0.187678 q 0.340783,0 0.523522,-0.15311 0.182739,-0.15804 0.182739,-0.53834 0,-0.19262 -0.04939,-0.32103 -0.04445,-0.13335 -0.13335,-0.20743 -0.08396,-0.079 -0.207434,-0.11359 -0.118533,-0.0346 -0.2667,-0.0346 -0.128411,0 -0.237066,0.0148 z"
         style="font-style:normal;font-variant:normal;font-weight:normal;font-stretch:normal;font-size:4.93888903px;font-family:'Ubuntu Condensed';-inkscape-font-specification:'Ubuntu Condensed, Normal';font-variant-ligatures:normal;font-variant-caps:normal;font-variant-numeric:normal;font-feature-settings:normal;text-align:center;writing-mode:lr-tb;text-anchor:middle;fill:#b4b4b4;fill-opacity:1;stroke-width:0.26458332"
         id="path989"
         inkscape:connector-curvature="0" />
      <path
         d="m 6.8772818,182.25061 q -0.1135945,-0.37042 -0.2271889,-0.74577 -0.1135945,-0.3803 -0.2271889,-0.79517 -0.1086556,-0.41486 -0.2173111,-0.87418 -0.1086556,-0.46425 -0.2173112,-1.00753 h 0.4642556 q 0.064206,0.38029 0.1432278,0.76553 0.079022,0.38029 0.1679222,0.75071 0.0889,0.37041 0.1778,0.72107 0.093839,0.34573 0.1827389,0.65688 0.0889,-0.31115 0.1778,-0.65688 0.093839,-0.35066 0.1827389,-0.72107 0.0889,-0.37042 0.1679222,-0.75071 0.079022,-0.38524 0.1432278,-0.76553 H 8.245354 q -0.1086555,0.54328 -0.2173111,1.00753 -0.1086555,0.45932 -0.22225,0.87418 -0.1086555,0.41487 -0.22225,0.79517 -0.1135944,0.37535 -0.2271889,0.74577 z"
         style="font-style:normal;font-variant:normal;font-weight:normal;font-stretch:normal;font-size:4.93888903px;font-family:'Ubuntu Condensed';-inkscape-font-specification:'Ubuntu Condensed, Normal';font-variant-ligatures:normal;font-variant-caps:normal;font-variant-numeric:normal;font-feature-settings:normal;text-align:center;writing-mode:lr-tb;text-anchor:middle;fill:#b4b4b4;fill-opacity:1;stroke-width:0.26458332"
         id="path991"
         inkscape:connector-curvature="0" />
      <path
         d="m 8.7545226,178.82796 h 0.4445 v 3.42265 h -0.4445 z"
         style="font-style:normal;font-variant:normal;font-weight:normal;font-stretch:normal;font-size:4.93888903px;font-family:'Ubuntu Condensed';-inkscape-font-specification:'Ubuntu Condensed, Normal';font-variant-ligatures:normal;font-variant-caps:normal;font-variant-numeric:normal;font-feature-settings:normal;text-align:center;writing-mode:lr-tb;text-anchor:middle;fill:#b4b4b4;fill-opacity:1;stroke-width:0.26458332"
         id="path993"
         inkscape:connector-curvature="0" />
      <path
         d="m 11.129202,182.32469 q -0.602544,0 -0.923572,-0.44944 -0.3210279,-0.44944 -0.3210279,-1.38783 0,-0.47907 0.0889,-0.80997 0.093839,-0.33091 0.2568219,-0.53834 0.162984,-0.20744 0.385234,-0.29634 0.22225,-0.0938 0.484011,-0.0938 0.217311,0 0.404989,0.0593 0.187677,0.0543 0.306211,0.13829 l -0.13335,0.37042 q -0.118534,-0.079 -0.256822,-0.12841 -0.13335,-0.0494 -0.31115,-0.0494 -0.395112,0 -0.572912,0.3309 -0.1778,0.32597 -0.1778,1.01741 0,0.69639 0.187678,1.07174 0.187678,0.37536 0.612422,0.37536 0.202495,0 0.325967,-0.0494 0.128411,-0.0494 0.246945,-0.12841 l 0.123472,0.35066 q -0.113595,0.0889 -0.301272,0.15311 -0.182739,0.0642 -0.424745,0.0642 z"
         style="font-style:normal;font-variant:normal;font-weight:normal;font-stretch:normal;font-size:4.93888903px;font-family:'Ubuntu Condensed';-inkscape-font-specification:'Ubuntu Condensed, Normal';font-variant-ligatures:normal;font-variant-caps:normal;font-variant-numeric:normal;font-feature-settings:normal;text-align:center;writing-mode:lr-tb;text-anchor:middle;fill:#b4b4b4;fill-opacity:1;stroke-width:0.26458332"
         id="path995"
         inkscape:connector-curvature="0" />
      <path
         d="m 14.107584,178.82796 v 0.38029 h -0.760589 v 3.04236 h -0.4445 v -3.04236 h -0.760589 v -0.38029 z"
         style="font-style:normal;font-variant:normal;font-weight:normal;font-stretch:normal;font-size:4.93888903px;font-family:'Ubuntu Condensed';-inkscape-font-specification:'Ubuntu Condensed, Normal';font-variant-ligatures:normal;font-variant-caps:normal;font-variant-numeric:normal;font-feature-settings:normal;text-align:center;writing-mode:lr-tb;text-anchor:middle;fill:#b4b4b4;fill-opacity:1;stroke-width:0.26458332"
         id="path997"
         inkscape:connector-curvature="0" />
      <path
         d="m 16.742404,180.54175 q 0,0.40005 -0.07408,0.73096 -0.06914,0.32596 -0.22225,0.56303 -0.148167,0.23213 -0.380295,0.36054 -0.227189,0.12841 -0.538339,0.12841 -0.31115,0 -0.543278,-0.12841 -0.227188,-0.12841 -0.380294,-0.36054 -0.148167,-0.23707 -0.22225,-0.56303 -0.07408,-0.33091 -0.07408,-0.73096 0,-0.40005 0.07408,-0.73095 0.07408,-0.33091 0.22225,-0.56304 0.153106,-0.23706 0.380294,-0.36547 0.232128,-0.13335 0.543278,-0.13335 0.31115,0 0.538339,0.13335 0.232128,0.12841 0.380295,0.36547 0.153105,0.23213 0.22225,0.56304 0.07408,0.3309 0.07408,0.73095 z m -0.474133,0 q 0,-0.31115 -0.03951,-0.56797 -0.03951,-0.25682 -0.128412,-0.43956 -0.0889,-0.18768 -0.232127,-0.2914 -0.138289,-0.10371 -0.340784,-0.10371 -0.202494,0 -0.345722,0.10371 -0.138289,0.10372 -0.227189,0.2914 -0.0889,0.18274 -0.13335,0.43956 -0.03951,0.25682 -0.03951,0.56797 0,0.31115 0.03951,0.56797 0.04445,0.25683 0.13335,0.43957 0.0889,0.18273 0.227189,0.28645 0.143228,0.0988 0.345722,0.0988 0.202495,0 0.340784,-0.0988 0.143227,-0.10372 0.232127,-0.28645 0.0889,-0.18274 0.128412,-0.43957 0.03951,-0.25682 0.03951,-0.56797 z"
         style="font-style:normal;font-variant:normal;font-weight:normal;font-stretch:normal;font-size:4.93888903px;font-family:'Ubuntu Condensed';-inkscape-font-specification:'Ubuntu Condensed, Normal';font-variant-ligatures:normal;font-variant-caps:normal;font-variant-numeric:normal;font-feature-settings:normal;text-align:center;writing-mode:lr-tb;text-anchor:middle;fill:#b4b4b4;fill-opacity:1;stroke-width:0.26458332"
         id="path999"
         inkscape:connector-curvature="0" />
      <path
         d="m 17.436164,178.87735 q 0.345722,-0.084 0.66675,-0.084 0.256822,0 0.464255,0.0593 0.207434,0.0593 0.3556,0.18768 0.148167,0.12841 0.227189,0.33091 0.08396,0.20249 0.08396,0.48895 0,0.3556 -0.138289,0.57785 -0.13335,0.21731 -0.365477,0.3309 0.05927,0.0988 0.148166,0.27164 0.09384,0.16792 0.187678,0.37536 0.09878,0.20249 0.187678,0.4198 0.09384,0.21731 0.158044,0.41487 h -0.4445 q -0.05433,-0.14817 -0.138289,-0.33585 -0.07902,-0.18767 -0.167922,-0.37041 -0.0889,-0.18768 -0.1778,-0.3556 -0.0889,-0.17286 -0.158044,-0.2914 -0.07902,0.01 -0.162984,0.0148 -0.08396,0.005 -0.167922,0.005 h -0.123472 v 1.3335 h -0.434622 z m 0.434622,1.67428 h 0.187678 q 0.340783,0 0.523522,-0.15311 0.182739,-0.15804 0.182739,-0.53833 0,-0.19262 -0.04939,-0.32103 -0.04445,-0.13335 -0.13335,-0.20744 -0.08396,-0.079 -0.207433,-0.11359 -0.118534,-0.0346 -0.2667,-0.0346 -0.128412,0 -0.237067,0.0148 z"
         style="font-style:normal;font-variant:normal;font-weight:normal;font-stretch:normal;font-size:4.93888903px;font-family:'Ubuntu Condensed';-inkscape-font-specification:'Ubuntu Condensed, Normal';font-variant-ligatures:normal;font-variant-caps:normal;font-variant-numeric:normal;font-feature-settings:normal;text-align:center;writing-mode:lr-tb;text-anchor:middle;fill:#b4b4b4;fill-opacity:1;stroke-width:0.26458332"
         id="path1001"
         inkscape:connector-curvature="0" />
    </g>
    <g
       aria-label="A"
       style="font-style:normal;font-variant:normal;font-weight:normal;font-stretch:normal;font-size:4.93888855px;line-height:1.25;font-family:FreeSans;-inkscape-font-specification:'FreeSans, Normal';font-variant-ligatures:normal;font-variant-caps:normal;font-variant-numeric:normal;text-align:start;letter-spacing:0px;word-spacing:0px;writing-mode:lr-tb;text-anchor:start;fill:#000000;fill-opacity:1;stroke:none;stroke-width:0.26458332"
       id="text904">
      <path
         d="m 7.5487303,190.93875 q 0.0762,0.23812 0.149225,0.4826 0.0762,0.2413 0.14605,0.508 0.073025,0.2667 0.142875,0.56515 0.073025,0.29845 0.14605,0.64452 h -0.28575 q -0.0254,-0.14287 -0.053975,-0.28257 -0.0254,-0.1397 -0.053975,-0.2794 h -0.69215 q -0.03175,0.1397 -0.05715,0.2794 -0.0254,0.1397 -0.0508,0.28257 h -0.276225 q 0.06985,-0.34607 0.142875,-0.64452 0.073025,-0.29845 0.142875,-0.56515 0.073025,-0.2667 0.14605,-0.508 0.0762,-0.24448 0.1524,-0.4826 z m -0.155575,0.32385 q -0.079375,0.26352 -0.1524,0.53022 -0.073025,0.2667 -0.1397,0.5461 h 0.581025 q -0.0635,-0.2794 -0.136525,-0.5461 -0.073025,-0.2667 -0.1524,-0.53022 z"
         style="font-style:normal;font-variant:normal;font-weight:normal;font-stretch:normal;font-size:3.17499995px;font-family:'Ubuntu Condensed';-inkscape-font-specification:'Ubuntu Condensed, Normal';font-variant-ligatures:normal;font-variant-caps:normal;font-variant-numeric:normal;font-feature-settings:normal;text-align:start;writing-mode:lr-tb;text-anchor:start;fill:#b4b4b4;fill-opacity:1;stroke-width:0.26458332"
         id="path957"
         inkscape:connector-curvature="0" />
    </g>
    <g
       aria-label="PHASE"
       style="font-style:normal;font-variant:normal;font-weight:normal;font-stretch:normal;font-size:4.93888855px;line-height:1.25;font-family:FreeSans;-inkscape-font-specification:'FreeSans, Normal';font-variant-ligatures:normal;font-variant-caps:normal;font-variant-numeric:normal;text-align:start;letter-spacing:0px;word-spacing:0px;writing-mode:lr-tb;text-anchor:start;fill:#000000;fill-opacity:1;stroke:none;stroke-width:0.26458332"
       id="text908">
      <path
         d="m 3.7441132,208.68867 q 0.22225,-0.054 0.434975,-0.054 0.1651,0 0.29845,0.0413 0.136525,0.0381 0.231775,0.12382 0.098425,0.0825 0.149225,0.2159 0.053975,0.13335 0.053975,0.32068 0,0.1905 -0.053975,0.32702 -0.053975,0.13335 -0.1524,0.21908 -0.098425,0.0825 -0.238125,0.12065 -0.136525,0.0381 -0.3048,0.0381 h -0.13335 v 0.81597 h -0.28575 z m 0.28575,1.10172 h 0.1143 q 0.10795,0 0.193675,-0.0222 0.0889,-0.0254 0.149225,-0.0794 0.060325,-0.054 0.092075,-0.1397 0.03175,-0.0857 0.03175,-0.21272 0,-0.127 -0.03175,-0.21273 -0.03175,-0.0889 -0.0889,-0.1397 -0.053975,-0.054 -0.13335,-0.0762 -0.079375,-0.0222 -0.174625,-0.0222 -0.08255,0 -0.1524,0.01 z"
         style="font-style:normal;font-variant:normal;font-weight:normal;font-stretch:normal;font-size:3.17499995px;font-family:'Ubuntu Condensed';-inkscape-font-specification:'Ubuntu Condensed, Normal';font-variant-ligatures:normal;font-variant-caps:normal;font-variant-numeric:normal;font-feature-settings:normal;text-align:start;writing-mode:lr-tb;text-anchor:start;fill:#b4b4b4;fill-opacity:1;stroke-width:0.26458332"
         id="path960"
         inkscape:connector-curvature="0" />
      <path
         d="m 6.2916537,208.65692 h 0.28575 v 2.20027 h -0.28575 v -1.02235 h -0.7239 v 1.02235 h -0.28575 v -2.20027 h 0.28575 v 0.93027 h 0.7239 z"
         style="font-style:normal;font-variant:normal;font-weight:normal;font-stretch:normal;font-size:3.17499995px;font-family:'Ubuntu Condensed';-inkscape-font-specification:'Ubuntu Condensed, Normal';font-variant-ligatures:normal;font-variant-caps:normal;font-variant-numeric:normal;font-feature-settings:normal;text-align:start;writing-mode:lr-tb;text-anchor:start;fill:#b4b4b4;fill-opacity:1;stroke-width:0.26458332"
         id="path962"
         inkscape:connector-curvature="0" />
      <path
         d="m 7.7939743,208.65692 q 0.0762,0.23812 0.149225,0.4826 0.0762,0.2413 0.14605,0.508 0.073025,0.2667 0.142875,0.56515 0.073025,0.29845 0.14605,0.64452 h -0.28575 q -0.0254,-0.14287 -0.053975,-0.28257 -0.0254,-0.1397 -0.053975,-0.2794 h -0.69215 q -0.03175,0.1397 -0.05715,0.2794 -0.0254,0.1397 -0.0508,0.28257 h -0.276225 q 0.06985,-0.34607 0.142875,-0.64452 0.073025,-0.29845 0.142875,-0.56515 0.073025,-0.2667 0.14605,-0.508 0.0762,-0.24448 0.1524,-0.4826 z m -0.155575,0.32385 q -0.079375,0.26352 -0.1524,0.53022 -0.073025,0.2667 -0.1397,0.5461 h 0.581025 q -0.0635,-0.2794 -0.136525,-0.5461 -0.073025,-0.2667 -0.1524,-0.53022 z"
         style="font-style:normal;font-variant:normal;font-weight:normal;font-stretch:normal;font-size:3.17499995px;font-family:'Ubuntu Condensed';-inkscape-font-specification:'Ubuntu Condensed, Normal';font-variant-ligatures:normal;font-variant-caps:normal;font-variant-numeric:normal;font-feature-settings:normal;text-align:start;writing-mode:lr-tb;text-anchor:start;fill:#b4b4b4;fill-opacity:1;stroke-width:0.26458332"
         id="path964"
         inkscape:connector-curvature="0" />
      <path
         d="m 9.0153073,210.66034 q 0.17145,0 0.263525,-0.0952 0.09525,-0.0952 0.09525,-0.25717 0,-0.0857 -0.028575,-0.1524 -0.028575,-0.0667 -0.0762,-0.12065 -0.04445,-0.054 -0.104775,-0.0984 -0.060325,-0.0445 -0.123825,-0.0889 -0.073025,-0.0508 -0.1524,-0.10795 -0.079375,-0.0571 -0.14605,-0.13335 -0.0635,-0.0762 -0.104775,-0.1778 -0.041275,-0.1016 -0.041275,-0.23812 0,-0.13335 0.04445,-0.2413 0.047625,-0.10795 0.127,-0.18415 0.08255,-0.0762 0.193675,-0.11748 0.1143,-0.0413 0.244475,-0.0413 0.127,0 0.23495,0.0317 0.10795,0.0318 0.180975,0.0762 l -0.0889,0.22542 q -0.066675,-0.0445 -0.14605,-0.0667 -0.0762,-0.0254 -0.161925,-0.0254 -0.155575,0 -0.250825,0.0857 -0.092075,0.0825 -0.092075,0.24448 0,0.0889 0.028575,0.15557 0.03175,0.0667 0.079375,0.12065 0.0508,0.054 0.1143,0.0984 0.066675,0.0445 0.1397,0.0921 0.073025,0.0476 0.149225,0.10478 0.0762,0.0572 0.136525,0.13335 0.0635,0.073 0.1016,0.17462 0.041275,0.0984 0.041275,0.23495 0,0.12383 -0.0381,0.23495 -0.0381,0.11113 -0.12065,0.19685 -0.079375,0.0825 -0.2032,0.13335 -0.12065,0.0476 -0.28575,0.0476 -0.1524,0 -0.2667,-0.0349 -0.1143,-0.0349 -0.2032,-0.0921 l 0.0889,-0.2286 q 0.08255,0.0508 0.168275,0.0825 0.0889,0.0286 0.2032,0.0286 z"
         style="font-style:normal;font-variant:normal;font-weight:normal;font-stretch:normal;font-size:3.17499995px;font-family:'Ubuntu Condensed';-inkscape-font-specification:'Ubuntu Condensed, Normal';font-variant-ligatures:normal;font-variant-caps:normal;font-variant-numeric:normal;font-feature-settings:normal;text-align:start;writing-mode:lr-tb;text-anchor:start;fill:#b4b4b4;fill-opacity:1;stroke-width:0.26458332"
         id="path966"
         inkscape:connector-curvature="0" />
      <path
         d="m 10.013498,210.85719 v -2.20027 h 0.987425 v 0.24447 h -0.701675 v 0.68263 h 0.635 v 0.23812 h -0.635 v 0.79058 h 0.752475 v 0.24447 z"
         style="font-style:normal;font-variant:normal;font-weight:normal;font-stretch:normal;font-size:3.17499995px;font-family:'Ubuntu Condensed';-inkscape-font-specification:'Ubuntu Condensed, Normal';font-variant-ligatures:normal;font-variant-caps:normal;font-variant-numeric:normal;font-feature-settings:normal;text-align:start;writing-mode:lr-tb;text-anchor:start;fill:#b4b4b4;fill-opacity:1;stroke-width:0.26458332"
         id="path968"
         inkscape:connector-curvature="0" />
    </g>
    <g
       aria-label="WRITE"
       style="font-style:normal;font-variant:normal;font-weight:normal;font-stretch:normal;font-size:4.93888855px;line-height:1.25;font-family:FreeSans;-inkscape-font-specification:'FreeSans, Normal';font-variant-ligatures:normal;font-variant-caps:normal;font-variant-numeric:normal;text-align:start;letter-spacing:0px;word-spacing:0px;writing-mode:lr-tb;text-anchor:start;fill:#000000;fill-opacity:1;stroke:none;stroke-width:0.26458332"
       id="text912">
      <path
         d="m 15.631941,208.96489 q 0.04128,0.1905 0.0889,0.40323 0.04763,0.21272 0.09843,0.42227 0.05397,0.20955 0.10795,0.4064 0.05398,0.19685 0.1016,0.35878 0.0381,-0.1778 0.07303,-0.3937 0.03493,-0.21908 0.06668,-0.4572 0.03493,-0.23813 0.0635,-0.49213 0.02858,-0.254 0.04763,-0.508 h 0.2794 q -0.07303,0.63818 -0.1651,1.17475 -0.0889,0.53658 -0.20955,1.02553 h -0.288925 q -0.04763,-0.15558 -0.104775,-0.34608 -0.05398,-0.1905 -0.10795,-0.3937 -0.05397,-0.20637 -0.104775,-0.41592 -0.0508,-0.20955 -0.09207,-0.4064 -0.04128,0.19685 -0.09208,0.4064 -0.0508,0.20955 -0.104775,0.41592 -0.05397,0.2032 -0.111125,0.3937 -0.05397,0.1905 -0.1016,0.34608 h -0.288925 q -0.12065,-0.48895 -0.212725,-1.02553 -0.0889,-0.53657 -0.161925,-1.17475 h 0.288925 q 0.01905,0.254 0.04763,0.508 0.02858,0.25083 0.06033,0.49213 0.03492,0.23812 0.06985,0.4572 0.03492,0.2159 0.07302,0.3937 0.04763,-0.16193 0.1016,-0.35878 0.05398,-0.19685 0.104775,-0.4064 0.05397,-0.20955 0.1016,-0.42227 0.04763,-0.21273 0.0889,-0.40323 z"
         style="font-style:normal;font-variant:normal;font-weight:normal;font-stretch:normal;font-size:3.17499995px;font-family:'Ubuntu Condensed';-inkscape-font-specification:'Ubuntu Condensed, Normal';font-variant-ligatures:normal;font-variant-caps:normal;font-variant-numeric:normal;font-feature-settings:normal;text-align:start;writing-mode:lr-tb;text-anchor:start;fill:#b4b4b4;fill-opacity:1;stroke-width:0.26458332"
         id="path971"
         inkscape:connector-curvature="0" />
      <path
         d="m 16.952294,208.73629 q 0.22225,-0.054 0.428625,-0.054 0.1651,0 0.29845,0.0381 0.13335,0.0381 0.2286,0.12065 0.09525,0.0825 0.14605,0.21272 0.05398,0.13018 0.05398,0.31433 0,0.2286 -0.0889,0.37147 -0.08573,0.1397 -0.23495,0.21273 0.0381,0.0635 0.09525,0.17462 0.06032,0.10795 0.12065,0.2413 0.0635,0.13018 0.12065,0.26988 0.06032,0.1397 0.1016,0.2667 h -0.28575 q -0.03493,-0.0952 -0.0889,-0.2159 -0.0508,-0.12065 -0.10795,-0.23813 -0.05715,-0.12065 -0.1143,-0.2286 -0.05715,-0.11112 -0.1016,-0.18732 -0.0508,0.006 -0.104775,0.01 -0.05397,0.003 -0.10795,0.003 h -0.07937 v 0.85725 h -0.2794 z m 0.2794,1.07633 h 0.12065 q 0.219075,0 0.33655,-0.0984 0.117475,-0.1016 0.117475,-0.34607 0,-0.12383 -0.03175,-0.20638 -0.02858,-0.0857 -0.08573,-0.13335 -0.05398,-0.0508 -0.13335,-0.073 -0.0762,-0.0222 -0.17145,-0.0222 -0.08255,0 -0.1524,0.01 z"
         style="font-style:normal;font-variant:normal;font-weight:normal;font-stretch:normal;font-size:3.17499995px;font-family:'Ubuntu Condensed';-inkscape-font-specification:'Ubuntu Condensed, Normal';font-variant-ligatures:normal;font-variant-caps:normal;font-variant-numeric:normal;font-feature-settings:normal;text-align:start;writing-mode:lr-tb;text-anchor:start;fill:#b4b4b4;fill-opacity:1;stroke-width:0.26458332"
         id="path973"
         inkscape:connector-curvature="0" />
      <path
         d="m 18.583203,208.70454 h 0.28575 v 2.20028 h -0.28575 z"
         style="font-style:normal;font-variant:normal;font-weight:normal;font-stretch:normal;font-size:3.17499995px;font-family:'Ubuntu Condensed';-inkscape-font-specification:'Ubuntu Condensed, Normal';font-variant-ligatures:normal;font-variant-caps:normal;font-variant-numeric:normal;font-feature-settings:normal;text-align:start;writing-mode:lr-tb;text-anchor:start;fill:#b4b4b4;fill-opacity:1;stroke-width:0.26458332"
         id="path975"
         inkscape:connector-curvature="0" />
      <path
         d="m 20.443157,208.70454 v 0.24448 h -0.48895 v 1.9558 h -0.28575 v -1.9558 h -0.48895 v -0.24448 z"
         style="font-style:normal;font-variant:normal;font-weight:normal;font-stretch:normal;font-size:3.17499995px;font-family:'Ubuntu Condensed';-inkscape-font-specification:'Ubuntu Condensed, Normal';font-variant-ligatures:normal;font-variant-caps:normal;font-variant-numeric:normal;font-feature-settings:normal;text-align:start;writing-mode:lr-tb;text-anchor:start;fill:#b4b4b4;fill-opacity:1;stroke-width:0.26458332"
         id="path977"
         inkscape:connector-curvature="0" />
      <path
         d="m 20.753613,210.90482 v -2.20028 h 0.987425 v 0.24448 h -0.701675 v 0.68262 h 0.635 v 0.23813 h -0.635 v 0.79057 h 0.752475 v 0.24448 z"
         style="font-style:normal;font-variant:normal;font-weight:normal;font-stretch:normal;font-size:3.17499995px;font-family:'Ubuntu Condensed';-inkscape-font-specification:'Ubuntu Condensed, Normal';font-variant-ligatures:normal;font-variant-caps:normal;font-variant-numeric:normal;font-feature-settings:normal;text-align:start;writing-mode:lr-tb;text-anchor:start;fill:#b4b4b4;fill-opacity:1;stroke-width:0.26458332"
         id="path980"
         inkscape:connector-curvature="0" />
    </g>
    <g
       aria-label="PHASE"
       style="font-style:normal;font-variant:normal;font-weight:normal;font-stretch:normal;font-size:4.93888855px;line-height:1.25;font-family:FreeSans;-inkscape-font-specification:'FreeSans, Normal';font-variant-ligatures:normal;font-variant-caps:normal;font-variant-numeric:normal;text-align:start;letter-spacing:0px;word-spacing:0px;writing-mode:lr-tb;text-anchor:start;fill:#000000;fill-opacity:1;stroke:none;stroke-width:0.26458332"
       id="text916">
      <path
         d="m 3.7392046,255.31182 q 0.22225,-0.054 0.434975,-0.054 0.1651,0 0.29845,0.0413 0.136525,0.0381 0.231775,0.12383 0.098425,0.0826 0.149225,0.2159 0.053975,0.13335 0.053975,0.32067 0,0.1905 -0.053975,0.32703 -0.053975,0.13335 -0.1524,0.21907 -0.098425,0.0825 -0.238125,0.12065 -0.136525,0.0381 -0.3048,0.0381 h -0.13335 v 0.81598 h -0.28575 z m 0.28575,1.10173 h 0.1143 q 0.10795,0 0.193675,-0.0222 0.0889,-0.0254 0.149225,-0.0794 0.060325,-0.054 0.092075,-0.1397 0.03175,-0.0857 0.03175,-0.21273 0,-0.127 -0.03175,-0.21272 -0.03175,-0.0889 -0.0889,-0.1397 -0.053975,-0.054 -0.13335,-0.0762 -0.079375,-0.0222 -0.174625,-0.0222 -0.08255,0 -0.1524,0.01 z"
         style="font-style:normal;font-variant:normal;font-weight:normal;font-stretch:normal;font-size:3.17499995px;font-family:'Ubuntu Condensed';-inkscape-font-specification:'Ubuntu Condensed, Normal';font-variant-ligatures:normal;font-variant-caps:normal;font-variant-numeric:normal;font-feature-settings:normal;text-align:start;writing-mode:lr-tb;text-anchor:start;fill:#b4b4b4;fill-opacity:1;stroke-width:0.26458332"
         id="path1002"
         inkscape:connector-curvature="0" />
      <path
         d="m 6.2867452,255.28007 h 0.2857499 v 2.20028 H 6.2867452 V 256.458 h -0.7239 v 1.02235 h -0.28575 v -2.20028 h 0.28575 v 0.93028 h 0.7239 z"
         style="font-style:normal;font-variant:normal;font-weight:normal;font-stretch:normal;font-size:3.17499995px;font-family:'Ubuntu Condensed';-inkscape-font-specification:'Ubuntu Condensed, Normal';font-variant-ligatures:normal;font-variant-caps:normal;font-variant-numeric:normal;font-feature-settings:normal;text-align:start;writing-mode:lr-tb;text-anchor:start;fill:#b4b4b4;fill-opacity:1;stroke-width:0.26458332"
         id="path1004"
         inkscape:connector-curvature="0" />
      <path
         d="m 7.7890657,255.28007 q 0.0762,0.23813 0.149225,0.4826 0.0762,0.2413 0.14605,0.508 0.073025,0.2667 0.142875,0.56515 0.073025,0.29845 0.14605,0.64453 h -0.28575 q -0.0254,-0.14288 -0.053975,-0.28258 -0.0254,-0.1397 -0.053975,-0.2794 h -0.69215 q -0.03175,0.1397 -0.05715,0.2794 -0.0254,0.1397 -0.0508,0.28258 H 6.9032408 q 0.06985,-0.34608 0.142875,-0.64453 0.073025,-0.29845 0.1428749,-0.56515 0.073025,-0.2667 0.14605,-0.508 0.0762,-0.24447 0.1524,-0.4826 z m -0.155575,0.32385 q -0.079375,0.26353 -0.1524,0.53023 -0.073025,0.2667 -0.1397,0.5461 h 0.581025 q -0.0635,-0.2794 -0.136525,-0.5461 -0.073025,-0.2667 -0.1524,-0.53023 z"
         style="font-style:normal;font-variant:normal;font-weight:normal;font-stretch:normal;font-size:3.17499995px;font-family:'Ubuntu Condensed';-inkscape-font-specification:'Ubuntu Condensed, Normal';font-variant-ligatures:normal;font-variant-caps:normal;font-variant-numeric:normal;font-feature-settings:normal;text-align:start;writing-mode:lr-tb;text-anchor:start;fill:#b4b4b4;fill-opacity:1;stroke-width:0.26458332"
         id="path1006"
         inkscape:connector-curvature="0" />
      <path
         d="m 9.0103988,257.2835 q 0.17145,0 0.263525,-0.0953 0.09525,-0.0952 0.09525,-0.25718 0,-0.0857 -0.028575,-0.1524 -0.028575,-0.0667 -0.0762,-0.12065 -0.04445,-0.054 -0.104775,-0.0984 -0.060325,-0.0444 -0.123825,-0.0889 -0.073025,-0.0508 -0.1524,-0.10795 -0.079375,-0.0571 -0.14605,-0.13335 -0.0635,-0.0762 -0.104775,-0.1778 -0.041275,-0.1016 -0.041275,-0.23813 0,-0.13335 0.04445,-0.2413 0.047625,-0.10795 0.127,-0.18415 0.08255,-0.0762 0.193675,-0.11747 0.1143,-0.0413 0.244475,-0.0413 0.127,0 0.23495,0.0317 0.1079499,0.0317 0.1809749,0.0762 l -0.0889,0.22543 q -0.066675,-0.0444 -0.1460499,-0.0667 -0.0762,-0.0254 -0.161925,-0.0254 -0.155575,0 -0.250825,0.0857 -0.092075,0.0825 -0.092075,0.24447 0,0.0889 0.028575,0.15558 0.03175,0.0667 0.079375,0.12065 0.0508,0.054 0.1143,0.0984 0.066675,0.0445 0.1397,0.0921 0.073025,0.0476 0.149225,0.10477 0.0762,0.0571 0.1365249,0.13335 0.0635,0.073 0.1016,0.17463 0.041275,0.0984 0.041275,0.23495 0,0.12382 -0.0381,0.23495 -0.0381,0.11112 -0.12065,0.19685 -0.079375,0.0826 -0.2031999,0.13335 -0.12065,0.0476 -0.28575,0.0476 -0.1524,0 -0.2667,-0.0349 -0.1143,-0.0349 -0.2032,-0.0921 l 0.0889,-0.2286 q 0.08255,0.0508 0.168275,0.0826 0.0889,0.0286 0.2032,0.0286 z"
         style="font-style:normal;font-variant:normal;font-weight:normal;font-stretch:normal;font-size:3.17499995px;font-family:'Ubuntu Condensed';-inkscape-font-specification:'Ubuntu Condensed, Normal';font-variant-ligatures:normal;font-variant-caps:normal;font-variant-numeric:normal;font-feature-settings:normal;text-align:start;writing-mode:lr-tb;text-anchor:start;fill:#b4b4b4;fill-opacity:1;stroke-width:0.26458332"
         id="path1008"
         inkscape:connector-curvature="0" />
      <path
         d="m 10.008589,257.48035 v -2.20028 h 0.987425 v 0.24448 h -0.701675 v 0.68262 h 0.635 v 0.23813 h -0.635 v 0.79057 h 0.752475 v 0.24448 z"
         style="font-style:normal;font-variant:normal;font-weight:normal;font-stretch:normal;font-size:3.17499995px;font-family:'Ubuntu Condensed';-inkscape-font-specification:'Ubuntu Condensed, Normal';font-variant-ligatures:normal;font-variant-caps:normal;font-variant-numeric:normal;font-feature-settings:normal;text-align:start;writing-mode:lr-tb;text-anchor:start;fill:#b4b4b4;fill-opacity:1;stroke-width:0.26458332"
         id="path1010"
         inkscape:connector-curvature="0" />
    </g>
    <g
       aria-label="WRITE"
       style="font-style:normal;font-variant:normal;font-weight:normal;font-stretch:normal;font-size:4.93888855px;line-height:1.25;font-family:FreeSans;-inkscape-font-specification:'FreeSans, Normal';font-variant-ligatures:normal;font-variant-caps:normal;font-variant-numeric:normal;text-align:start;letter-spacing:0px;word-spacing:0px;writing-mode:lr-tb;text-anchor:start;fill:#000000;fill-opacity:1;stroke:none;stroke-width:0.26458332"
       id="text920">
      <path
         d="m 15.627033,255.58806 q 0.04127,0.1905 0.0889,0.40322 0.04763,0.21273 0.09843,0.42228 0.05397,0.20955 0.10795,0.4064 0.05398,0.19685 0.1016,0.35877 0.0381,-0.1778 0.07303,-0.3937 0.03493,-0.21907 0.06668,-0.4572 0.03493,-0.23812 0.0635,-0.49212 0.02858,-0.254 0.04763,-0.508 h 0.2794 q -0.07303,0.63817 -0.1651,1.17475 -0.0889,0.53657 -0.20955,1.02552 h -0.288925 q -0.04763,-0.15557 -0.104775,-0.34607 -0.05398,-0.1905 -0.10795,-0.3937 -0.05397,-0.20638 -0.104775,-0.41593 -0.0508,-0.20955 -0.09207,-0.4064 -0.04128,0.19685 -0.09207,0.4064 -0.0508,0.20955 -0.104775,0.41593 -0.05398,0.2032 -0.111125,0.3937 -0.05397,0.1905 -0.1016,0.34607 h -0.288925 q -0.12065,-0.48895 -0.212725,-1.02552 -0.0889,-0.53658 -0.161925,-1.17475 h 0.288925 q 0.01905,0.254 0.04762,0.508 0.02858,0.25082 0.06033,0.49212 0.03492,0.23813 0.06985,0.4572 0.03492,0.2159 0.07302,0.3937 0.04763,-0.16192 0.1016,-0.35877 0.05398,-0.19685 0.104775,-0.4064 0.05398,-0.20955 0.1016,-0.42228 0.04763,-0.21272 0.0889,-0.40322 z"
         style="font-style:normal;font-variant:normal;font-weight:normal;font-stretch:normal;font-size:3.17499995px;font-family:'Ubuntu Condensed';-inkscape-font-specification:'Ubuntu Condensed, Normal';font-variant-ligatures:normal;font-variant-caps:normal;font-variant-numeric:normal;font-feature-settings:normal;text-align:start;writing-mode:lr-tb;text-anchor:start;fill:#b4b4b4;fill-opacity:1;stroke-width:0.26458332"
         id="path1013"
         inkscape:connector-curvature="0" />
      <path
         d="m 16.947387,255.35946 q 0.22225,-0.054 0.428625,-0.054 0.1651,0 0.29845,0.0381 0.13335,0.0381 0.2286,0.12065 0.09525,0.0826 0.14605,0.21273 0.05397,0.13017 0.05397,0.31432 0,0.2286 -0.0889,0.37148 -0.08573,0.1397 -0.23495,0.21272 0.0381,0.0635 0.09525,0.17463 0.06033,0.10795 0.12065,0.2413 0.0635,0.13017 0.12065,0.26987 0.06032,0.1397 0.1016,0.2667 h -0.28575 q -0.03492,-0.0953 -0.0889,-0.2159 -0.0508,-0.12065 -0.10795,-0.23812 -0.05715,-0.12065 -0.1143,-0.2286 -0.05715,-0.11113 -0.1016,-0.18733 -0.0508,0.006 -0.104775,0.01 -0.05397,0.003 -0.10795,0.003 h -0.07937 v 0.85725 h -0.2794 z m 0.2794,1.07632 h 0.12065 q 0.219075,0 0.33655,-0.0984 0.117475,-0.1016 0.117475,-0.34608 0,-0.12382 -0.03175,-0.20637 -0.02858,-0.0857 -0.08573,-0.13335 -0.05397,-0.0508 -0.13335,-0.073 -0.0762,-0.0222 -0.17145,-0.0222 -0.08255,0 -0.1524,0.01 z"
         style="font-style:normal;font-variant:normal;font-weight:normal;font-stretch:normal;font-size:3.17499995px;font-family:'Ubuntu Condensed';-inkscape-font-specification:'Ubuntu Condensed, Normal';font-variant-ligatures:normal;font-variant-caps:normal;font-variant-numeric:normal;font-feature-settings:normal;text-align:start;writing-mode:lr-tb;text-anchor:start;fill:#b4b4b4;fill-opacity:1;stroke-width:0.26458332"
         id="path1015"
         inkscape:connector-curvature="0" />
      <path
         d="m 18.578295,255.32771 h 0.28575 v 2.20027 h -0.28575 z"
         style="font-style:normal;font-variant:normal;font-weight:normal;font-stretch:normal;font-size:3.17499995px;font-family:'Ubuntu Condensed';-inkscape-font-specification:'Ubuntu Condensed, Normal';font-variant-ligatures:normal;font-variant-caps:normal;font-variant-numeric:normal;font-feature-settings:normal;text-align:start;writing-mode:lr-tb;text-anchor:start;fill:#b4b4b4;fill-opacity:1;stroke-width:0.26458332"
         id="path1017"
         inkscape:connector-curvature="0" />
      <path
         d="m 20.438249,255.32771 v 0.24447 h -0.48895 v 1.9558 h -0.28575 v -1.9558 h -0.48895 v -0.24447 z"
         style="font-style:normal;font-variant:normal;font-weight:normal;font-stretch:normal;font-size:3.17499995px;font-family:'Ubuntu Condensed';-inkscape-font-specification:'Ubuntu Condensed, Normal';font-variant-ligatures:normal;font-variant-caps:normal;font-variant-numeric:normal;font-feature-settings:normal;text-align:start;writing-mode:lr-tb;text-anchor:start;fill:#b4b4b4;fill-opacity:1;stroke-width:0.26458332"
         id="path1019"
         inkscape:connector-curvature="0" />
      <path
         d="m 20.748705,257.52798 v -2.20027 h 0.987425 v 0.24447 h -0.701675 v 0.68263 h 0.635 v 0.23812 h -0.635 v 0.79058 h 0.752475 v 0.24447 z"
         style="font-style:normal;font-variant:normal;font-weight:normal;font-stretch:normal;font-size:3.17499995px;font-family:'Ubuntu Condensed';-inkscape-font-specification:'Ubuntu Condensed, Normal';font-variant-ligatures:normal;font-variant-caps:normal;font-variant-numeric:normal;font-feature-settings:normal;text-align:start;writing-mode:lr-tb;text-anchor:start;fill:#b4b4b4;fill-opacity:1;stroke-width:0.26458332"
         id="path1021"
         inkscape:connector-curvature="0" />
    </g>
    <g
       aria-label="IN
"
       style="font-style:normal;font-variant:normal;font-weight:normal;font-stretch:normal;font-size:4.93888855px;line-height:1.25;font-family:FreeSans;-inkscape-font-specification:'FreeSans, Normal';font-variant-ligatures:normal;font-variant-caps:normal;font-variant-numeric:normal;text-align:start;letter-spacing:0px;word-spacing:0px;writing-mode:lr-tb;text-anchor:start;fill:#000000;fill-opacity:1;stroke:none;stroke-width:0.26458332"
       id="text924">
      <path
         d="m 6.3280942,273.79713 h 0.28575 v 2.20028 h -0.28575 z"
         style="font-style:normal;font-variant:normal;font-weight:normal;font-stretch:normal;font-size:3.17499995px;font-family:'Ubuntu Condensed';-inkscape-font-specification:'Ubuntu Condensed, Normal';font-variant-ligatures:normal;font-variant-caps:normal;font-variant-numeric:normal;font-feature-settings:normal;text-align:start;writing-mode:lr-tb;text-anchor:start;fill:#b4b4b4;fill-opacity:1;stroke-width:0.26458332"
         id="path1024"
         inkscape:connector-curvature="0" />
      <path
         d="m 8.2261489,275.99741 q -0.0762,-0.18733 -0.174625,-0.40323 -0.09525,-0.21907 -0.2032,-0.43815 -0.104775,-0.22225 -0.2159,-0.43815 -0.111125,-0.21907 -0.219075,-0.4064 v 1.68593 h -0.2667 v -2.20028 h 0.238125 q 0.12065,0.19685 0.231775,0.40323 0.1143,0.20637 0.2159,0.40957 0.1016,0.20003 0.1905,0.39688 0.092075,0.19367 0.168275,0.3683 v -1.57798 h 0.2667 v 2.20028 z"
         style="font-style:normal;font-variant:normal;font-weight:normal;font-stretch:normal;font-size:3.17499995px;font-family:'Ubuntu Condensed';-inkscape-font-specification:'Ubuntu Condensed, Normal';font-variant-ligatures:normal;font-variant-caps:normal;font-variant-numeric:normal;font-feature-settings:normal;text-align:start;writing-mode:lr-tb;text-anchor:start;fill:#b4b4b4;fill-opacity:1;stroke-width:0.26458332"
         id="path1026"
         inkscape:connector-curvature="0" />
    </g>
    <g
       aria-label="OUT"
       style="font-style:normal;font-variant:normal;font-weight:normal;font-stretch:normal;font-size:4.93888855px;line-height:1.25;font-family:FreeSans;-inkscape-font-specification:'FreeSans, Normal';font-variant-ligatures:normal;font-variant-caps:normal;font-variant-numeric:normal;text-align:start;letter-spacing:0px;word-spacing:0px;writing-mode:lr-tb;text-anchor:start;fill:#b4b4b4;fill-opacity:1;stroke:none;stroke-width:0.26458332"
       id="g935"
       transform="translate(-1.4267986,-4.3258025)">
      <g
         aria-label="OUT"
         style="font-style:normal;font-variant:normal;font-weight:normal;font-stretch:normal;font-size:4.93888855px;line-height:1.25;font-family:FreeSans;-inkscape-font-specification:'FreeSans, Normal';font-variant-ligatures:normal;font-variant-caps:normal;font-variant-numeric:normal;text-align:start;letter-spacing:0px;word-spacing:0px;writing-mode:lr-tb;text-anchor:start;fill:#000000;fill-opacity:1;stroke:none;stroke-width:0.07000434"
         id="text939">
        <path
           d="m 18.691859,279.17702 q 0,0.25718 -0.04763,0.4699 -0.04445,0.20955 -0.142875,0.36195 -0.09525,0.14923 -0.244475,0.23178 -0.14605,0.0825 -0.346075,0.0825 -0.200025,0 -0.34925,-0.0825 -0.14605,-0.0826 -0.244475,-0.23178 -0.09525,-0.1524 -0.142875,-0.36195 -0.04763,-0.21272 -0.04763,-0.4699 0,-0.25717 0.04763,-0.4699 0.04763,-0.21272 0.142875,-0.36195 0.09842,-0.1524 0.244475,-0.23495 0.149225,-0.0857 0.34925,-0.0857 0.200025,0 0.346075,0.0857 0.149225,0.0825 0.244475,0.23495 0.09842,0.14923 0.142875,0.36195 0.04763,0.21273 0.04763,0.4699 z m -0.3048,0 q 0,-0.20002 -0.0254,-0.36512 -0.0254,-0.1651 -0.08255,-0.28258 -0.05715,-0.12065 -0.149225,-0.18732 -0.0889,-0.0667 -0.219075,-0.0667 -0.130175,0 -0.22225,0.0667 -0.0889,0.0667 -0.14605,0.18732 -0.05715,0.11748 -0.08573,0.28258 -0.0254,0.1651 -0.0254,0.36512 0,0.20003 0.0254,0.36513 0.02858,0.1651 0.08573,0.28257 0.05715,0.11748 0.14605,0.18415 0.09207,0.0635 0.22225,0.0635 0.130175,0 0.219075,-0.0635 0.09207,-0.0667 0.149225,-0.18415 0.05715,-0.11747 0.08255,-0.28257 0.0254,-0.1651 0.0254,-0.36513 z"
           style="font-style:normal;font-variant:normal;font-weight:normal;font-stretch:normal;font-size:3.17499995px;font-family:'Ubuntu Condensed';-inkscape-font-specification:'Ubuntu Condensed, Normal';font-variant-ligatures:normal;font-variant-caps:normal;font-variant-numeric:normal;font-feature-settings:normal;text-align:start;writing-mode:lr-tb;text-anchor:start;fill:#b4b4b4;fill-opacity:1;stroke-width:0.07000434"
           id="path1029"
           inkscape:connector-curvature="0" />
        <path
           d="m 19.734747,280.3232 q -0.307975,0 -0.46355,-0.17463 -0.1524,-0.17462 -0.1524,-0.55245 v -1.52082 h 0.28575 v 1.49542 q 0,0.25083 0.07302,0.37783 0.07303,0.12382 0.263525,0.12382 0.19685,0 0.2667,-0.127 0.07303,-0.13017 0.07303,-0.37465 v -1.49542 h 0.28575 v 1.52082 q 0,0.37148 -0.15875,0.54928 -0.15875,0.1778 -0.473075,0.1778 z"
           style="font-style:normal;font-variant:normal;font-weight:normal;font-stretch:normal;font-size:3.17499995px;font-family:'Ubuntu Condensed';-inkscape-font-specification:'Ubuntu Condensed, Normal';font-variant-ligatures:normal;font-variant-caps:normal;font-variant-numeric:normal;font-feature-settings:normal;text-align:start;writing-mode:lr-tb;text-anchor:start;fill:#b4b4b4;fill-opacity:1;stroke-width:0.07000434"
           id="path1031"
           inkscape:connector-curvature="0" />
        <path
           d="m 21.921777,278.0753 v 0.24447 h -0.48895 v 1.9558 h -0.28575 v -1.9558 h -0.48895 v -0.24447 z"
           style="font-style:normal;font-variant:normal;font-weight:normal;font-stretch:normal;font-size:3.17499995px;font-family:'Ubuntu Condensed';-inkscape-font-specification:'Ubuntu Condensed, Normal';font-variant-ligatures:normal;font-variant-caps:normal;font-variant-numeric:normal;font-feature-settings:normal;text-align:start;writing-mode:lr-tb;text-anchor:start;fill:#b4b4b4;fill-opacity:1;stroke-width:0.07000434"
           id="path1033"
           inkscape:connector-curvature="0" />
      </g>
    </g>
    <g
       transform="translate(-1.421891,-51.063784)"
       id="g945"
       style="font-style:normal;font-variant:normal;font-weight:normal;font-stretch:normal;font-size:4.93888855px;line-height:1.25;font-family:FreeSans;-inkscape-font-specification:'FreeSans, Normal';font-variant-ligatures:normal;font-variant-caps:normal;font-variant-numeric:normal;text-align:start;letter-spacing:0px;word-spacing:0px;writing-mode:lr-tb;text-anchor:start;fill:#b4b4b4;fill-opacity:1;stroke:none;stroke-width:0.26458332"
       aria-label="OUT">
      <g
         aria-label="OUT"
         style="font-style:normal;font-variant:normal;font-weight:normal;font-stretch:normal;font-size:4.93888855px;line-height:1.25;font-family:FreeSans;-inkscape-font-specification:'FreeSans, Normal';font-variant-ligatures:normal;font-variant-caps:normal;font-variant-numeric:normal;text-align:start;letter-spacing:0px;word-spacing:0px;writing-mode:lr-tb;text-anchor:start;fill:#000000;fill-opacity:1;stroke:none;stroke-width:0.07000434"
         id="text943">
        <path
           d="m 18.691859,279.17702 q 0,0.25718 -0.04763,0.4699 -0.04445,0.20955 -0.142875,0.36195 -0.09525,0.14923 -0.244475,0.23178 -0.14605,0.0825 -0.346075,0.0825 -0.200025,0 -0.34925,-0.0825 -0.14605,-0.0826 -0.244475,-0.23178 -0.09525,-0.1524 -0.142875,-0.36195 -0.04763,-0.21272 -0.04763,-0.4699 0,-0.25717 0.04763,-0.4699 0.04763,-0.21272 0.142875,-0.36195 0.09842,-0.1524 0.244475,-0.23495 0.149225,-0.0857 0.34925,-0.0857 0.200025,0 0.346075,0.0857 0.149225,0.0825 0.244475,0.23495 0.09842,0.14923 0.142875,0.36195 0.04763,0.21273 0.04763,0.4699 z m -0.3048,0 q 0,-0.20002 -0.0254,-0.36512 -0.0254,-0.1651 -0.08255,-0.28258 -0.05715,-0.12065 -0.149225,-0.18732 -0.0889,-0.0667 -0.219075,-0.0667 -0.130175,0 -0.22225,0.0667 -0.0889,0.0667 -0.14605,0.18732 -0.05715,0.11748 -0.08573,0.28258 -0.0254,0.1651 -0.0254,0.36512 0,0.20003 0.0254,0.36513 0.02858,0.1651 0.08573,0.28257 0.05715,0.11748 0.14605,0.18415 0.09207,0.0635 0.22225,0.0635 0.130175,0 0.219075,-0.0635 0.09207,-0.0667 0.149225,-0.18415 0.05715,-0.11747 0.08255,-0.28257 0.0254,-0.1651 0.0254,-0.36513 z"
           style="font-style:normal;font-variant:normal;font-weight:normal;font-stretch:normal;font-size:3.17499995px;font-family:'Ubuntu Condensed';-inkscape-font-specification:'Ubuntu Condensed, Normal';font-variant-ligatures:normal;font-variant-caps:normal;font-variant-numeric:normal;font-feature-settings:normal;text-align:start;writing-mode:lr-tb;text-anchor:start;fill:#b4b4b4;fill-opacity:1;stroke-width:0.07000434"
           id="path990"
           inkscape:connector-curvature="0" />
        <path
           d="m 19.734747,280.3232 q -0.307975,0 -0.46355,-0.17463 -0.1524,-0.17462 -0.1524,-0.55245 v -1.52082 h 0.28575 v 1.49542 q 0,0.25083 0.07302,0.37783 0.07303,0.12382 0.263525,0.12382 0.19685,0 0.2667,-0.127 0.07303,-0.13017 0.07303,-0.37465 v -1.49542 h 0.28575 v 1.52082 q 0,0.37148 -0.15875,0.54928 -0.15875,0.1778 -0.473075,0.1778 z"
           style="font-style:normal;font-variant:normal;font-weight:normal;font-stretch:normal;font-size:3.17499995px;font-family:'Ubuntu Condensed';-inkscape-font-specification:'Ubuntu Condensed, Normal';font-variant-ligatures:normal;font-variant-caps:normal;font-variant-numeric:normal;font-feature-settings:normal;text-align:start;writing-mode:lr-tb;text-anchor:start;fill:#b4b4b4;fill-opacity:1;stroke-width:0.07000434"
           id="path992"
           inkscape:connector-curvature="0" />
        <path
           d="m 21.921777,278.0753 v 0.24447 h -0.48895 v 1.9558 h -0.28575 v -1.9558 h -0.48895 v -0.24447 z"
           style="font-style:normal;font-variant:normal;font-weight:normal;font-stretch:normal;font-size:3.17499995px;font-family:'Ubuntu Condensed';-inkscape-font-specification:'Ubuntu Condensed, Normal';font-variant-ligatures:normal;font-variant-caps:normal;font-variant-numeric:normal;font-feature-settings:normal;text-align:start;writing-mode:lr-tb;text-anchor:start;fill:#b4b4b4;fill-opacity:1;stroke-width:0.07000434"
           id="path994"
           inkscape:connector-curvature="0" />
      </g>
    </g>
    <g
       aria-label="IN
"
       style="font-style:normal;font-variant:normal;font-weight:normal;font-stretch:normal;font-size:4.93888855px;line-height:1.25;font-family:FreeSans;-inkscape-font-specification:'FreeSans, Normal';font-variant-ligatures:normal;font-variant-caps:normal;font-variant-numeric:normal;text-align:start;letter-spacing:0px;word-spacing:0px;writing-mode:lr-tb;text-anchor:start;fill:#000000;fill-opacity:1;stroke:none;stroke-width:0.26458332"
       id="text951">
      <path
         d="m 6.3330028,227.05914 h 0.28575 v 2.20027 h -0.28575 z"
         style="font-style:normal;font-variant:normal;font-weight:normal;font-stretch:normal;font-size:3.17499995px;font-family:'Ubuntu Condensed';-inkscape-font-specification:'Ubuntu Condensed, Normal';font-variant-ligatures:normal;font-variant-caps:normal;font-variant-numeric:normal;font-feature-settings:normal;text-align:start;writing-mode:lr-tb;text-anchor:start;fill:#b4b4b4;fill-opacity:1;stroke-width:0.26458332"
         id="path984"
         inkscape:connector-curvature="0" />
      <path
         d="m 8.2310575,229.25941 q -0.0762,-0.18732 -0.174625,-0.40322 -0.09525,-0.21908 -0.2032,-0.43815 -0.104775,-0.22225 -0.2159,-0.43815 -0.111125,-0.21908 -0.219075,-0.4064 v 1.68592 h -0.2667 v -2.20027 h 0.238125 q 0.12065,0.19685 0.231775,0.40322 0.1143,0.20638 0.2159,0.40958 0.1016,0.20002 0.1905,0.39687 0.092075,0.19368 0.168275,0.3683 v -1.57797 h 0.2667 v 2.20027 z"
         style="font-style:normal;font-variant:normal;font-weight:normal;font-stretch:normal;font-size:3.17499995px;font-family:'Ubuntu Condensed';-inkscape-font-specification:'Ubuntu Condensed, Normal';font-variant-ligatures:normal;font-variant-caps:normal;font-variant-numeric:normal;font-feature-settings:normal;text-align:start;writing-mode:lr-tb;text-anchor:start;fill:#b4b4b4;fill-opacity:1;stroke-width:0.26458332"
         id="path986"
         inkscape:connector-curvature="0" />
    </g>
    <g
       aria-label="B"
       style="font-style:normal;font-variant:normal;font-weight:normal;font-stretch:normal;font-size:4.93888855px;line-height:1.25;font-family:FreeSans;-inkscape-font-specification:'FreeSans, Normal';font-variant-ligatures:normal;font-variant-caps:normal;font-variant-numeric:normal;text-align:start;letter-spacing:0px;word-spacing:0px;writing-mode:lr-tb;text-anchor:start;fill:#000000;fill-opacity:1;stroke:none;stroke-width:0.26458332"
       id="text955">
      <path
         d="m 7.0548718,238.98763 h 0.19685 q 0.3937,0 0.3937,-0.3556 0,-0.11112 -0.034925,-0.18097 -0.03175,-0.073 -0.085725,-0.11113 -0.053975,-0.0413 -0.127,-0.0572 -0.06985,-0.0159 -0.149225,-0.0159 -0.047625,0 -0.098425,0.003 -0.047625,0.003 -0.09525,0.01 z m 0,0.2286 v 0.79375 q 0.060325,0.01 0.117475,0.0159 0.060325,0.006 0.117475,0.006 0.0889,0 0.168275,-0.019 0.079375,-0.019 0.136525,-0.0635 0.060325,-0.0444 0.092075,-0.12065 0.034925,-0.0794 0.034925,-0.19368 0,-0.19685 -0.10795,-0.30797 -0.104775,-0.11113 -0.3302,-0.11113 z m -0.2857499,-1.13347 q 0.111125,-0.0254 0.2254249,-0.0381 0.117475,-0.0159 0.231775,-0.0159 0.142875,0 0.269875,0.0286 0.130175,0.0254 0.2286,0.0921 0.098425,0.0635 0.155575,0.17145 0.060325,0.10478 0.060325,0.26353 0,0.19685 -0.08255,0.32385 -0.08255,0.12382 -0.212725,0.18415 0.161925,0.0635 0.2667,0.19367 0.104775,0.13018 0.104775,0.35878 0,0.17145 -0.05715,0.28892 -0.053975,0.11748 -0.155575,0.19368 -0.1016,0.073 -0.244475,0.10795 -0.1397,0.0317 -0.307975,0.0317 -0.111125,0 -0.231775,-0.0127 -0.12065,-0.0127 -0.2508249,-0.0381 z"
         style="font-style:normal;font-variant:normal;font-weight:normal;font-stretch:normal;font-size:3.17499995px;font-family:'Ubuntu Condensed';-inkscape-font-specification:'Ubuntu Condensed, Normal';font-variant-ligatures:normal;font-variant-caps:normal;font-variant-numeric:normal;font-feature-settings:normal;text-align:start;writing-mode:lr-tb;text-anchor:start;fill:#b4b4b4;fill-opacity:1;stroke-width:0.26458332"
         id="path998"
         inkscape:connector-curvature="0" />
    </g>
  </g>
  <g
     inkscape:groupmode="layer"
     id="layer2"
     inkscape:label="components"
     style="display:none">
    <circle
       inkscape:label="WRITEB"
       r="2.9510982"
       cy="80.143982"
       cx="18.097382"
       id="circle7237-6"
       style="display:inline;opacity:1;fill:#00ff00;fill-opacity:1;stroke:none;stroke-width:0.25;stroke-miterlimit:4;stroke-dasharray:none;stroke-opacity:0.56593407" />
    <circle
       style="display:inline;opacity:1;fill:#00ff00;fill-opacity:1;stroke:none;stroke-width:0.25;stroke-miterlimit:4;stroke-dasharray:none;stroke-opacity:0.56593407"
       id="circle855"
       cx="7.3930092"
       cy="99.422432"
       r="2.9510982"
       inkscape:label="INB" />
    <circle
       inkscape:label="PHASEB"
       r="2.9510982"
       cy="80.143982"
       cx="7.3930092"
       id="circle857"
       style="display:inline;opacity:1;fill:#00ff00;fill-opacity:1;stroke:none;stroke-width:0.25;stroke-miterlimit:4;stroke-dasharray:none;stroke-opacity:0.56593407" />
    <circle
       style="display:inline;opacity:1;fill:#0000ff;fill-opacity:1;stroke:none;stroke-width:0.25;stroke-miterlimit:4;stroke-dasharray:none;stroke-opacity:0.56593407"
       id="path4984-0"
       cx="18.097382"
       cy="99.422432"
       r="2.9510982"
       inkscape:label="OUTB" />
    <circle
       style="display:inline;opacity:1;fill:#ff00ff;fill-opacity:0.99572646;stroke:none;stroke-width:0.25;stroke-miterlimit:4;stroke-dasharray:none;stroke-opacity:0.56593407"
       id="circle883"
       cx="18.097382"
       cy="70.499886"
       r="2.9510982"
       inkscape:label="WRITEB" />
    <circle
       style="display:inline;opacity:1;fill:#00ff00;fill-opacity:1;stroke:none;stroke-width:0.25;stroke-miterlimit:4;stroke-dasharray:none;stroke-opacity:0.56593407"
       id="circle981"
       cx="18.102289"
       cy="33.299229"
       r="2.9510982"
       inkscape:label="WRITEA" />
    <circle
       inkscape:label="INA"
       r="2.9510982"
       cy="52.577679"
       cx="7.3979177"
       id="circle983"
       style="display:inline;opacity:1;fill:#00ff00;fill-opacity:1;stroke:none;stroke-width:0.25;stroke-miterlimit:4;stroke-dasharray:none;stroke-opacity:0.56593407" />
    <circle
       style="display:inline;opacity:1;fill:#00ff00;fill-opacity:1;stroke:none;stroke-width:0.25;stroke-miterlimit:4;stroke-dasharray:none;stroke-opacity:0.56593407"
       id="circle985"
       cx="7.3979177"
       cy="33.299229"
       r="2.9510982"
       inkscape:label="PHASEA" />
    <circle
       inkscape:label="OUTA"
       r="2.9510982"
       cy="52.577679"
       cx="18.102289"
       id="circle987"
       style="display:inline;opacity:1;fill:#0000ff;fill-opacity:1;stroke:none;stroke-width:0.25;stroke-miterlimit:4;stroke-dasharray:none;stroke-opacity:0.56593407" />
    <circle
       inkscape:label="WRITEA"
       r="2.9510982"
       cy="23.65513"
       cx="18.102289"
       id="circle991"
       style="display:inline;opacity:1;fill:#ff00ff;fill-opacity:0.99572646;stroke:none;stroke-width:0.25;stroke-miterlimit:4;stroke-dasharray:none;stroke-opacity:0.56593407" />
  </g>
</svg>
